<svg width="64" height="46" fill="none" xmlns="http://www.w3.org/2000/svg"><g clip-path="url('#clip0_256_6536')" fill="#fff"><path d="M24.895 26.718c0 .051-.003.103-.005.138a.704.704 0 0 0 0 .086.105.105 0 0 0 .005.031l.014.018.011.012c.037.04.1.077.213.12.087.035.233.083.349.141.217.093.414.248.555.449l.056.088.006.01c.065.127.087.255.1.35.016.105.024.173.048.241a.52.52 0 0 0 .093.143l.08.086c.026.028.057.061.087.096.238.231.432.489.578.794h.001c.347.713.557 1.541.775 2.257l.034.12c.032.125.055.268.04.41a.683.683 0 0 1-.342.538l-.002.001c-.312.181-.689.14-.954.038l-.009-.002v-.001c-.06-.026-.117-.056-.162-.078a1.158 1.158 0 0 0-.116-.055c-.056-.021-.072-.014-.087-.006l-.014.008-.014.005c-.024.009-.041.022-.097.06a.644.644 0 0 1-.236.104l-.001-.001c-.2.057-.393-.018-.514-.085l-.004-.002-.012-.006v-.002a.481.481 0 0 1-.076-.052l-.036-.034c-.016.01-.036.021-.057.031l-.012.006c-.338.142-.715.091-.997-.087a1.018 1.018 0 0 1-.168-.135.926.926 0 0 0-.165.739c.06.244.187.612-.026.993v-.001c-.11.206-.283.352-.437.468l-.145.107c-.194.146-.298.36-.39.639-.082.255-.165.608-.323.894v.001c-.087.17-.216.334-.372.471l.026.016c.084.047.156.1.215.145.062.048.105.08.15.108.07.042.117.055.198.029l.006-.002.143-.057c.139-.07.27-.18.43-.315.198-.168.445-.377.773-.47l.186-.04c.933-.15 1.926.49 2.076 1.428h-.002a.429.429 0 0 1-.078.36.468.468 0 0 1-.817-.237v-.006c-.048-.33-.395-.613-.783-.648l-.005-.001c-.203-.023-.365.047-.543.18-.092.068-.18.145-.282.234a3.292 3.292 0 0 1-.325.254c-.277.195-.574.305-.88.301a1.359 1.359 0 0 1-.846-.328v.001a1.444 1.444 0 0 0-.302-.158c-.118-.05-.27-.108-.402-.176a1.142 1.142 0 0 1-.39-.3.783.783 0 0 1-.09-.15l-.149-.06.1-.077c-.009-.033-.018-.067-.023-.102l-.008-.157a.515.515 0 0 1 .52-.508l.125.014.004.001.072.013a.231.231 0 0 0 .148-.034.561.561 0 0 0 .18-.22c.125-.237.183-.528.261-.777l.002-.008.237.082-.236-.082c.09-.26.19-.536.401-.79l.008-.009.149-.142c.05-.042.101-.08.149-.115.101-.074.182-.13.263-.197.041-.038.053-.072.047-.152a1.589 1.589 0 0 0-.03-.175c-.013-.067-.03-.15-.038-.236a1.74 1.74 0 0 1 .071-.71l.037-.1c.156-.44.474-.784.867-1.01l.01-.078.063.036c.05-.026.101-.051.153-.074v.001a.554.554 0 0 1 .437-.001.46.46 0 0 1 .2.162.424.424 0 0 1 .07.29v.004c-.005.036.004.054.006.058l.003.002.019.006h.01-.008c0-.001.02-.003.072-.029.036-.017.058-.03.104-.054.038-.019.088-.042.14-.06v.002a.668.668 0 0 1 .543.034h.001l.003.002.014.007h-.001a.644.644 0 0 1 .122.083l.01.009.025-.014c.027-.016.063-.037.1-.056a.673.673 0 0 1 .312-.078c.17 0 .308.032.437.077l.128.05.007.003.002.001-.005-.015-.002-.007c-.21-.679-.355-1.366-.676-1.963l-.001-.003a1.57 1.57 0 0 0-.25-.34c-.093-.1-.232-.238-.344-.367l-.001-.002c-.25-.294-.283-.584-.344-.837l-.002-.008c-.017-.084-.085-.154-.287-.243a4.38 4.38 0 0 0-.15-.063c-.053-.02-.11-.044-.166-.068a1.426 1.426 0 0 1-.334-.191 1.052 1.052 0 0 1-.41-.852v.001c-.012-.18-.012-.362-.015-.532a4.83 4.83 0 0 0-.029-.511v-.002c-.02-.171-.058-.322-.103-.515l-.014.001-.038.002h-.02a1.12 1.12 0 0 1-.831-.47v-.001c-.052-.066-.1-.143-.133-.194a.792.792 0 0 0-.107-.14l-.008-.007-.006-.007c-.226.143-.507.234-.802.136l-.134-.058a1.485 1.485 0 0 1-.38-.303c-.114-.12-.171-.193-.26-.278-.148-.143-.292-.213-.503-.326V23.7c-.35-.17-.854-.459-.914-1.035v-.001a.28.28 0 0 1 .072-.235.314.314 0 0 1 .21-.096.452.452 0 0 1 .248.06l.073.048.038.03.026.042c.113.196.306.315.57.42.135.052.272.095.423.146.146.05.302.104.447.178.153.074.297.19.412.297l.02-.015a.495.495 0 0 1 .08-.043l.09-.041c.45-.173.88.074 1.124.351.066.07.12.147.162.21.046.07.078.12.115.167.066.084.108.105.168.105.184 0 .379.023.55.117a.77.77 0 0 1 .317.331l.065.156v.004l.078.303c.065.306.095.62.112.9v.619Z" stroke="#fff" stroke-width=".5"/><path d="M32.298 30.936a.477.477 0 0 1 .324.799.433.433 0 0 1-.26.128l-.103.003a4.03 4.03 0 0 0-1.617.222l-.16.065a2.488 2.488 0 0 0-.527.293.792.792 0 0 0-.184.185c.352.152.646.437.757.832l.026.116.002.008c.082.562-.22 1.14-.74 1.403l-.007.004c-.308.142-.624.158-.893.166-.28.009-.506.009-.72.08h.002c-.094.033-.16.084-.3.164a.977.977 0 0 1-.5.153.923.923 0 0 1-.154-.015c-.08.167-.164.332-.248.496l.09.097-.155.03-.094.185a.453.453 0 0 1-.374.236.532.532 0 0 1-.126-.008c.023.396.036.793.036 1.189 0 .23-.18.354-.33.375-.138.019-.367-.043-.412-.283-.145-.719-.269-1.444-.341-2.189l-.136-.13.116-.056-.001-.005.001-.001a.453.453 0 0 1 .304-.47.512.512 0 0 1 .46.049l.061.049h.001l.1-.047.02.17c.034.035.066.07.1.103.062-.127.119-.255.173-.383l-.15-.216h.239l.005-.012.011-.025a.498.498 0 0 1 .832-.096.687.687 0 0 0 .09-.05c.035-.022.094-.061.143-.088l.011-.007.117-.05c.114-.046.23-.08.347-.1.177-.035.355-.047.517-.055.168-.008.316-.013.459-.033h.003l.106-.017a.774.774 0 0 0 .265-.104.318.318 0 0 0 .15-.242l.001-.004v-.067c-.017-.155-.162-.307-.372-.32h-.015l-.017-.004a.575.575 0 0 1-.238-.098.519.519 0 0 1-.17-.224l-.003-.01a1.033 1.033 0 0 1-.056-.515l-.168-.163.2.017c.052-.172.145-.328.258-.463.24-.284.583-.497.88-.635l.277-.119a4.628 4.628 0 0 1 2.087-.313Z" stroke="#fff" stroke-width=".5"/><path d="M34.159 30.676c.51 0 1.168.21 1.378.815l.034.124a.733.733 0 0 1-.008.356.648.648 0 0 1-.252.35c-.218.157-.517.195-.773.17h-.001c-.202-.02-.407-.045-.612-.072a.77.77 0 0 1-.003.106c.187.07.364.151.533.235.291.145.556.288.833.397l.282.097.005.001.159.04c.161.032.327.04.503.038.117-.001.237-.007.361-.013.123-.005.252-.011.381-.011.493 0 .986.068 1.457.204.17.044.389.106.594.193.2.085.422.209.563.39.084.107.133.23.13.361a.569.569 0 0 1-.117.32 1.277 1.277 0 0 1-.43.341l-.002.001c-.706.362-1.36.763-1.947 1.244a14.7 14.7 0 0 0-.585.555c.117-.011.237-.014.358 0l.141.022.016.004a1.4 1.4 0 0 1 .407.176l.125.1.01.01.01.01c.05.061.094.122.132.175.035.048.067.09.1.131a.176.176 0 0 0 .056 0l.061-.009c.023-.003.05-.009.08-.012.028-.004.061-.008.097-.01l.113.004h.014l-.001.002a.969.969 0 0 1 .386.153l.106.086.008.008.105.128c.22.309.28.698.319.972l.022.158a3.64 3.64 0 0 1-.044 1.056l.001.001c-.025.217-.06.4-.06.589 0 .135.019.243.063.33l.053.08v.001l.07.072c.17.153.391.183.65.123.302-.069.613-.255.826-.441.13-.116.255-.244.383-.38s.261-.282.4-.419c.278-.273.6-.536 1.021-.673a.42.42 0 0 1 .504.183.402.402 0 0 1-.069.513h.001c-.335.324-.642.577-.956.901l-.006.007v-.001c-.297.286-.617.64-1.026.895-.655.42-1.627.593-2.346.029v-.001c-.425-.331-.538-.755-.541-1.165-.002-.2.023-.402.048-.588.025-.192.05-.364.061-.53.011-.19.017-.395-.004-.59a1.258 1.258 0 0 0-.141-.5l-.005-.01-.005-.008a1.13 1.13 0 0 0-.108.015c-.053.008-.125.02-.203.02-.22 0-.388-.108-.511-.203l-.01-.009-.01-.01c-.078-.074-.136-.16-.178-.22a2.195 2.195 0 0 0-.062-.086l-.052-.06c-.03-.029-.114-.058-.24-.04h-.002c-.137.018-.271.07-.455.13-.165.054-.377.115-.596.085h-.003a.642.642 0 0 1-.489-.357.812.812 0 0 1-.052-.557l.001-.004.057-.155c.068-.148.165-.276.26-.384.064-.07.133-.14.199-.203l.179-.17a10.382 10.382 0 0 1 1.924-1.5l.008-.007.121.22-.12-.22c.14-.077.328-.19.51-.278l.021-.014a2.295 2.295 0 0 0-.152-.053l-.289-.076c-.412-.089-.825-.07-1.281-.06-.444.012-.925.014-1.406-.14h-.002c-.38-.127-.743-.33-1.069-.492-.337-.168-.65-.302-.985-.34-.016-.002-.032-.006-.047-.009l-.13.04-.014-.087a.488.488 0 0 1-.262-.353.46.46 0 0 1 .085-.353 2.125 2.125 0 0 0-.128-.046l-.017-.005-.015-.008a.99.99 0 0 1-.353-.27c-.012-.015-.021-.032-.032-.047l-.232-.03.144-.14a.851.851 0 0 1-.048-.211V31.799a.387.387 0 0 1-.238-.118.453.453 0 0 1-.117-.272c-.014-.154.042-.379.237-.486l.042-.023.047-.006c.65-.084 1.354-.218 2.047-.218Z" stroke="#fff" stroke-width=".5"/><path d="M57.517 24.916a.984.984 0 0 1 .432.068l.145.069.009.005.066.047a.405.405 0 0 1 .097.486.45.45 0 0 1-.456.253l-.01-.001c-.104-.017-.208.019-.337.118-.14.108-.242.233-.39.376l-.008.008-.001-.001a2.182 2.182 0 0 1-.686.416l-.252.087c-.12.039-.198.12-.262.248-.07.137-.107.3-.154.484l-.002.007c-.105.363-.125.698-.172 1.083l-.001.009c-.071.449-.33.717-.665.853-.315.127-.686.135-1.01.112-.177-.01-.31.006-.432.04-.125.035-.25.094-.41.186-.221.143-.462.31-.756.415l-.13.041c-.094.026-.184.04-.264.053-.086.012-.151.02-.22.033a.567.567 0 0 0-.291.12l-.009.008-.01.007c-.064.046-.12.107-.195.191a1.79 1.79 0 0 1-.272.259c-.234.177-.525.299-.86.241v.001c-.082-.013-.177-.04-.237-.055a.732.732 0 0 0-.171-.029.395.395 0 0 0-.12.026c-.057.02-.1.039-.171.066-.218.096-.521.254-.85.254-.105 0-.2-.01-.282-.02-.086-.01-.15-.02-.218-.024a.646.646 0 0 0-.35.06c-.3.155-.587.338-.88.53-.288.191-.587.394-.894.58l.001.002c-.154.096-.303.192-.455.289-.15.097-.303.195-.462.294v-.001c-.141.09-.314.18-.45.259a2.352 2.352 0 0 0-.286.185l-.072.064a.147.147 0 0 0-.019.06.85.85 0 0 0 .001.206c.018.177.06.333.087.488l.104.412c.018.067.038.133.06.199l.072.196v.003l.085.205c.183.409.434.801.735 1.14l.154.166.007.006-.184.169.184-.168c.08.087.188.184.3.248.115.065.19.07.234.053l.01-.004.039-.017a.685.685 0 0 0 .15-.161c.073-.095.19-.266.37-.362.292-.168.712-.181 1.007.06l.001-.002.009.008.007.005h-.001a.68.68 0 0 1 .11.107c.057-.042.115-.078.17-.107.15-.082.31-.142.418-.177.282-.098.586-.122.887-.076l.016.002c.135.015.286.055.417.136.14.088.266.229.304.431l.013.137a.697.697 0 0 1-.097.337c-.062.11-.158.22-.21.287l-.007.009v-.001c-.054.062-.073.133-.091.256-.017.11-.032.298-.123.474h-.002c-.12.252-.343.433-.522.563l-.007.005c-.258.174-.536.27-.82.337l-.007.002-.008.001c-.1.018-.264.056-.405.073-.15.018-.329.022-.504-.04l-.005-.001c-.196-.073-.345-.211-.446-.297-.114-.097-.19-.149-.278-.167l-.008-.002c-.177-.043-.372.009-.559.134-.18.136-.324.3-.513.488-.18.18-.392.368-.672.485v.001c-.305.134-.628.129-.904.107-.073-.006-.15-.017-.213-.025a1.515 1.515 0 0 0-.175-.012c-.1 0-.161.019-.211.062l-.018.016-.02.011a.385.385 0 0 1-.47-.063c-.131-.135-.138-.328-.062-.494l.01-.02.012-.018c.24-.346.567-.433.86-.463.129-.014.295-.018.406-.026a1.39 1.39 0 0 0 .334-.06c.199-.072.356-.231.552-.453.182-.206.406-.477.716-.633l.004-.003a1.763 1.763 0 0 1-.393-.208 3.387 3.387 0 0 1-.651-.634l-.154-.191a6.069 6.069 0 0 1-.806-1.453v-.001a4.098 4.098 0 0 1-.283-1.045l-.035-.214c-.036-.23-.067-.508-.008-.762l.047-.156c.134-.337.438-.496.645-.629l.007-.005.43-.265c.146-.092.294-.186.443-.274.301-.193.603-.382.902-.57.303-.188.603-.376.904-.57.265-.177.576-.423.954-.544l.01-.004.259-.062c.097-.016.203-.024.311-.01h-.001c.104.004.198.021.27.036.088.017.141.027.19.027.087 0 .184-.033.32-.096.12-.056.29-.146.46-.196l.009-.003.01-.002c.371-.077.629.002.898.063.04.006.077-.003.134-.05.073-.06.123-.13.222-.239l.011-.011c.151-.146.34-.331.59-.439l.018-.006c.186-.064.38-.083.53-.103.157-.021.284-.045.4-.1.11-.06.219-.127.336-.203a5.03 5.03 0 0 1 .377-.227h.001l.124-.059c.248-.11.502-.167.769-.167l.135.004h.005l.221.027c.076.01.148.018.217.019.147.002.224-.026.262-.063l.017-.027a.326.326 0 0 0 .018-.073c.005-.035.008-.072.012-.119.003-.043.006-.098.012-.15l.001-.005.068-.453v-.008l.002-.007c.069-.333.163-.675.307-1 .122-.281.31-.582.658-.75l.01-.004.011-.004.23-.075c.072-.02.133-.039.192-.06a.71.71 0 0 0 .274-.156l.011-.01.323-.292c.116-.102.245-.208.388-.292.144-.084.309-.152.495-.165Zm-8.996 12.44c-.122.052-.226.12-.334.224l-.013.013-.014.01a1.876 1.876 0 0 0-.06.045l-.075.059c-.028.02-.06.042-.095.063l-.118.058c-.38.146-.692-.09-.837-.314l-.002-.003c-.012-.02-.022-.04-.031-.058-.032.037-.06.074-.097.122l-.006.009-.008.008a1.58 1.58 0 0 1-.288.247c.069.014.135.032.198.054l.24.102.014.007.012.008c.086.055.161.122.22.174.06.053.107.092.152.123.006.002.03.01.082.008.06 0 .133-.012.216-.03.166-.04.336-.103.447-.146l.01-.004.087-.035a.433.433 0 0 0 .157-.11c.04-.047.071-.117.08-.24v-.004l.035-.228c.012-.054.028-.11.047-.167l-.019.005Z" stroke="#fff" stroke-width=".5"/><path d="M45.222 9.248a.513.513 0 0 1 .362.038c.098.051.17.134.21.238l.028.11v.002l.031.15c.042.147.113.293.192.473.1.223.21.496.181.813v.001c-.014.139-.055.286-.075.378a.69.69 0 0 0-.019.268.66.66 0 0 0 .175.338l.096.078.005.003.062.038c.15.08.319.097.473.056.05-.013.1-.03.16-.05.055-.02.121-.043.19-.062.107-.03.227-.05.364-.04l.142.02.01.002-.06.227.06-.226c.299.08.538.26.732.406l.086.056c.016.01.036.017.054.027l.001-.008.117.032a.566.566 0 0 1 .486-.134c.098.02.202.07.28.16a.445.445 0 0 1 .081.145c.05-.021.099-.045.135-.062.172-.104.361-.217.574-.308l.323-.124a4.544 4.544 0 0 1 1.003-.219h.012c.396-.023.865.015 1.19.435h.001c.15.181.261.38.36.55.102.178.191.329.306.458.235.246.485.466.773.644h-.001l.098.056.117.066.012-.037a.671.671 0 0 1 .029-.066.376.376 0 0 1 .044-.068h-.001c.172-.22.417-.26.615-.247.19.014.383.079.509.12h-.001c.394.112.786.267 1.152.444h-.001c.196.084.41.175.603.292.106.063.165.102.226.124.044.015.063.012.087-.001a.787.787 0 0 1 .512-.124c.18.026.325.128.43.283l.043.068.007.013.006.014c.03.07.054.169.068.217a.81.81 0 0 0 .024.073l.004.008v.002a.538.538 0 0 0 .054.01l.088.014c.124.02.23.023.384.038.143.014.305.039.472.105l.12.058c.268.147.438.38.58.55l.063.07a.22.22 0 0 0 .02.016c.004-.001.012-.002.023-.006l.01-.003.009-.003a.718.718 0 0 0 .156-.073 1.23 1.23 0 0 1 .252-.114v-.001c.293-.103.71-.078.96.227l.048.065.004.005.05.1c.097.227.038.442-.015.593-.035.1-.06.154-.084.232a.678.678 0 0 0-.021.09l-.005.072v.001l.03.24c.013.078.027.16.041.26a1.42 1.42 0 0 1-.036.624h-.001a1.75 1.75 0 0 1-.599.88v-.002a1.207 1.207 0 0 1-.27.184l.07.135c.09.021.182.04.277.061v.001a.426.426 0 0 1 .309.233c.054.11.06.232.042.334a.766.766 0 0 1-.127.315l.064.122-.137-.033a.864.864 0 0 1-.256.184c-.204.097-.44.126-.626.137h-.001a.705.705 0 0 0-.214.036.067.067 0 0 0-.024.018.22.22 0 0 0-.034.065l-.001.002-.002.007c.087.029.17.073.245.129.439.302.423.818.423 1.112 0 .08.006.122.015.15a.13.13 0 0 0 .048.065c.049.037.124.093.184.167.052.065.09.14.113.227l.017.092.002.008v.007c.019.264-.123.46-.223.588-.06.075-.099.119-.142.178a.497.497 0 0 0-.07.119c-.027.121-.043.255-.063.409-.019.152-.04.323-.083.486-.088.34-.274.679-.722.846l-.007.002c-.233.08-.481.09-.702.084-.112-.003-.223-.01-.324-.017a4.965 4.965 0 0 0-.286-.01c-.454 0-.89-.023-1.35-.09v.002l-.003-.001h-.003v-.001a.363.363 0 0 1-.264-.157.355.355 0 0 1-.038-.297.529.529 0 0 1 .35-.332l.023-.008.023-.003c.691-.089 1.363-.066 2.023-.066.146 0 .225-.017.274-.042.036-.02.078-.055.117-.16a3.28 3.28 0 0 0 .1-.63v-.011l.002-.011c.042-.22.094-.55.298-.802l.01-.011.01-.011.003-.003c-.005-.005-.009-.012-.015-.02v.001c-.197-.221-.221-.526-.241-.698-.013-.086-.013-.172-.013-.233 0-.06-.003-.103-.007-.138a.528.528 0 0 1-.271.01.47.47 0 0 1-.352-.338v-.004c-.006-.02-.009-.04-.014-.06l-.196-.062.157-.152c-.043-.335-.015-.714.23-1.038a.981.981 0 0 1 .198-.196.837.837 0 0 1-.088-.061l-.01-.007.002-.001a.713.713 0 0 1-.24-.65.857.857 0 0 1 .344-.558.95.95 0 0 1 .303-.15c.114-.037.164-.046.255-.079l.008-.003.118-.045a.732.732 0 0 0 .276-.215l.003-.003.072-.105c.139-.24.075-.471.01-.887l-.002-.01c-.02-.166-.01-.32.024-.475-.044.02-.091.042-.137.06a.878.878 0 0 1-.627.021v.001a.948.948 0 0 1-.455-.318c-.049-.057-.098-.123-.136-.171l-.116-.132c-.145-.139-.324-.144-.65-.168h-.003c-.285-.023-.641-.095-.887-.391l-.006-.007a1.099 1.099 0 0 1-.108-.174l-.008.003-.011.003c-.271.061-.52-.02-.714-.113-.098-.046-.193-.101-.275-.149l-.228-.124c-.396-.191-.79-.36-1.206-.508l-.006-.002c-.034-.013-.07-.03-.101-.043a3.419 3.419 0 0 0-.092-.039l-.03-.01a.711.711 0 0 1-.236.317l-.08.048a.902.902 0 0 1-.667.03 2.176 2.176 0 0 1-.491-.236v-.001a4.368 4.368 0 0 1-1.586-1.599l-.005-.01c-.025-.048-.05-.1-.07-.142a1.555 1.555 0 0 0-.058-.117c-.04-.067-.07-.093-.095-.105l-.011-.006.12-.22-.12.22a.302.302 0 0 0-.144-.02c-.082.002-.162.014-.266.027-.412.06-.802.199-1.149.415h.001c-.127.083-.294.194-.475.27a1.078 1.078 0 0 1-.567.082l-.092-.017a.964.964 0 0 1-.37-.183c-.1.014-.2.013-.296-.002-.305-.045-.597-.208-.82-.366v.001c-.158-.101-.218-.147-.296-.153a.959.959 0 0 0-.156.054c-.072.03-.18.077-.296.093h-.001a1.874 1.874 0 0 1-.978-.102v-.001a1.612 1.612 0 0 1-1.028-1.61v-.008l.002-.01c.013-.086.031-.168.048-.24.017-.074.032-.134.042-.194a.484.484 0 0 0-.026-.29l-.004-.01c-.053-.132-.115-.243-.188-.399a1.797 1.797 0 0 1-.163-.498l-.001-.002c-.045-.325.199-.532.411-.585Z" stroke="#fff" stroke-width=".5"/><path d="M39.395 1.78a1.4 1.4 0 0 1 .947.137l.13.078c.29.194.475.465.614.734.08.153.148.311.21.458l.181.415.002.002.05.095c.09.152.202.27.345.382l.19.136.095.068c.185.143.356.337.419.606l.021.14.001.011-.005.162c-.037.364-.24.632-.494.823-.122.092-.26.165-.398.229.156.45.225.926.199 1.404.314-.03.644-.02.956.09l.122.053.105.058c.075.047.108.07.167.106.098.057.143.064.178.056.111-.029.205-.065.33-.107.116-.04.248-.079.399-.093l.095-.006a.945.945 0 0 1 .687.247l.072.082a.781.781 0 0 1 .131.273l.018.113c.002.034.002.047.005.067l.063.044a.748.748 0 0 1 .183.16l.058.083a.966.966 0 0 1 .091.175l.03.092.001.006.018.1c.027.23-.036.432-.13.611l-.003.009-.006.008a.435.435 0 0 1-.3.205.44.44 0 0 1-.32-.075c-.19-.133-.258-.389-.129-.631-.01-.008-.025-.018-.045-.03-.032-.019-.092-.052-.141-.085l-.008-.005-.007-.006a.83.83 0 0 1-.309-.537.792.792 0 0 0-.02.004v-.001c-.069.017-.136.044-.22.076-.081.031-.18.07-.288.095l-.015.004-.014.001c-.198.024-.42.028-.652-.055l-.01-.004c-.098-.04-.186-.093-.256-.135a1.603 1.603 0 0 0-.185-.099c-.253-.077-.52-.043-.829.019l-.047.178-.143-.138-.072.016v-.001c-.354.102-.65-.21-.62-.536l.011-.067.01-.059-.142-.136.174-.04a2.825 2.825 0 0 0-.102-1.279l-.091.028.05-.147a2.873 2.873 0 0 0-.124-.289l-.038-.1a.527.527 0 0 1 .011-.315.484.484 0 0 1 .343-.308l.187-.05.02-.007.054-.152.061.117c.013-.005.026-.007.04-.012a.693.693 0 0 0 .244-.137l.053-.068a.177.177 0 0 0 .021-.058.047.047 0 0 0 0-.022c-.001-.002-.004-.01-.017-.02L41.6 5.02l-.006-.006a1.201 1.201 0 0 0-.196-.141c-.081-.05-.188-.114-.282-.192l-.008-.006-.007-.007a1.99 1.99 0 0 1-.433-.593c-.117-.218-.204-.464-.285-.66-.086-.211-.173-.386-.298-.524l-.069-.064a.695.695 0 0 0-.274-.13.327.327 0 0 0-.065-.006l.01.019h-.085l-.017.01-.036.05a.486.486 0 0 1-.453.255.52.52 0 0 1-.431-.244l-.004-.007c-.017-.03-.046-.059-.12-.064h-.043c-.021 0-.046 0-.074.005a2.058 2.058 0 0 0-.495.168v-.001c-.37.197-.81.417-1.327.338l-.105-.02c-.12-.027-.242-.078-.343-.119-.11-.045-.202-.083-.284-.104-.084-.022-.126-.02-.146-.013-.007.002-.032.01-.064.077l-.002.003c-.147.3-.273.629-.588.895l-.148.11-.007.005c-.352.218-.789.345-1.234.295v-.001c-.265-.028-.501-.156-.673-.239-.19-.091-.322-.14-.457-.128a2.212 2.212 0 0 0-.477.122c-.152.054-.349.134-.517.189-.27.088-.57.15-.895.086-.461.408-.718.96-.858 1.584-.158.703-.164 1.47-.164 2.174 0 .169-.004.49-.098.756a.761.761 0 0 1-.276.382.648.648 0 0 1-.542.075c-.382-.096-.542-.393-.62-.657a3.225 3.225 0 0 1-.081-.381c-.02-.123-.037-.22-.06-.3l-.002-.007c-.085-.328-.222-.62-.459-.784l-.007-.006a.343.343 0 0 0-.248-.081c-.092.007-.197.045-.358.111l-.003.001c-.238.096-.633.26-1.012.047l-.015.017c-.001.003-.004.004-.006.006l-.006.008c-.166.179-.4.354-.66.407a.723.723 0 0 1-.436-.039.807.807 0 0 1-.365-.332l-.004-.006-.005-.008c-.078-.151-.1-.331-.119-.437a.552.552 0 0 0-.072-.226c-.028-.027-.077-.049-.152-.047a.386.386 0 0 0-.205.063l-.008.005a.718.718 0 0 0-.23.277c-.035.065-.064.13-.103.208-.037.075-.08.159-.132.24l-.008.012-.009.011c-.187.233-.558.429-.913.243l-.07-.042c-.197-.133-.248-.327-.276-.45-.03-.137-.037-.183-.067-.222a.11.11 0 0 0-.06-.02c-.038-.001-.06.011-.067.018l-.008.007-.166-.187.165.187c-.255.225-.566.141-.735-.026a.537.537 0 0 1-.16-.336.486.486 0 0 1 .15-.389l.004-.005h.001c.268-.268.642-.352.978-.3.249.04.494.157.678.347.145-.187.326-.364.563-.487l.146-.066c.545-.214 1.299-.066 1.61.516l.056.122.004.01c.014.042.024.087.035.129a.485.485 0 0 1 .047-.055l.078-.067c.186-.148.447-.252.731-.142l.008.003.014.005c.1.037.187.102.221.125l.024.017c.02-.009.051-.019.09-.04.053-.027.138-.075.21-.104.74-.339 1.44-.02 1.873.517l.083.11.004.006.036.059c.094-1.25.464-2.625 1.573-3.485l.062-.044a.577.577 0 0 1 .223-.084.503.503 0 0 1 .318.06h.001c.07.037.162.043.298.012.142-.033.277-.093.44-.154l.005-.002.238-.082c.25-.085.538-.169.829-.169h.008l.006.001c.217.013.403.072.568.14.081.033.16.07.234.104.074.035.144.067.215.096.21.076.442.049.654-.07a.745.745 0 0 0 .233-.246c.082-.128.132-.239.223-.398.082-.14.186-.298.338-.419.16-.126.36-.2.61-.2.214 0 .406.062.566.12.128.047.233.089.338.118l.105.026h.005l.098.012c.1 0 .206-.028.329-.08.083-.036.165-.078.257-.125.087-.044.185-.094.283-.135V1.93c.28-.123.633-.193.965-.152.14.018.28.058.41.123.105-.057.22-.097.336-.122Z" stroke="#fff" stroke-width=".5"/><path d="M10.004 4.058c.633 0 1.272.02 1.896.052h.003l.643.05a23.44 23.44 0 0 1 3.803.652l.622.171.006.002.25.081c.26.09.537.221.748.505h-.001c.052.065.102.145.132.19a.46.46 0 0 0 .09.106l.025.013a.496.496 0 0 0 .213.001h.002l.271-.023c.209-.006.426.024.635.136.072-.194.266-.277.406-.291.145-.015.356.027.476.197l.074-.02.012-.005c.071-.041.138-.089.226-.147a1.04 1.04 0 0 1 .285-.142l.012-.003.013-.002.142-.011a.705.705 0 0 1 .43.145l-.001.001c.112.079.18.184.227.277l.012.031c.17.036.393.164.418.428l.002.023-.002.024a.596.596 0 0 1-.259.448.606.606 0 0 1-.507.07l-.01-.003-.01-.004a.862.862 0 0 1-.377-.274l-.014-.018-.008-.015-.103.075c-.115.067-.3.163-.506.163-.074 0-.147-.009-.218-.022a1.285 1.285 0 0 1-.418.362l-.066.116-.058-.056a.534.534 0 0 1-.547-.097.486.486 0 0 1-.164-.364c-.027-.004-.036-.004-.028-.004-.074 0-.146.01-.246.018a1.564 1.564 0 0 1-.308.001v.002c-.41-.028-.694-.259-.899-.53l-.007-.009c-.084-.123-.12-.188-.168-.235l-.051-.042a.572.572 0 0 0-.163-.06c-.04-.01-.08-.017-.125-.027-.042-.01-.09-.02-.136-.033l-.002-.001c-.371-.106-.766-.19-1.17-.277h-.002a23.934 23.934 0 0 0-4.43-.555c-.643-.022-1.301-.022-1.956.04a3.424 3.424 0 0 0-.705.158c-.222.08-.399.189-.517.335l-.003.004a1.418 1.418 0 0 0-.158.244c-.046.086-.108.213-.166.314-.125.221-.301.463-.626.591l.001.001c-.38.153-.726-.011-.955-.111l-.012-.005a.626.626 0 0 0-.022.08v.006c-.047.22-.026.483.037.762.032.14.073.277.118.412l.144.385.002.005.085.2c.165.357.395.688.663.987l.14-.03-.041.137c.047.05.095.1.145.148l.05.056a.524.524 0 0 1 .077.449.532.532 0 0 1-.235.315c.01.02.018.043.03.065l.031.057.023.041c.123.213.23.464.256.75.05.469-.078.949-.496 1.274h.001a1.16 1.16 0 0 1-.596.248l-.016.002h-.015c-.045 0-.09-.004-.128-.007-.04-.004-.068-.008-.1-.01a.33.33 0 0 0-.084 0l-.022.009h-.003a.957.957 0 0 0-.077.092l-.06.079-.003.005c-.339.413-.7.826-1.058 1.236v-.001c-.338.411-.696.823-1.052 1.23l-.003.005c-.259.282-.514.548-.733.827l-.205.284c-.259.398-.303.826-.226 1.273.077.451.274.907.485 1.346l.034.083c.057.176.04.413-.136.56l-.101.065a.958.958 0 0 1-.29.088l-.064.372-.178-.372a1.33 1.33 0 0 1-.293-.08l-.01-.004-.009-.004-.037-.02-.031-.018-.001-.001-.023.056c-.011.03-.029.07-.046.103h.001c-.31.643-.605 1.275-.919 1.902-.02.05-.046.1-.065.138a1.123 1.123 0 0 0-.055.119c-.024.065-.01.071-.01.072l.042.045c.02.018.047.038.081.063l.231.163h.002l-.138.17.138-.168.425.344.422.343c.067.053.19.167.31.27.128.111.275.23.418.325.15.099.268.153.348.164.035.005.047 0 .048-.001l.004-.003a.112.112 0 0 0 .017-.026l.004-.007.064-.091a.464.464 0 0 1 .269-.15.526.526 0 0 1 .352.066.533.533 0 0 1 .233.27.472.472 0 0 1 .01.305l-.047.11-.004.005c-.237.371-.645.53-1.054.503v.001c-.475-.027-.852-.348-1.103-.55l-.574-.467c-.19-.157-.38-.312-.568-.461l-.002-.002c-.066-.054-.145-.11-.24-.179a4.665 4.665 0 0 1-.285-.221c-.159-.136-.336-.319-.411-.554l-.026-.104c-.047-.27.042-.533.137-.742a4.62 4.62 0 0 1 .155-.304c.05-.092.094-.17.13-.242.102-.23.21-.455.316-.676.106-.221.211-.439.31-.662l.098-.24c.036-.089.08-.189.135-.284.108-.19.279-.395.567-.46l.021-.004a.921.921 0 0 1 .127-.007c-.238-.627-.392-1.311-.224-2.005.102-.45.345-.84.614-1.182.26-.333.588-.67.826-.95l.003-.002.939-1.079c.313-.36.627-.723.941-1.08h.001l.194-.23c.072-.083.15-.169.23-.24.17-.151.387-.275.677-.283l.16-.01a.87.87 0 0 0 .1-.006.14.14 0 0 0 .094-.053c.062-.07.09-.192.056-.338l-.003-.01c-.025-.137-.095-.258-.19-.439-.088-.166-.195-.381-.195-.643 0-.123.03-.245.08-.359a5.29 5.29 0 0 1-1.027-1.736l-.002-.005a5.47 5.47 0 0 1-.26-1.075c-.046-.386-.026-.805.163-1.17l.062-.103c.16-.234.425-.415.744-.441h.02c.151 0 .298.03.43.079l.127.053.008.004.009.004.044.028.039.022.047.025.003-.001.032-.034a.82.82 0 0 0 .077-.135c.028-.06.053-.12.083-.188a1.947 1.947 0 0 1 .759-.877l.22-.123c.524-.261 1.129-.349 1.672-.368h.003l.63-.009Z" stroke="#fff" stroke-width=".5"/><path d="M3.81 23.92h.042l.037.003a.273.273 0 0 1 .158.068l.009.01c-.011-.009-.019-.013.006.003.012.007.047.03.078.072.007.01.01.022.015.032a.309.309 0 0 1 .036.072h.302l-.318.305a.373.373 0 0 1-.06.081c.012-.012.034-.043.009-.007-.008.011-.032.046-.074.075-.007.005-.016.006-.024.01-.011.008-.025.02-.044.03a.278.278 0 0 1-.093.026c-.018.002-.036.001-.037.001h-.123l-.023.022H3.55l-.217.209v-.23H3.21l.123-.12v-.003a.354.354 0 0 1-.038-.106c-.003-.015-.002-.03-.003-.042l-.284-.273h.366c.005-.005.008-.012.013-.016l.008-.007a.385.385 0 0 1 .06-.08l.071-.07h.023l.262-.252v.188Zm-.327.118-.006.007.008-.008-.002.001Z" stroke="#fff" stroke-width=".5"/><path d="M3.917 23.857c.199.007.394.085.536.153l.155.086c.049.028.09.052.13.072.075.036.121.042.155.038a.954.954 0 0 0 .158-.078.917.917 0 0 1 .3-.116h.005l.006-.003v.001c.245-.041.452.02.623.097.085.038.168.082.24.12.07.037.133.07.196.096.13.04.186.014.426-.012h.003l.191-.005a.937.937 0 0 1 .346.087l.153.082.006.004.078.04c.02.005.034.006.047.006a.463.463 0 0 0 .083-.009c.045-.008.08-.016.146-.03l.014-.002c.035-.005.072-.01.114-.018l.134-.02c.092-.011.202-.02.313-.005l.148.031c.282.079.48.259.628.455l.07.099.003.006.11.198c.033.064.064.12.096.167.066.095.113.119.158.122h.006l.088-.006c.088-.02.18-.085.32-.198.08-.066.185-.152.298-.215a.737.737 0 0 1 .438-.099l-.001.001a.474.474 0 0 1 .329.15.412.412 0 0 1 .1.358l-.015.059a.888.888 0 0 1-.361.436l-.378.252c-.102.061-.216.12-.338.16l-.001-.002c-.378.149-.853.13-1.202-.178a1.597 1.597 0 0 1-.313-.387c-.081-.133-.136-.236-.216-.342-.03-.04-.052-.052-.069-.057a.25.25 0 0 0-.107-.006 1.575 1.575 0 0 0-.2.04l-.263.056c-.204.027-.405-.001-.6-.082l-.006-.003-.007-.002a1.203 1.203 0 0 1-.114-.064c-.033-.02-.05-.032-.07-.043a.118.118 0 0 0-.066-.02.404.404 0 0 0-.075.015.877.877 0 0 1-.18.027l.002.002c-.004 0-.008-.002-.012-.001h-.003c-.243.01-.44-.06-.605-.135-.18-.082-.294-.15-.452-.198l-.012-.004v-.001a.097.097 0 0 0-.074-.001.646.646 0 0 0-.074.03 4.58 4.58 0 0 1-.107.047.922.922 0 0 1-.73.054v-.001a1.31 1.31 0 0 1-.436-.236l-.106-.085-.005-.003a.69.69 0 0 0-.466-.178.322.322 0 0 1-.289-.474l.004-.006.003-.006.059-.085a.634.634 0 0 1 .535-.231Z" stroke="#fff" stroke-width=".5"/><path d="M18.167 21.981c.38-.04.762-.01 1.14.09l.166.043c.818.232 1.593.746 2.144 1.337h.001l.005.006.005.005h-.001c.16.164.141.388.034.53a.422.422 0 0 1-.526.123l-.01-.004.118-.22-.118.22a8.645 8.645 0 0 1-.615-.373c-.2-.13-.393-.257-.591-.374-.395-.232-.786-.404-1.222-.432l-.008-.001c-.389-.038-.726.09-1.183.206a3.703 3.703 0 0 1-.694.14v-.002c-.115.014-.169.016-.264.03a.524.524 0 0 0-.176.05.432.432 0 0 0-.112.119c-.05.064-.13.175-.247.256l-.007.004h-.001c-.168.107-.36.161-.553.166l.001.001h-.007l-.023.002a1.479 1.479 0 0 1-.14.005c-.053 0-.086-.002-.119 0-.057.004-.064.014-.068.019l-.007.008-.007.005a.392.392 0 0 0-.074.122l-.043.106-.052.126-.005.01c-.349.699-1.11.952-1.771 1.062v.001c-.202.035-.397.051-.583.065-.19.013-.366.024-.55.045h-.002c-.393.04-.705.139-1.075.286l-.017.006-.016.004a.45.45 0 0 1-.355-.08.339.339 0 0 1-.133-.208.312.312 0 0 1 .077-.26h-.002c.339-.43.83-.585 1.293-.659.233-.037.472-.055.69-.073.22-.018.42-.036.598-.07.314-.076.57-.157.755-.32l.082-.083.063-.077c.058-.082.104-.181.169-.31.078-.155.182-.352.375-.498l.072-.053a.98.98 0 0 1 .532-.152l.178-.01a.75.75 0 0 0 .104-.009.147.147 0 0 0 .048-.017l.068-.058a1.62 1.62 0 0 1 .47-.385c.183-.093.382-.136.619-.148h.002l.17-.014c.167-.02.33-.059.5-.104.222-.06.47-.135.73-.181h.003l.165-.023ZM60.8 20.312c.054 0 .143.015.215.09.066.069.082.153.074.226v1.256c0 .037.005.148-.001.23a.575.575 0 0 1-.074.251l-.069.087a.322.322 0 0 1-.383.041l-.053-.04-.011-.01-.009-.011a.525.525 0 0 1-.113-.346c0-.046.004-.09.007-.123a.923.923 0 0 0 .004-.08c0-.076.007-.157.012-.225.006-.072.01-.132.01-.184v-.01l.001-.009.068-.865.002-.031.01-.03a.328.328 0 0 1 .31-.217Z" stroke="#fff" stroke-width=".5"/><path d="M61.084 20.36a.312.312 0 0 1 .317.315c0 .1.006.196.012.3.005.101.011.21.011.326v.302l.002.07a1.14 1.14 0 0 1 0 .102.506.506 0 0 1-.075.245l-.026.042a.316.316 0 0 1-.254.125.36.36 0 0 1-.25-.102l-.012-.012-.012-.015a.494.494 0 0 1-.1-.283 1.07 1.07 0 0 1 0-.101c.002-.031.004-.05.004-.07 0-.06.007-.125.012-.171.006-.052.01-.094.01-.132 0-.232.024-.44.046-.652h.002a.308.308 0 0 1 .313-.289ZM42.018 5.676c0 .294 0 .578-.022.863l-.012.225c-.006.072-.01.133-.01.186v.215c0 .025 0 .083-.013.14a.375.375 0 0 1-.076.154.27.27 0 0 1-.228.123.281.281 0 0 1-.152-.044.27.27 0 0 1-.086-.094.362.362 0 0 1-.063-.205c0-.028.003-.056.004-.069a.377.377 0 0 0 .002-.026v-.216c0-.076.006-.157.011-.225.006-.072.011-.132.011-.185 0-.292.023-.583.045-.861h.002a.277.277 0 0 1 .284-.263.31.31 0 0 1 .275.167l.028.055v.06ZM5.78 8.55c.112 0 .222.062.28.17l.02.047.011.031.002.033c.011.157.027.315.044.478.017.161.035.327.046.494a4.6 4.6 0 0 1 .023.248c.005.082.01.156.02.233.021.142.054.346-.008.556a.267.267 0 0 1-.112.152.28.28 0 0 1-.3 0 .27.27 0 0 1-.097-.114.707.707 0 0 1-.094-.288c-.005-.044-.008-.089-.01-.123l-.009-.093v-.005a4.337 4.337 0 0 1-.024-.262c-.006-.082-.01-.156-.02-.234l-.002-.006v-.008l-.034-.497-.033-.496-.001-.008v-.009a.298.298 0 0 1 .298-.299Z" stroke="#fff" stroke-width=".5"/><path d="M6.168 9.149c.074 0 .159.027.223.09l.055.077.019.036.006.04c.046.292.05.585.07.84v.02c0 .23.024.553-.025.84h-.003a.264.264 0 0 1-.266.224.267.267 0 0 1-.265-.203l-.046-.218a3.534 3.534 0 0 1-.046-.435l-.005-.209a10.479 10.479 0 0 1-.023-.82v-.06l.029-.055.055-.076a.317.317 0 0 1 .222-.091Z" stroke="#fff" stroke-width=".5"/><path d="m44.4 13.803-4.47 14.33h-1.74l-3.63-10.93c-.033-.106-.067-.22-.1-.34-.027-.12-.057-.246-.09-.38a15.523 15.523 0 0 1-.2.72l-3.65 10.93h-1.74l-4.47-14.33h1.61c.173 0 .317.044.43.13a.57.57 0 0 1 .23.33l2.96 9.96c.047.18.09.374.13.58.047.207.09.427.13.66.047-.233.093-.453.14-.66.053-.213.11-.406.17-.58l3.37-9.96a.713.713 0 0 1 .23-.31.65.65 0 0 1 .43-.15h.56c.173 0 .313.044.42.13a.801.801 0 0 1 .24.33l3.36 9.96c.06.174.113.36.16.56.053.2.103.41.15.63.033-.22.07-.43.11-.63.04-.2.083-.386.13-.56l2.97-9.96a.634.634 0 0 1 .22-.32.68.68 0 0 1 .43-.14h1.51Z"/></g><defs><clipPath id="clip0_256_6536"><path fill="#fff" d="M0 0h64v46H0z"/></clipPath></defs></svg>