<svg aria-hidden="true" style="width:0;height:0;position:absolute;overflow:hidden" xmlns="http://www.w3.org/2000/svg"><defs><symbol id="icon-arrow-right" viewBox="0 0 195 32"><path fill="#fff" style="fill:var(--color1,#fff)" d="M193.415 17.414c.78-.781.78-2.047 0-2.829L180.687 1.857a2 2 0 0 0-2.829 2.828l11.315 11.314-11.315 11.314a2 2 0 0 0 2.829 2.828l12.728-12.728zM0 18h192v-4H0v4z"/></symbol><symbol id="icon-arrow-left" viewBox="0 0 195 32"><path fill="#fff" style="fill:var(--color1,#fff)" d="M1.252 14.586a2 2 0 0 0 0 2.828L13.98 30.142a2 2 0 1 0 2.828-2.828L5.494 16 16.808 4.686a2 2 0 1 0-2.828-2.828L1.252 14.586zM194.667 14h-192v4h192v-4z"/></symbol><symbol id="icon-bus" viewBox="0 0 32 32"><path fill="#fff" style="fill:var(--color1,#fff)" d="M9.385 26.667c-.189 0-.347-.064-.475-.192s-.192-.286-.192-.475v-2.528c-.434-.188-.885-.589-1.351-1.201s-.7-1.318-.7-2.117V8c0-1.383.749-2.396 2.246-3.037S12.772 4 16 4c3.344 0 5.736.308 7.175.925S25.334 6.567 25.334 8v12.154c0 .798-.233 1.504-.7 2.117s-.917 1.013-1.351 1.201V26c0 .189-.064.347-.192.475s-.286.192-.475.192h-.308c-.189 0-.347-.064-.475-.192s-.192-.286-.192-.475v-2H10.359v2c0 .189-.064.347-.192.475s-.286.192-.475.192h-.308zM8 14.667h16V8.718H8v5.949zm3.339 6.154c.415 0 .765-.145 1.052-.436s.429-.643.429-1.058-.145-.765-.435-1.052c-.29-.286-.643-.429-1.058-.429s-.765.145-1.052.436c-.286.29-.429.643-.429 1.058s.145.765.435 1.052c.29.286.643.429 1.058.429zm9.334 0c.415 0 .765-.145 1.052-.436s.429-.643.429-1.058-.145-.765-.436-1.052c-.29-.286-.643-.429-1.058-.429s-.765.145-1.052.436c-.286.29-.429.643-.429 1.058s.145.765.436 1.052c.29.286.643.429 1.058.429zM8.138 7.385h15.754c-.231-.685-.943-1.199-2.137-1.54s-3.107-.512-5.74-.512c-2.617 0-4.523.173-5.717.519s-1.914.857-2.16 1.532zm2.529 15.282h10.667c.733 0 1.361-.261 1.883-.783s.783-1.15.783-1.883v-4H8v4c0 .733.261 1.361.783 1.883s1.15.783 1.883.783z"/></symbol><symbol id="icon-face" viewBox="0 0 32 32"><path fill="#fff" style="fill:var(--color1,#fff)" d="M12 21.667c-.467 0-.861-.161-1.183-.483s-.483-.717-.483-1.183c0-.467.161-.861.483-1.183s.717-.483 1.183-.483c.467 0 .861.161 1.183.483s.483.717.483 1.183c0 .467-.161.861-.483 1.183s-.717.483-1.183.483zm8 0c-.467 0-.861-.161-1.183-.483s-.483-.717-.483-1.183.161-.861.483-1.183c.322-.322.717-.483 1.183-.483s.861.161 1.183.483c.322.322.483.717.483 1.183s-.161.861-.483 1.183a1.61 1.61 0 0 1-1.183.483zm-4 7.666c2.978 0 5.5-1.033 7.567-3.1s3.1-4.589 3.1-7.567c0-.533-.033-1.05-.1-1.55s-.189-.983-.367-1.45c-.467.111-.933.194-1.4.25s-.955.083-1.467.083c-2.022 0-3.933-.433-5.733-1.3s-3.333-2.078-4.6-3.633c-.711 1.733-1.728 3.239-3.05 4.517s-2.861 2.239-4.617 2.883v.2c0 2.978 1.033 5.5 3.1 7.567s4.589 3.1 7.567 3.1zm-3.056-20.91c1.087 2.171 2.623 3.754 4.608 4.75s3.912 1.494 5.782 1.494c.414 0 .821-.021 1.221-.063s.798-.111 1.195-.206c-.848-1.983-2.161-3.545-3.941-4.686S18.094 8 16.001 8c-.585 0-1.12.034-1.605.101s-.969.175-1.451.322zm-7.428 8.518c1.373-.61 2.763-1.61 4.172-3s2.23-3.137 2.464-5.241c-1.783.679-3.259 1.747-4.428 3.205s-1.905 3.137-2.208 5.036zm-.949-1.662c.485-1.776 1.337-3.341 2.555-4.696s2.689-2.36 4.414-3.017c-.48-.603-1.076-1.092-1.787-1.467s-1.496-.562-2.355-.562c-1.481 0-2.733.512-3.756 1.537s-1.535 2.279-1.535 3.763c0 .934.226 1.788.677 2.561s1.047 1.4 1.787 1.88zm11.438 15.388c-1.659 0-3.22-.315-4.68-.945s-2.732-1.485-3.812-2.565c-1.081-1.08-1.936-2.35-2.566-3.81s-.946-3.02-.946-4.68c0-.351.015-.698.044-1.042s.081-.677.156-.999c-1.041-.561-1.873-1.354-2.496-2.38S.77 12.084.77 10.839c0-1.844.644-3.411 1.933-4.7s2.856-1.933 4.7-1.933c1.127 0 2.163.262 3.109.786s1.719 1.226 2.319 2.106c.509-.144 1.03-.251 1.561-.323s1.067-.108 1.608-.108c1.66 0 3.22.315 4.68.945s2.73 1.484 3.81 2.564 1.935 2.349 2.565 3.809c.63 1.459.945 3.019.945 4.678s-.315 3.22-.945 4.68c-.63 1.461-1.484 2.731-2.564 3.812s-2.349 1.936-3.809 2.566c-1.459.63-3.019.946-4.678.946z"/></symbol><symbol id="icon-id-card" viewBox="0 0 32 32"><path fill="#fff" style="fill:var(--color1,#fff)" d="M28 5.25H4A2.754 2.754 0 0 0 1.25 8v16A2.754 2.754 0 0 0 4 26.75h24A2.754 2.754 0 0 0 30.75 24V8A2.754 2.754 0 0 0 28 5.25zM4 6.75h24c.69.001 1.249.56 1.25 1.25v1.25H2.75V8c.001-.69.56-1.249 1.25-1.25zm24 18.5H4A1.252 1.252 0 0 1 2.75 24V10.75h26.5V24A1.252 1.252 0 0 1 28 25.25zM9.645 17.628a2.635 2.635 0 1 0 0-5.27 2.635 2.635 0 0 0 0 5.27zm0-3.77a1.135 1.135 0 1 1 0 2.27 1.135 1.135 0 0 1 0-2.27zm0 4.953a4.547 4.547 0 0 0-4.41 3.52l-.006.031a.75.75 0 0 0 1.464.325l.001-.005c.309-1.366 1.512-2.371 2.951-2.371s2.642 1.005 2.947 2.351l.004.02a.751.751 0 0 0 1.464-.326l.001.005a4.553 4.553 0 0 0-4.414-3.551h-.001l-.001.001zM26 13.25h-8a.75.75 0 0 0 0 1.5h8a.75.75 0 0 0 0-1.5zm0 4h-8a.75.75 0 0 0 0 1.5h8a.75.75 0 0 0 0-1.5zm0 4h-8a.75.75 0 0 0 0 1.5h8a.75.75 0 0 0 0-1.5z"/></symbol><symbol id="icon-Star" viewBox="0 0 35 32"><path fill="#ae990b" style="fill:var(--color2,#ae990b)" d="m17.455 0 4.617 11.1 11.984.961-9.13 7.821 2.789 11.694-10.259-6.266-10.26 6.266 2.789-11.694-9.13-7.821 11.983-.961L17.455 0z"/></symbol><symbol id="icon-ticket" viewBox="0 0 32 32"><path fill="#fff" style="fill:var(--color1,#fff)" d="M30 13.75a.75.75 0 0 0 .75-.75V8a.75.75 0 0 0-.75-.75H2a.75.75 0 0 0-.75.75v5c0 .414.336.75.75.75a2.25 2.25 0 1 1 0 4.5.75.75 0 0 0-.75.75v5c0 .414.336.75.75.75h28a.75.75 0 0 0 .75-.75v-5a.75.75 0 0 0-.75-.75 2.25 2.25 0 1 1 0-4.5zm-.75 5.924v3.576H2.75v-3.576c1.724-.361 3-1.869 3-3.674s-1.276-3.313-2.975-3.67l-.024-.004V8.75h26.5v3.576c-1.724.361-3 1.869-3 3.674s1.276 3.313 2.975 3.67l.024.004z"/></symbol><symbol id="icon-instagram" viewBox="0 0 32 32"><path fill="#fff" style="fill:var(--color1,#fff)" d="M16 8.8a7.2 7.2 0 1 0 7.199 7.199 7.207 7.207 0 0 0-7.2-7.2zm0 12a4.799 4.799 0 0 1-.936-9.508 4.795 4.795 0 0 1 4.927 2.041A4.802 4.802 0 0 1 16 20.8zM23.2.4H8.8A8.407 8.407 0 0 0 .4 8.8v14.4a8.407 8.407 0 0 0 8.4 8.4h14.4a8.407 8.407 0 0 0 8.4-8.4V8.8A8.407 8.407 0 0 0 23.2.4zm6 22.8a5.996 5.996 0 0 1-6 6H8.8a5.996 5.996 0 0 1-6-6V8.8a5.996 5.996 0 0 1 6-6h14.4a5.996 5.996 0 0 1 6 6v14.4zm-3.6-15a1.806 1.806 0 0 1-1.111 1.663 1.798 1.798 0 0 1-1.962-.391 1.802 1.802 0 0 1 1.272-3.073 1.796 1.796 0 0 1 1.8 1.8z"/></symbol><symbol id="icon-facebook" viewBox="0 0 32 32"><path fill="#fff" style="fill:var(--color1,#fff)" d="M16 .4a15.604 15.604 0 0 0-14.413 9.63 15.597 15.597 0 0 0 3.381 17.001 15.604 15.604 0 0 0 24.001-2.365 15.601 15.601 0 0 0 2.629-8.667 15.614 15.614 0 0 0-15.6-15.6zm1.2 28.744V19.6h3.6a1.206 1.206 0 0 0 1.2-1.2 1.2 1.2 0 0 0-1.2-1.2h-3.6v-3.6a2.401 2.401 0 0 1 2.4-2.4H22a1.197 1.197 0 0 0 1.2-1.2A1.198 1.198 0 0 0 22 8.8h-2.4a4.8 4.8 0 0 0-4.8 4.8v3.6h-3.6a1.2 1.2 0 1 0 0 2.4h3.6v9.544A13.203 13.203 0 0 1 2.814 15.398 13.202 13.202 0 0 1 16 2.799a13.203 13.203 0 0 1 13.186 12.599 13.197 13.197 0 0 1-11.987 13.746z"/></symbol><symbol id="icon-telegram" viewBox="0 0 37 32"><path fill="#fff" style="fill:var(--color1,#fff)" d="M35.717.767A1.425 1.425 0 0 0 34.27.519L2.271 13.042a2.246 2.246 0 0 0 .384 4.297l8.291 1.628v9.245a2.519 2.519 0 0 0 1.579 2.341 2.517 2.517 0 0 0 2.765-.589l3.998-4.146 6.343 5.552a2.513 2.513 0 0 0 2.448.507 2.512 2.512 0 0 0 1.685-1.837l6.409-27.881a1.415 1.415 0 0 0-.456-1.391zm-9.653 5.684L11.918 16.582l-7.832-1.536 21.977-8.594zm-12.591 21.76v-7.497l3.914 3.433-3.914 4.064zm13.821 1.263L14.239 18.027 33.029 4.56l-5.735 24.914z"/></symbol><symbol id="icon-menu" viewBox="0 0 42 32"><path fill="none" stroke="#fff" stroke-width="3.2" stroke-linecap="round" stroke-linejoin="round" style="stroke:var(--color1,#fff)" d="M2.133 29.333h21.333M2.133 16h37.333M18.133 2.667h21.333"/></symbol><symbol id="icon-x" viewBox="0 0 32 32"><path fill="none" stroke="#fff" stroke-width="1.6" stroke-linecap="round" stroke-linejoin="round" style="stroke:var(--color1,#fff)" d="M24 8 8 24M8 8l16 16"/></symbol></defs></svg>