<svg width="500" height="24" viewBox="0 0 500 24" fill="none" xmlns="http://www.w3.org/2000/svg">
<path d="M499.061 13.0607C499.646 12.4749 499.646 11.5251 499.061 10.9393L489.515 1.3934C488.929 0.807611 487.979 0.807611 487.393 1.3934C486.808 1.97919 486.808 2.92893 487.393 3.51472L495.879 12L487.393 20.4853C486.808 21.0711 486.808 22.0208 487.393 22.6066C487.979 23.1924 488.929 23.1924 489.515 22.6066L499.061 13.0607ZM354 13.5H498V10.5H354V13.5Z" fill="white"/>
<path d="M0.939346 10.9394C0.353546 11.5251 0.353546 12.4749 0.939346 13.0607L10.4853 22.6066C11.0711 23.1924 12.0208 23.1924 12.6066 22.6066C13.1924 22.0208 13.1924 21.0711 12.6066 20.4853L4.12132 12L12.6066 3.51473C13.1924 2.92894 13.1924 1.9792 12.6066 1.39341C12.0208 0.807623 11.0711 0.807623 10.4853 1.39341L0.939346 10.9394ZM146 10.5L2 10.5L2 13.5L146 13.5L146 10.5Z" fill="white"/>
</svg>
