<svg width="396" height="193" viewBox="0 0 396 193" fill="none" xmlns="http://www.w3.org/2000/svg">
<path d="M157.236 111.755C157.236 111.943 157.223 112.125 157.215 112.291C157.206 112.459 157.201 112.612 157.212 112.756C157.23 113.001 157.293 113.218 157.468 113.421L157.549 113.507L157.675 113.633C157.961 113.894 158.343 114.077 158.77 114.244C159.235 114.425 159.77 114.593 160.202 114.822L160.526 114.976C161.218 115.339 161.831 115.88 162.259 116.553L162.354 116.711L162.358 116.719L162.429 116.867C162.58 117.215 162.643 117.575 162.694 117.921C162.754 118.323 162.798 118.704 162.929 119.085L163.037 119.324C163.157 119.553 163.308 119.756 163.478 119.953C163.591 120.084 163.711 120.21 163.834 120.34C163.952 120.465 164.074 120.595 164.19 120.729L164.538 121.078C165.328 121.902 165.975 122.808 166.476 123.855H166.477C167.888 126.761 168.736 130.125 169.667 133.179L169.799 133.636C169.918 134.102 169.991 134.591 169.944 135.054C169.88 135.684 169.593 136.263 168.924 136.661L168.922 136.662C167.916 137.244 166.632 137.14 165.664 136.766L165.657 136.763C165.439 136.67 165.227 136.558 165.028 136.457C164.826 136.353 164.637 136.261 164.45 136.192C164.084 136.057 163.75 136.025 163.397 136.214L163.387 136.22L163.375 136.224C163.167 136.305 163.002 136.424 162.806 136.554C162.62 136.678 162.409 136.807 162.141 136.862C161.589 137.065 160.966 136.847 160.491 136.572V136.571C160.425 136.536 160.36 136.487 160.306 136.44C160.245 136.388 160.182 136.327 160.125 136.272C160.066 136.215 160.011 136.162 159.961 136.119C159.935 136.096 159.912 136.078 159.894 136.065L159.85 136.038C159.729 135.979 159.627 135.988 159.498 136.042C159.429 136.07 159.357 136.11 159.271 136.158C159.189 136.204 159.095 136.259 158.994 136.308L158.984 136.313V136.312C157.844 136.79 156.56 136.623 155.597 136.015C155.144 135.729 154.76 135.343 154.495 134.88C153.188 135.983 152.586 137.705 152.93 139.429C153.203 140.57 153.605 141.738 152.91 142.99L152.911 142.991C152.54 143.706 151.945 144.207 151.324 144.673L150.702 145.134C149.677 145.908 149.179 147.009 148.784 148.218C148.396 149.41 148.103 150.736 147.482 151.842C146.929 152.908 145.997 153.863 144.893 154.392C145.108 154.467 145.324 154.54 145.533 154.615C145.861 154.731 146.178 154.857 146.392 155.01C146.679 155.174 146.935 155.363 147.173 155.543C147.418 155.73 147.639 155.902 147.868 156.042C148.312 156.314 148.766 156.452 149.398 156.249L149.403 156.248L149.594 156.186C150.533 155.859 151.295 155.208 152.102 154.526C152.951 153.807 153.847 153.056 155.018 152.726H155.019L155.362 152.64C158.929 151.862 162.832 154.311 163.404 157.836L163.428 157.963C163.468 158.254 163.4 158.505 163.248 158.696C163.079 158.909 162.824 159.025 162.564 159.052C162.046 159.106 161.442 158.805 161.329 158.095L161.328 158.091C161.064 156.221 159.197 154.826 157.299 154.652L157.295 154.651C156.149 154.523 155.263 154.945 154.431 155.561C154.012 155.871 153.613 156.226 153.199 156.584C152.79 156.939 152.367 157.294 151.912 157.594L151.913 157.595C150.859 158.335 149.789 158.715 148.732 158.704C147.676 158.692 146.654 158.288 145.691 157.5V157.501C145.292 157.202 144.792 156.967 144.251 156.739C143.718 156.514 143.139 156.294 142.622 156.03C142.103 155.765 141.62 155.444 141.274 155.001C140.924 154.554 140.723 153.995 140.748 153.273C140.752 152.425 141.525 151.792 142.397 152.002H142.4L142.639 152.053C143.179 152.143 143.615 152.037 143.979 151.81C144.401 151.546 144.743 151.105 145.027 150.568C145.6 149.484 145.894 148.102 146.183 147.172L146.184 147.167L146.373 147.231L146.185 147.167C146.559 146.083 146.942 145.059 147.716 144.125L147.722 144.119L147.985 143.849C148.257 143.592 148.548 143.368 148.839 143.155C149.232 142.868 149.618 142.604 149.985 142.294C150.435 141.899 150.52 141.453 150.477 140.941C150.454 140.678 150.399 140.405 150.34 140.113C150.282 139.826 150.221 139.522 150.196 139.216L150.17 138.834C150.129 137.948 150.243 137.063 150.58 136.244L150.717 135.882C151.401 134.223 152.726 132.935 154.357 132.137L154.712 131.973C155.05 131.813 155.504 131.819 155.864 131.973C156.049 132.052 156.22 132.176 156.338 132.349C156.458 132.525 156.515 132.743 156.486 132.992V132.995C156.445 133.316 156.509 133.603 156.652 133.816C156.776 133.999 156.966 134.138 157.226 134.196L157.341 134.215L157.349 134.216L157.431 134.223C157.626 134.228 157.853 134.147 158.119 134.019C158.271 133.946 158.411 133.87 158.569 133.791C158.718 133.716 158.873 133.643 159.026 133.593C159.535 133.398 160.153 133.395 160.677 133.692H160.678C160.84 133.77 160.966 133.867 161.07 133.958C161.185 134.056 161.248 134.122 161.332 134.187C161.405 134.244 161.466 134.274 161.529 134.284C161.592 134.293 161.682 134.286 161.819 134.23C161.95 134.167 162.071 134.098 162.193 134.028C162.315 133.957 162.441 133.883 162.57 133.818C162.833 133.685 163.122 133.582 163.49 133.582C164.08 133.582 164.559 133.689 165.042 133.859L165.531 134.048L165.542 134.052L165.459 134.224L165.542 134.053C165.736 134.147 166.027 134.298 166.329 134.406C166.479 134.459 166.626 134.5 166.757 134.517C166.89 134.535 166.993 134.526 167.066 134.498L167.116 134.475C167.154 134.453 167.162 134.435 167.164 134.429C167.17 134.413 167.175 134.378 167.156 134.305C167.137 134.232 167.103 134.151 167.061 134.051C167.023 133.963 166.978 133.859 166.95 133.756L166.669 132.944L166.667 132.938C165.817 130.205 165.173 127.173 163.782 124.578L163.781 124.576C163.466 123.966 163.057 123.462 162.606 122.971C162.164 122.489 161.656 121.996 161.188 121.455L161.187 121.454C160.306 120.415 160.204 119.453 159.929 118.301L159.928 118.295C159.762 117.498 159.102 117.059 158.241 116.677C158.029 116.583 157.808 116.494 157.584 116.404C157.361 116.314 157.134 116.223 156.913 116.127C156.473 115.936 156.043 115.719 155.693 115.43V115.429C154.708 114.666 154.315 113.617 154.312 112.491L154.284 111.944C154.264 111.397 154.262 110.85 154.253 110.303C154.241 109.571 154.218 108.835 154.126 108.079L154.125 108.078C154.033 107.279 153.85 106.572 153.661 105.752V105.751C153.61 105.552 153.594 105.45 153.555 105.355C153.526 105.286 153.486 105.228 153.388 105.163C153.372 105.157 153.34 105.15 153.286 105.147C153.225 105.143 153.153 105.145 153.074 105.151C152.996 105.156 152.918 105.164 152.843 105.171C152.772 105.178 152.698 105.185 152.64 105.185H152.632L152.624 105.184C151.446 105.089 150.461 104.521 149.773 103.579L149.63 103.392C149.49 103.199 149.361 102.989 149.233 102.792C149.059 102.523 148.882 102.269 148.666 102.06L148.659 102.053L148.653 102.046C148.538 101.912 148.446 101.815 148.366 101.747C148.287 101.678 148.229 101.647 148.182 101.635C148.096 101.613 147.975 101.633 147.699 101.81L147.7 101.811C146.793 102.424 145.76 102.733 144.712 102.284L144.503 102.183C143.96 101.897 143.521 101.496 143.13 101.083C142.828 100.765 142.567 100.457 142.298 100.171L142.024 99.8931C141.3 99.1945 140.58 98.8466 139.73 98.3911V98.3901C138.242 97.671 136.552 96.6374 136.353 94.7153L136.354 94.7144C136.328 94.6015 136.347 94.4852 136.432 94.394C136.517 94.3023 136.638 94.2659 136.748 94.2583C136.944 94.2448 137.184 94.3135 137.416 94.4663L137.515 94.5366L137.546 94.561L137.565 94.5942C138.186 95.6635 139.21 96.2522 140.377 96.7095C140.962 96.9385 141.571 97.1301 142.18 97.3364C142.784 97.5413 143.386 97.7593 143.937 98.0366H143.936C144.376 98.2496 144.812 98.5652 145.202 98.9028L145.576 99.2446L145.6 99.2681L145.614 99.2974C145.642 99.3509 145.687 99.3973 145.764 99.4604C145.824 99.5107 145.915 99.581 146.005 99.6626C146.006 99.6609 146.008 99.6595 146.009 99.6577L146.039 99.5991L146.099 99.5698C146.121 99.5589 146.158 99.5336 146.214 99.4868C146.269 99.4403 146.324 99.3897 146.394 99.3286C146.512 99.2246 146.67 99.0951 146.843 99.0308L146.985 98.9614C148.461 98.2983 149.981 99.0772 150.915 100.155L151.076 100.339C151.231 100.529 151.37 100.731 151.502 100.928C151.681 101.196 151.844 101.451 152.024 101.68C152.38 102.13 152.774 102.439 153.389 102.439C154.103 102.439 154.751 102.53 155.285 102.825C155.76 103.087 156.128 103.499 156.378 104.109L156.478 104.382L156.479 104.385L156.644 104.977C156.999 106.373 157.153 107.869 157.235 109.216L157.236 109.228V111.755Z" fill="white" stroke="white" stroke-width="0.399194"/>
<path d="M180.047 131.728C182.826 130.531 185.846 129.985 188.949 130.242L188.948 130.243C189.677 130.298 190.044 130.875 190.044 131.412C190.044 131.681 189.954 131.953 189.761 132.154C189.588 132.334 189.346 132.442 189.049 132.449L188.918 132.446C186.516 132.268 184.111 132.624 181.796 133.429C180.959 133.743 179.675 134.298 178.707 135.045C177.952 135.627 177.438 136.287 177.41 137.015C179.061 137.47 180.459 138.675 180.856 140.404L180.897 140.606L180.898 140.612L180.922 140.799C181.124 142.723 180.06 144.693 178.267 145.604L178.26 145.607C177.144 146.123 175.984 146.19 174.861 146.224C173.728 146.258 172.639 146.259 171.598 146.608C171.108 146.781 170.696 147.077 170.208 147.359C169.73 147.636 169.202 147.883 168.541 147.883C168.144 147.883 167.774 147.805 167.435 147.669C167.029 148.547 166.592 149.426 166.144 150.302L165.444 151.656C165.263 152.006 164.908 152.166 164.569 152.192C164.233 152.218 163.869 152.117 163.632 151.889L163.625 151.882C163.468 151.715 163.309 151.551 163.151 151.389C163.322 153.584 163.409 155.779 163.409 157.974C163.409 158.413 163.076 158.657 162.757 158.701C162.448 158.744 162.055 158.603 161.983 158.188V158.188C161.329 154.938 160.767 151.683 160.485 148.335L160.479 148.231C160.472 147.724 160.812 147.373 161.21 147.225C161.6 147.079 162.091 147.108 162.438 147.39L162.506 147.449L162.513 147.456L163.212 148.184C163.445 148.423 163.679 148.659 163.913 148.896C164.022 149.006 164.13 149.117 164.238 149.228C164.875 148.019 165.449 146.777 165.923 145.535L165.927 145.525L165.932 145.515C166.342 144.723 167.349 144.567 167.936 145.176L168.047 145.308L168.048 145.309L168.152 145.433C168.257 145.537 168.36 145.586 168.459 145.605C168.597 145.632 168.755 145.606 168.936 145.534C169.115 145.463 169.301 145.353 169.489 145.232C169.671 145.117 169.864 144.985 170.035 144.891L170.045 144.885C170.55 144.641 171.057 144.468 171.565 144.366L171.783 144.326C172.452 144.189 173.141 144.143 173.816 144.109C174.5 144.075 175.166 144.054 175.81 143.965H175.812L176.068 143.926C176.667 143.824 177.255 143.634 177.726 143.319C178.257 142.964 178.64 142.448 178.726 141.702L178.727 141.699L178.743 141.456C178.756 140.247 177.702 139.205 176.387 139.126L176.373 139.125L176.36 139.123C176.111 139.075 175.892 138.999 175.707 138.861C175.52 138.722 175.382 138.532 175.278 138.281L175.275 138.273C174.729 136.787 175.21 135.472 176.105 134.409C176.997 133.352 178.311 132.524 179.494 131.976L180.047 131.728Z" fill="white" stroke="white" stroke-width="0.399194"/>
<path d="M196.79 129.159C198.786 129.159 201.053 129.984 201.75 132L201.815 132.211C201.951 132.695 201.956 133.125 201.85 133.498C201.727 133.925 201.463 134.26 201.116 134.507C200.431 134.997 199.417 135.156 198.455 135.063H198.454C197.211 134.939 195.947 134.774 194.683 134.6C195.03 135.262 195.043 135.963 194.824 136.586C195.808 136.904 196.738 137.335 197.651 137.789C199.131 138.524 200.56 139.313 202.14 139.812L202.458 139.908L202.461 139.909L202.837 140.013C203.714 140.232 204.595 140.283 205.487 140.273C205.997 140.267 206.508 140.242 207.023 140.218C207.538 140.194 208.057 140.171 208.576 140.171C210.556 140.171 212.537 140.444 214.425 140.99H214.426C215.13 141.171 216.007 141.423 216.815 141.767C217.618 142.109 218.381 142.553 218.834 143.135H218.835C219.093 143.458 219.207 143.785 219.198 144.107C219.189 144.426 219.061 144.715 218.875 144.968C218.508 145.469 217.889 145.87 217.368 146.144L217.366 146.145C214.381 147.675 211.588 149.383 209.077 151.448L209.076 151.447C207.866 152.525 206.657 153.694 205.54 154.862L205.535 154.868L205.396 154.723L205.534 154.868C205.168 155.221 204.902 155.478 204.639 155.813C204.688 155.799 204.737 155.785 204.786 155.773L205.068 155.703C206.297 155.364 207.559 155.095 208.83 155.294L209.085 155.34L209.098 155.343H209.097C209.68 155.504 210.284 155.741 210.763 156.123L210.96 156.295L210.968 156.303L210.975 156.311C211.166 156.542 211.334 156.774 211.497 156.999C211.658 157.221 211.816 157.437 211.994 157.653C212.256 157.903 212.553 157.931 212.927 157.888C213.129 157.865 213.305 157.829 213.533 157.798C213.693 157.777 213.862 157.76 214.035 157.764L214.21 157.775L214.221 157.776L214.444 157.821C214.891 157.928 215.324 158.136 215.663 158.41L215.824 158.552L215.83 158.558L216.023 158.777C216.943 159.902 217.205 161.462 217.379 162.723L217.428 163.033C217.651 164.569 217.55 166.032 217.286 167.564L217.287 167.565C217.191 168.395 217.031 169.272 217.031 170.125C217.031 170.919 217.171 171.655 217.616 172.26L217.71 172.379L217.904 172.599C218.898 173.635 220.219 173.793 221.557 173.486C222.99 173.157 224.411 172.296 225.376 171.454C225.953 170.941 226.496 170.377 227.039 169.8C227.58 169.225 228.123 168.633 228.688 168.077C229.817 166.964 231.058 165.97 232.642 165.458L232.731 165.43C233.174 165.315 233.556 165.544 233.746 165.859C233.944 166.186 233.961 166.657 233.596 166.962L233.597 166.963C232.27 168.244 230.889 169.395 229.579 170.75L229.574 170.754C228.278 172.005 227.039 173.384 225.426 174.391L225.425 174.39C222.86 176.039 219.209 176.617 216.592 174.56L216.321 174.335C215.029 173.196 214.667 171.796 214.655 170.341C214.649 169.57 214.742 168.78 214.846 168.003C214.95 167.223 215.066 166.46 215.112 165.724C215.159 164.916 215.181 164.003 215.089 163.117C214.997 162.229 214.792 161.38 214.391 160.692L214.386 160.684L214.383 160.676C214.279 160.456 214.163 160.34 214.049 160.276C213.933 160.211 213.795 160.188 213.622 160.193C213.446 160.198 213.253 160.232 213.029 160.268C212.812 160.303 212.57 160.339 212.318 160.339C211.689 160.339 211.176 160.033 210.699 159.666L210.69 159.659L210.683 159.652C210.432 159.41 210.234 159.122 210.049 158.854C209.907 158.649 209.773 158.454 209.623 158.282L209.467 158.117C209.064 157.728 208.392 157.632 207.762 157.719L207.76 157.72C207.083 157.807 206.409 158.068 205.704 158.298C205.014 158.524 204.296 158.72 203.592 158.623L203.59 158.622C202.911 158.521 202.437 158.114 202.177 157.587C201.92 157.066 201.871 156.43 202.022 155.847L202.023 155.844L202.109 155.578C202.334 154.966 202.729 154.417 203.166 153.925C203.664 153.365 204.237 152.857 204.696 152.414C207.047 150.055 209.771 147.97 212.588 146.249L212.596 146.244L213.635 145.658C213.995 145.456 214.368 145.254 214.739 145.074C215.13 144.794 215.624 144.602 215.973 144.434L215.985 144.427L215.998 144.423C216.05 144.407 216.12 144.374 216.206 144.329C216.279 144.29 216.347 144.25 216.425 144.207C216.236 144.131 216.06 144.059 215.888 143.985C215.677 143.894 215.469 143.805 215.239 143.716L215.231 143.713L215.225 143.709C214.496 143.358 213.578 143.091 212.744 142.913H212.743C210.901 142.513 209.057 142.601 207.189 142.646C205.331 142.691 203.453 142.693 201.594 142.095H201.592C200.077 141.593 198.653 140.791 197.239 140.086C195.816 139.377 194.392 138.76 192.839 138.583V138.583C192.189 138.527 191.768 138.077 191.683 137.572C191.602 137.094 191.827 136.588 192.385 136.349C192.384 136.345 192.384 136.341 192.384 136.337L192.346 136.084L192.601 136.11C192.656 136.115 192.711 136.123 192.767 136.129C192.746 136.108 192.72 136.082 192.685 136.053C192.601 135.986 192.488 135.914 192.355 135.84C191.823 135.545 191.066 135.279 190.93 135.235L190.917 135.231L190.904 135.225C190.419 134.991 190.017 134.703 189.724 134.334C189.429 133.964 189.252 133.52 189.202 132.988V132.987C189.155 132.601 189.306 132.295 189.55 132.087L188.672 132.174C188.381 132.202 188.143 132.11 187.977 131.934C187.816 131.764 187.737 131.533 187.717 131.305C187.677 130.863 187.855 130.317 188.275 130.085L188.309 130.068L188.347 130.063C191.136 129.704 193.967 129.159 196.79 129.159ZM196.93 131.396C196.074 131.341 195.181 131.452 194.381 131.542L194.38 131.542C193.453 131.676 192.504 131.787 191.555 131.888C192.274 131.986 193.002 132.086 193.73 132.184C194.733 132.319 195.737 132.454 196.717 132.589H196.718C197.145 132.635 197.571 132.704 197.991 132.772C198.413 132.84 198.829 132.906 199.244 132.951H199.243C199.486 132.972 199.601 132.939 199.646 132.912C199.663 132.901 199.666 132.893 199.667 132.89C199.669 132.885 199.673 132.871 199.668 132.841C199.658 132.776 199.613 132.677 199.523 132.558C199.437 132.443 199.32 132.325 199.19 132.221L199.183 132.215L199.316 132.066L199.183 132.214C198.574 131.669 197.783 131.451 196.93 131.396Z" fill="white" stroke="white" stroke-width="0.399194"/>
<path d="M294.469 105.065C295.005 105.027 295.567 105.125 296.158 105.403L296.414 105.534L296.42 105.537L296.321 105.702L296.42 105.538C296.646 105.675 296.788 105.862 296.844 106.072C296.899 106.28 296.866 106.492 296.778 106.675C296.606 107.034 296.203 107.317 295.732 107.261L295.725 107.26C294.96 107.137 294.29 107.439 293.668 107.92C293.036 108.408 292.5 109.038 291.966 109.554L291.96 109.56C290.953 110.451 290.017 110.916 288.85 111.323L288.334 111.495C287.558 111.745 287.079 112.284 286.744 112.952C286.405 113.628 286.224 114.415 286.034 115.146L286.032 115.151C285.57 116.756 285.48 118.266 285.291 119.814L285.29 119.821C285.045 121.385 284.175 122.276 283.027 122.74C281.897 123.198 280.503 123.24 279.186 123.149V123.148C278.363 123.105 277.707 123.172 277.09 123.346C276.47 123.52 275.878 123.804 275.184 124.206C274.144 124.875 273.151 125.568 271.925 125.957L271.676 126.031C271.337 126.125 270.999 126.182 270.674 126.23C270.345 126.279 270.035 126.317 269.729 126.373C269.125 126.483 268.581 126.656 268.106 127.072L268.1 127.078L268.092 127.084C267.738 127.34 267.447 127.662 267.141 128.003C266.84 128.338 266.522 128.692 266.129 128.977L266.13 128.978C265.262 129.629 264.273 130.018 263.173 129.826V129.827C262.881 129.78 262.559 129.685 262.256 129.609C261.944 129.531 261.635 129.469 261.333 129.469C261.083 129.469 260.826 129.529 260.566 129.616C260.305 129.704 260.065 129.808 259.822 129.902L259.823 129.903C258.817 130.345 257.738 130.913 256.562 130.913C256.177 130.913 255.823 130.878 255.49 130.838C255.154 130.798 254.846 130.754 254.537 130.731C253.931 130.688 253.338 130.731 252.632 131.07L252.633 131.071C251.333 131.743 250.101 132.528 248.874 133.34C247.651 134.149 246.429 134.987 245.162 135.757L245.163 135.758C244.51 136.163 243.88 136.568 243.248 136.975C242.617 137.381 241.984 137.787 241.327 138.194C240.761 138.558 240.093 138.905 239.474 139.259C238.923 139.574 238.403 139.899 237.981 140.266L237.807 140.426C237.639 140.587 237.534 140.833 237.483 141.152C237.433 141.471 237.44 141.844 237.48 142.236C237.561 143.025 237.763 143.823 237.861 144.388H237.862C238.108 145.416 238.352 146.432 238.718 147.446L238.882 147.881L238.883 147.883L239.063 148.334C239.934 150.434 241.22 152.449 242.799 154.138L243.142 154.494L243.146 154.499L243.449 154.81C243.777 155.128 244.178 155.459 244.606 155.702C245.182 156.029 245.771 156.178 246.298 155.982L246.306 155.979C246.8 155.819 247.141 155.42 247.507 154.942C247.814 154.54 248.143 154.076 248.597 153.768L248.8 153.646C249.789 153.077 251.179 153.066 252.096 153.841H252.097C252.514 154.143 252.72 154.546 252.905 154.903L252.928 154.947V154.981C252.929 154.986 252.932 154.993 252.936 155.001C253.226 154.574 253.721 154.224 254.223 153.951C254.796 153.64 255.415 153.41 255.842 153.272L256.244 153.146C257.189 152.883 258.195 152.831 259.2 152.991H259.201C259.691 153.038 260.213 153.181 260.644 153.45C261.077 153.721 261.423 154.125 261.529 154.688C261.634 155.241 261.501 155.695 261.273 156.098C261.053 156.487 260.73 156.849 260.462 157.194L260.457 157.201C260.074 157.653 259.963 158.147 259.882 158.692C259.803 159.225 259.752 159.828 259.456 160.404L259.457 160.405C259.059 161.269 258.272 161.926 257.521 162.469L257.517 162.473C256.554 163.123 255.499 163.492 254.365 163.766L254.353 163.769V163.768C253.857 163.855 253.272 163.994 252.705 164.062C252.131 164.132 251.534 164.136 250.978 163.94L250.975 163.938C250.326 163.698 249.829 163.241 249.36 162.844C248.881 162.438 248.424 162.085 247.823 161.961L247.816 161.96C246.766 161.707 245.701 162.041 244.795 162.653C243.972 163.273 243.29 164.042 242.544 164.784C241.803 165.522 241.009 166.223 239.989 166.645L239.988 166.644C239.047 167.055 238.04 167.104 237.048 167.049L236.623 167.02C236.337 166.997 236.043 166.956 235.762 166.923C235.477 166.889 235.2 166.862 234.932 166.862C234.398 166.862 233.915 166.97 233.496 167.333L233.481 167.345L233.465 167.354C233.151 167.536 232.771 167.476 232.532 167.23C232.286 166.977 232.223 166.567 232.436 166.105L232.442 166.09L232.452 166.075C233.249 164.922 234.325 164.616 235.438 164.501C235.981 164.445 236.57 164.431 237.113 164.391C237.669 164.349 238.209 164.277 238.723 164.105L238.92 164.028C239.889 163.614 240.629 162.821 241.389 161.961C242.187 161.057 243.009 160.074 244.126 159.512L244.135 159.507L244.37 159.407C245.554 158.929 246.821 158.78 248.091 159.043H248.09C248.601 159.115 249.106 159.29 249.564 159.487L250.009 159.69L250.02 159.695L250.029 159.702C250.325 159.892 250.594 160.128 250.849 160.352C251.107 160.578 251.352 160.793 251.617 160.964C251.806 161.071 252.072 161.121 252.4 161.115C252.729 161.11 253.099 161.05 253.478 160.962C254.234 160.785 254.994 160.496 255.462 160.315L255.469 160.313L255.698 160.229C256.215 160.024 256.596 159.772 256.865 159.449C257.171 159.083 257.348 158.607 257.393 157.961V157.957L257.442 157.536C257.571 156.676 257.887 155.74 258.534 155.113C258.418 155.105 258.298 155.105 258.171 155.104C257.616 155.194 257.078 155.281 256.542 155.452C255.912 155.713 255.373 156.061 254.831 156.584L254.82 156.594L254.81 156.602C254.72 156.667 254.629 156.737 254.533 156.812C254.439 156.887 254.34 156.966 254.237 157.041C254.084 157.154 253.918 157.265 253.735 157.355L253.548 157.438C252.488 157.848 251.558 157.221 251.063 156.458L251.062 156.455C250.984 156.331 250.921 156.196 250.865 156.076C250.807 155.952 250.756 155.846 250.7 155.757C250.644 155.669 250.592 155.614 250.539 155.583C250.503 155.562 250.458 155.547 250.396 155.548L250.327 155.554C250.115 155.588 249.897 155.749 249.682 155.979C249.468 156.207 249.293 156.46 249.144 156.652L249.139 156.659L249.133 156.665C248.364 157.5 247.385 158.168 246.102 158.264H246.101C244.778 158.358 243.611 157.884 242.604 157.179C241.601 156.475 240.746 155.535 240.041 154.674L239.728 154.294C238.188 152.382 237.056 150.244 236.174 148.031L235.97 147.518C235.514 146.318 235.204 145.108 235.038 143.828V143.827C234.854 142.675 234.563 141.274 234.854 140.055C235.157 138.606 236.277 138.02 237.373 137.315L237.379 137.312L238.287 136.758C238.59 136.569 238.894 136.378 239.198 136.187C239.804 135.804 240.412 135.42 241.021 135.059C242.285 134.245 243.549 133.455 244.812 132.665C246.074 131.875 247.336 131.086 248.598 130.274C249.793 129.476 250.949 128.548 252.386 128.086L252.395 128.083C253.036 127.906 253.725 127.714 254.421 127.806C254.814 127.807 255.18 127.877 255.515 127.944C255.859 128.013 256.166 128.076 256.47 128.076C257.031 128.076 257.582 127.868 258.163 127.599C258.732 127.335 259.34 127.007 259.967 126.821L259.976 126.818L259.983 126.816C261.341 126.536 262.229 126.819 263.428 127.086C263.912 127.162 264.299 126.992 264.656 126.7C265.027 126.397 265.332 125.993 265.676 125.614L265.685 125.604L266.181 125.133C266.687 124.665 267.236 124.224 267.896 123.94L267.902 123.938L267.91 123.935C268.589 123.701 269.292 123.631 269.96 123.542C270.635 123.452 271.284 123.342 271.907 123.042C272.411 122.776 272.895 122.466 273.386 122.15C273.876 121.835 274.374 121.515 274.897 121.239L274.898 121.238L275.132 121.121C276.301 120.557 277.481 120.317 278.745 120.404H278.749L279.175 120.452C279.326 120.472 279.484 120.494 279.644 120.514C279.967 120.554 280.307 120.59 280.641 120.596C281.316 120.607 281.926 120.493 282.335 120.099L282.417 120.01C282.595 119.794 282.684 119.517 282.732 119.196C282.76 119.014 282.774 118.824 282.787 118.629C282.8 118.437 282.813 118.238 282.837 118.05V118.046L282.978 117.099C283.024 116.783 283.071 116.466 283.118 116.15L283.119 116.14L283.315 116.18L283.12 116.14C283.402 114.778 283.78 113.408 284.349 112.127C284.824 111.026 285.505 109.982 286.689 109.41L286.698 109.406L286.707 109.403C287.018 109.288 287.321 109.195 287.612 109.109C287.905 109.023 288.183 108.943 288.452 108.849C288.987 108.662 289.472 108.426 289.911 108.002L289.92 107.994C290.368 107.607 290.799 107.191 291.278 106.766C291.748 106.35 292.241 105.947 292.767 105.638C293.293 105.328 293.858 105.109 294.469 105.065Z" fill="white" stroke="white" stroke-width="0.399194"/>
<path d="M243.232 39.5054C243.538 39.4286 243.871 39.4441 244.148 39.5903C244.434 39.7407 244.639 40.0185 244.694 40.4165V40.4175L244.76 40.7886C244.943 41.6436 245.333 42.4296 245.696 43.2515C246.106 44.1785 246.478 45.1455 246.38 46.2388L246.379 46.2397C246.331 46.752 246.184 47.2534 246.083 47.7192C245.98 48.1947 245.917 48.6607 246.003 49.1636L246.04 49.3394C246.234 50.1553 246.696 50.8887 247.359 51.3706L247.505 51.4692L247.509 51.4722L247.677 51.5796C248.529 52.0917 249.521 52.2259 250.433 51.9858L250.8 51.8774C250.921 51.8381 251.041 51.7958 251.163 51.7534C251.404 51.6694 251.65 51.582 251.903 51.5122C252.351 51.3888 252.828 51.317 253.375 51.3979L253.613 51.4429L253.621 51.4438L253.57 51.6372L253.621 51.4448C254.693 51.7269 255.564 52.3832 256.399 53.0103H256.4C256.582 53.1414 257.01 53.4235 257.443 53.5952C257.661 53.6815 257.865 53.7339 258.032 53.7339C258.194 53.7339 258.299 53.6868 258.367 53.5952C258.702 53.1149 259.325 52.9414 259.841 53.0435C260.104 53.0955 260.355 53.2216 260.534 53.4312C260.716 53.6439 260.812 53.9292 260.785 54.271L260.784 54.2739C260.779 54.33 260.782 54.3707 260.788 54.3999L260.824 54.4106L260.801 54.4409C260.802 54.4437 260.802 54.4465 260.804 54.4487C260.814 54.4684 260.831 54.4843 260.866 54.4966C260.955 54.5273 261.116 54.5183 261.34 54.4575C261.769 54.3407 262.255 54.0845 262.457 53.9868C263.2 53.5385 263.957 53.0829 264.81 52.7173L265.452 52.4565C266.961 51.8774 268.534 51.5079 270.106 51.3481L270.115 51.3472C271.718 51.2562 273.303 51.4327 274.396 52.8638H274.396C274.971 53.5564 275.399 54.3173 275.818 55.0474C276.24 55.7826 276.653 56.4868 277.198 57.1011C278.218 58.1742 279.326 59.1529 280.615 59.9526C280.719 60.0046 280.872 60.0955 281.038 60.1938C281.22 60.3012 281.427 60.4231 281.633 60.5337C281.84 60.6449 282.039 60.7406 282.205 60.7974C282.288 60.8257 282.356 60.8416 282.408 60.8472C282.436 60.8502 282.454 60.8465 282.466 60.8452H282.467C282.482 60.8201 282.501 60.7813 282.522 60.7271C282.566 60.619 282.61 60.4775 282.657 60.3237C282.703 60.1741 282.752 60.0128 282.801 59.8784C282.825 59.811 282.852 59.7454 282.88 59.689C282.902 59.6438 282.933 59.5936 282.972 59.5503L282.971 59.5493C283.448 58.9346 284.136 58.7928 284.814 58.8403C285.483 58.8873 286.183 59.1203 286.736 59.2983H286.737C288.339 59.7531 289.94 60.3891 291.444 61.1147C292.282 61.474 293.135 61.8396 293.896 62.2983L294.454 62.6343C294.635 62.7372 294.812 62.8278 294.992 62.8911C295.339 63.0129 295.677 63.0281 296.036 62.8354C296.569 62.5102 297.128 62.3312 297.656 62.4077C298.13 62.4764 298.549 62.7457 298.881 63.2329L299.018 63.4556L299.023 63.4653L299.028 63.4761C299.127 63.7153 299.203 64.0312 299.28 64.2983C299.363 64.583 299.449 64.8188 299.562 64.9653C299.666 65.0986 299.807 65.172 299.994 65.2222C300.089 65.2476 300.192 65.2655 300.305 65.2837C300.412 65.301 300.533 65.3186 300.651 65.3413H300.652C301.207 65.4305 301.746 65.4512 302.324 65.5093C302.893 65.5664 303.476 65.6591 304.062 65.895L304.278 65.9897C305.328 66.4881 305.977 67.3761 306.665 68.2065L306.834 68.397C306.996 68.5724 307.14 68.7019 307.294 68.7798C307.482 68.875 307.705 68.9016 308.036 68.7817L308.043 68.7788L308.051 68.7769C308.351 68.6941 308.611 68.5487 308.895 68.3892C309.169 68.2347 309.466 68.0666 309.815 67.9683L310.021 67.9038C311.002 67.6334 312.192 67.8055 312.897 68.6646L313.041 68.8589L313.044 68.8638L313.125 69.0054C313.495 69.7139 313.332 70.3983 313.109 71.0327C312.986 71.3826 312.854 71.6966 312.75 72.0366C312.674 72.2848 312.619 72.5286 312.605 72.7729V73.019L312.628 73.3003C312.691 73.9469 312.823 74.535 312.908 75.1714C313.004 75.8846 313.031 76.6165 312.785 77.4224L312.784 77.4214C312.4 78.7201 311.632 79.8336 310.579 80.6694C310.083 81.1473 309.492 81.4289 308.835 81.7007L308.83 81.7026C308.701 81.7523 308.527 81.8005 308.346 81.8491C308.16 81.899 307.96 81.9507 307.766 82.0112C307.571 82.0719 307.392 82.1391 307.246 82.2144C307.102 82.289 307.012 82.3619 306.969 82.4272C306.941 82.4823 306.94 82.517 306.944 82.5386C306.949 82.5625 306.963 82.5948 307.003 82.6343C307.089 82.7196 307.254 82.8012 307.476 82.8726C307.696 82.9434 307.939 82.9942 308.158 83.0337L308.703 83.1255L308.715 83.1284L308.727 83.1323C309.557 83.3995 310.389 83.5775 311.232 83.7583H311.231C311.574 83.8163 311.811 84.0165 311.942 84.2837C312.071 84.5454 312.094 84.8613 312.042 85.1616C311.888 86.0961 311.321 86.6631 310.609 87.0005C309.909 87.3325 309.061 87.446 308.308 87.4917L308.309 87.4927C307.787 87.5385 307.402 87.5826 307.101 87.7231C306.817 87.8554 306.592 88.0813 306.42 88.5376L306.419 88.5396C306.3 88.846 306.255 89.193 306.257 89.5474C306.782 89.5783 307.305 89.769 307.748 90.1079H307.749C309.158 91.0793 309.146 92.7332 309.146 94.064C309.146 94.4194 309.169 94.7095 309.252 94.9604C309.333 95.204 309.473 95.4194 309.722 95.6206H309.723C309.95 95.7965 310.183 95.9704 310.364 96.1958C310.529 96.3998 310.649 96.6421 310.711 96.9644L310.733 97.1079L310.735 97.1196L310.739 97.2593C310.737 97.9517 310.365 98.5053 309.979 98.9946C309.767 99.2646 309.557 99.5048 309.368 99.7642C309.184 100.017 309.035 100.267 308.95 100.529C308.814 101.1 308.741 101.723 308.66 102.366C308.58 103.007 308.493 103.668 308.332 104.292C308.006 105.549 307.366 106.678 305.835 107.25L305.83 107.251C305.001 107.534 304.083 107.578 303.188 107.555C302.739 107.544 302.291 107.516 301.86 107.491C301.428 107.465 301.012 107.443 300.621 107.443C298.745 107.443 296.959 107.352 295.078 107.08V107.081C294.851 107.053 294.666 106.959 294.559 106.793C294.453 106.63 294.449 106.435 294.502 106.26C294.606 105.915 294.945 105.58 295.415 105.428L295.433 105.422L295.45 105.42C298.273 105.057 301.004 105.148 303.801 105.148C304.447 105.148 304.945 105.08 305.334 104.877C305.711 104.681 306.009 104.344 306.229 103.752C306.503 102.873 306.596 101.903 306.689 100.906L306.69 100.897L306.691 100.887C306.876 99.9081 307.069 98.7697 307.762 97.9106L307.77 97.9009L307.778 97.8921C307.825 97.8467 308.036 97.6433 308.234 97.4517C308.312 97.3767 308.388 97.3031 308.451 97.2417C308.391 97.1959 308.32 97.1431 308.249 97.0864C308.148 97.0062 308.041 96.9181 307.953 96.8374C307.909 96.7973 307.868 96.7571 307.833 96.7192C307.807 96.6911 307.78 96.656 307.757 96.6196C307.156 95.9324 307.061 94.967 306.97 94.1772V94.1763C306.922 93.8889 306.922 93.5821 306.922 93.2964C306.922 92.9994 306.921 92.7239 306.878 92.4731L306.875 92.4565V92.439C306.875 92.4016 306.859 92.3006 306.817 92.1675C306.777 92.0387 306.718 91.9005 306.648 91.7896C306.575 91.6727 306.507 91.6161 306.459 91.6001C306.435 91.592 306.381 91.5809 306.278 91.6802L306.265 91.6919C305.932 91.9591 305.493 92.0373 305.11 91.9448C304.724 91.8515 304.378 91.5791 304.263 91.1353L304.262 91.1323C303.884 89.5829 303.773 87.7908 304.856 86.3628L304.954 86.2378C305.457 85.6279 306.206 85.1994 307.033 85.022V85.0229C307.113 85.004 307.204 84.9906 307.301 84.981C307.272 84.9741 307.243 84.9673 307.215 84.9604L307.209 84.9585C306.569 84.7821 305.774 84.5919 305.173 84.1089L305.165 84.103C304.55 83.5586 304.343 82.8353 304.445 82.1421C304.547 81.4571 304.949 80.8036 305.547 80.3677L305.665 80.2798C305.945 80.0842 306.255 79.9608 306.569 79.8599C306.944 79.7392 307.287 79.6587 307.662 79.5229L307.669 79.521L307.969 79.4146C308.656 79.1475 309.259 78.7423 309.724 78.144L309.726 78.1411L309.939 77.854C310.914 76.4205 310.513 75.0577 310.245 73.3325L310.244 73.3247C310.147 72.4795 310.245 71.7274 310.534 70.8901L310.539 70.8765L310.546 70.8628C310.618 70.7236 310.696 70.5778 310.761 70.437C310.827 70.2925 310.867 70.1769 310.875 70.0991C310.876 70.0885 310.875 70.0802 310.875 70.0737C310.858 70.0719 310.83 70.071 310.787 70.0767C310.72 70.0856 310.629 70.1077 310.509 70.1499L310.5 70.1528L310.492 70.1558C310.157 70.242 309.847 70.3665 309.542 70.5005C309.242 70.6323 308.935 70.7778 308.631 70.8931C308.008 71.1287 307.348 71.255 306.539 70.9624V70.9604C305.883 70.7624 305.434 70.3494 305.052 69.8999C304.862 69.6762 304.681 69.4341 304.504 69.2095C304.369 69.0384 304.234 68.8736 304.09 68.7202L303.943 68.5708C303.071 67.7293 301.944 67.7257 300.699 67.6333H300.698C299.562 67.542 298.369 67.2656 297.567 66.2983L297.563 66.2935C297.304 65.9597 297.044 65.4803 296.916 64.9771C296.85 65.0128 296.782 65.0477 296.716 65.0776C296.532 65.1604 296.338 65.2311 296.192 65.2778L296.175 65.2817C295.315 65.477 294.494 65.2294 293.742 64.8726C293.366 64.6937 292.999 64.4841 292.65 64.2827C292.387 64.1305 292.134 63.9838 291.89 63.855L291.647 63.7329C289.969 62.9231 288.292 62.2038 286.522 61.5747L286.518 61.5728C286.396 61.5257 286.262 61.4675 286.129 61.4087C285.994 61.3491 285.856 61.2879 285.72 61.2329C285.441 61.1207 285.192 61.0445 285 61.0444C284.885 61.0444 284.822 61.0506 284.786 61.0591C284.771 61.0627 284.765 61.0654 284.764 61.0659H284.765C284.759 61.0722 284.75 61.0883 284.724 61.1509C284.701 61.2045 284.669 61.2797 284.622 61.3716L284.623 61.3726C284.456 61.776 284.259 62.3522 283.705 62.6782L283.59 62.7397C282.874 63.0853 282.116 63.0304 281.422 62.8188C280.729 62.6078 280.08 62.2346 279.563 61.9175V61.9165C276.916 60.3646 274.741 58.1749 273.228 55.5278L273.224 55.521C273.128 55.3362 273.037 55.1383 272.948 54.9497C272.858 54.7587 272.768 54.5735 272.667 54.4009C272.465 54.055 272.233 53.7782 271.911 53.6226L271.901 53.6177C271.62 53.4625 271.265 53.4173 270.869 53.4282C270.473 53.4391 270.07 53.5029 269.687 53.5493L269.688 53.5503C267.843 53.8174 266.092 54.4399 264.526 55.4175C263.971 55.7745 263.347 56.1914 262.673 56.4702C262.078 56.7162 261.433 56.8608 260.743 56.7632L260.445 56.7056C259.898 56.5736 259.365 56.2758 258.958 55.8579C258.511 55.9779 258.047 55.9887 257.586 55.9194C256.488 55.7545 255.381 55.1469 254.483 54.5083V54.5073C253.903 54.1329 253.407 53.7387 252.743 53.7329C252.45 53.7756 252.15 53.898 251.822 54.0337C251.501 54.1668 251.149 54.3125 250.792 54.3618L250.793 54.3628C249.549 54.5475 248.296 54.4556 247.135 53.9888V53.9878C244.718 53.0533 243.169 50.6281 243.362 48.1021L243.363 48.0874L243.562 48.1167L243.364 48.0874C243.412 47.7623 243.485 47.4504 243.555 47.1519C243.625 46.8507 243.693 46.5645 243.738 46.2798C243.828 45.7159 243.826 45.1718 243.566 44.5874L243.563 44.5796C243.332 43.9992 243.037 43.4539 242.761 42.8638C242.523 42.3557 242.307 41.827 242.191 41.2603L242.148 41.0151L242.147 41.0132C242.036 40.2059 242.628 39.6576 243.232 39.5054Z" fill="white" stroke="white" stroke-width="0.399194"/>
<path d="M158.825 28.6177C158.825 28.6854 158.844 28.8262 158.878 28.9663C158.891 29.019 158.905 29.0676 158.919 29.1089C158.971 29.0839 159.035 29.0431 159.109 28.9761C159.238 28.859 159.372 28.6947 159.504 28.5122C159.635 28.3303 159.758 28.141 159.869 27.9731C159.974 27.8151 160.081 27.658 160.17 27.5718L160.301 27.4507C160.963 26.8677 161.825 26.5246 162.707 26.8931H162.708C163.023 26.9945 163.289 27.1996 163.508 27.3472C163.733 27.4989 163.917 27.5979 164.124 27.604C164.322 27.5617 164.571 27.4453 164.847 27.3013C165.05 27.1952 165.268 27.075 165.469 26.981L165.662 26.897C168.397 25.63 171.026 26.8393 172.664 29.0112L172.819 29.2251L172.822 29.229L172.979 29.4731C173.653 30.5457 174.132 31.7327 174.421 32.9331C174.423 31.6741 174.438 30.4107 174.515 29.147V29.145L174.599 28.1733C175.089 23.3025 176.668 18.2804 180.766 15.1001L180.957 14.9663C181.151 14.8452 181.352 14.7631 181.561 14.7329C181.839 14.6926 182.115 14.748 182.383 14.9009L182.592 14.9937C183.087 15.1794 183.635 15.152 184.21 15.0181C184.871 14.8639 185.528 14.58 186.149 14.3491L186.154 14.3472L187.15 14.0024C188.17 13.6573 189.251 13.3433 190.335 13.3433H190.347L190.635 13.3687C191.294 13.4442 191.883 13.6347 192.445 13.8657C192.766 13.9974 193.08 14.1437 193.392 14.2886C193.703 14.4331 194.013 14.5768 194.333 14.7095L194.551 14.7827C195.642 15.1145 196.802 14.9313 197.813 14.3618C198.335 14.0457 198.723 13.5847 199.063 13.0532C199.411 12.5095 199.685 11.935 200.019 11.356C200.344 10.7914 200.713 10.2479 201.222 9.84717C201.736 9.44198 202.382 9.19099 203.243 9.19092C203.982 9.19092 204.665 9.40511 205.322 9.64307C205.905 9.85403 206.463 10.0806 207.05 10.2222L207.304 10.2778L207.308 10.2788L207.454 10.3062C208.185 10.423 208.888 10.2404 209.597 9.93994C209.975 9.77965 210.348 9.58878 210.727 9.39502C211.008 9.25056 211.293 9.10423 211.579 8.97217L211.865 8.84521C212.921 8.38271 214.242 8.12704 215.452 8.27881C216.112 8.36166 216.745 8.56808 217.281 8.93213C217.746 8.608 218.283 8.38832 218.847 8.27002C219.967 8.03496 221.21 8.19847 222.235 8.76416H222.234C223.546 9.46816 224.365 10.5908 224.993 11.8032C225.307 12.4094 225.576 13.0432 225.835 13.6606C226.03 14.1256 226.218 14.5807 226.417 15.0142L226.62 15.4399L226.621 15.4419L226.743 15.6812C227.285 16.6931 228.005 17.384 228.922 18.0405L229.358 18.3413L229.359 18.3423L229.71 18.5952C230.45 19.166 231.045 19.8926 231.197 20.8774L231.224 21.1099L231.225 21.1187V21.3999C231.18 22.7806 230.461 23.7893 229.473 24.5347C228.817 25.029 228.038 25.4113 227.248 25.7173C228.188 28.0161 228.531 30.5272 228.217 33.0132C229.76 32.767 231.382 32.6918 232.868 33.2134L233.073 33.2954C233.275 33.384 233.467 33.4931 233.65 33.606C233.906 33.7631 234.124 33.912 234.365 34.0542C234.833 34.3292 235.264 34.4962 235.745 34.3813C236.25 34.2483 236.704 34.0739 237.182 33.9126C237.595 33.773 238.018 33.6473 238.479 33.5864L238.678 33.564C239.556 33.4707 240.556 33.6567 241.266 34.3413L241.378 34.4585C241.627 34.741 241.793 35.0869 241.882 35.4282L241.913 35.5942C241.921 35.6499 241.926 35.7056 241.931 35.7593C241.94 35.8738 241.946 35.9731 241.957 36.0776C241.98 36.2877 242.022 36.426 242.107 36.5083L242.207 36.5942C242.315 36.6784 242.444 36.7587 242.594 36.8579C242.783 36.9832 242.993 37.1341 243.155 37.3423L243.262 37.4839C243.464 37.7685 243.615 38.0572 243.71 38.3501L243.752 38.4976L243.754 38.5024L243.787 38.6655C243.929 39.473 243.725 40.1951 243.362 40.896L243.354 40.9097C243.185 41.1816 242.944 41.3352 242.684 41.3774C242.427 41.4189 242.168 41.35 241.96 41.2046C241.532 40.9055 241.327 40.2945 241.701 39.6235C241.826 39.3799 241.851 39.2043 241.831 39.0747C241.812 38.9461 241.745 38.8343 241.632 38.7251C241.516 38.6131 241.361 38.5128 241.183 38.4077C241.011 38.3069 240.811 38.1978 240.64 38.0796L240.634 38.0757L240.628 38.0708C240.028 37.5881 239.724 37.0039 239.622 36.2446C239.531 35.8958 239.432 35.7438 239.31 35.6743C239.181 35.6014 238.967 35.5838 238.553 35.6724C238.194 35.7591 237.856 35.89 237.504 36.0259C237.155 36.1605 236.792 36.3012 236.403 36.395L236.392 36.397L236.381 36.3989C235.618 36.491 234.834 36.4933 234.044 36.2075L234.035 36.2046C233.692 36.0628 233.376 35.8741 233.074 35.6948C232.772 35.5151 232.483 35.3438 232.175 35.2153C230.557 34.6968 228.843 35.1262 227.145 35.4907C226.233 35.8043 225.377 34.9261 225.592 33.9897C226.237 31.0524 225.96 28.1214 224.579 25.3677V25.3667C224.415 25.0469 224.388 24.6524 224.512 24.3081C224.637 23.9576 224.919 23.6584 225.361 23.5503L226.156 23.3403C226.423 23.2667 226.689 23.1871 226.946 23.0933C227.46 22.9058 227.922 22.6697 228.268 22.3364L228.376 22.2231C228.619 21.9521 228.784 21.6319 228.828 21.3228C228.878 20.9788 228.781 20.6433 228.464 20.3755L228.454 20.3667C228.191 20.1126 227.857 19.897 227.493 19.6704C227.135 19.4476 226.747 19.2135 226.407 18.9321L226.401 18.9272L226.15 18.6763C225.59 18.0942 225.108 17.4379 224.77 16.7075L224.598 16.3765C224.21 15.5956 223.913 14.7555 223.591 13.9683C223.219 13.0598 222.809 12.2078 222.181 11.5132L222.001 11.3384C221.554 10.9357 220.913 10.5761 220.288 10.4556C219.934 10.3872 219.596 10.3979 219.306 10.5093C219.055 10.6054 218.828 10.7808 218.648 11.0679L218.574 11.1978C218.343 11.643 217.886 11.826 217.455 11.813C217.028 11.8 216.584 11.5944 216.354 11.2075L216.352 11.2017C215.992 10.5457 215.31 10.4051 214.497 10.5249C213.692 10.6437 212.833 11.0095 212.224 11.2808L212.225 11.2817C210.545 12.1823 208.798 13.0339 206.753 12.564V12.563C206.337 12.4683 205.888 12.287 205.452 12.1079C205.009 11.9258 204.574 11.746 204.163 11.6372C203.751 11.5282 203.388 11.4991 203.083 11.5952C202.788 11.6882 202.517 11.9079 202.302 12.3638L202.301 12.3667C201.561 13.883 201.07 15.2072 199.519 16.2368L199.514 16.2397C198.173 17.0717 196.538 17.5383 194.896 17.3521V17.3511C193.965 17.256 193.133 16.8075 192.353 16.4312C191.557 16.0472 190.808 15.734 189.981 15.8179L189.98 15.8169C189.232 15.9049 188.513 16.1196 187.799 16.3726C187.095 16.6219 186.369 16.9208 185.662 17.1519C184.482 17.5377 183.268 17.7674 181.953 17.394C179.637 19.2783 178.416 21.8981 177.773 24.7573C177.089 27.8015 177.065 31.0975 177.065 34.0337C177.065 34.7528 177.043 35.9597 176.702 36.9106C176.531 37.3877 176.273 37.8245 175.873 38.0962C175.466 38.373 174.942 38.4588 174.29 38.2896V38.2886C173.116 37.9923 172.59 37.0986 172.301 36.1216C172.157 35.6343 172.067 35.1151 171.985 34.6255C171.903 34.1303 171.829 33.6695 171.716 33.2769L171.715 33.272C171.344 31.8411 170.705 30.3653 169.456 29.5044L169.45 29.5005C168.88 29.0769 168.366 28.9563 167.843 28.9976C167.306 29.0399 166.749 29.2526 166.091 29.5249H166.089C164.984 29.9693 163.668 30.4736 162.446 29.688L162.43 29.6782L162.415 29.6646C162.333 29.5854 162.251 29.5249 162.156 29.4565C162.113 29.4249 162.066 29.3912 162.019 29.354C161.974 29.4027 161.929 29.4569 161.883 29.5171C161.77 29.6655 161.636 29.8654 161.485 30.0142L161.486 30.0151C160.862 30.7099 160.008 31.3292 159.133 31.5103C158.691 31.6015 158.24 31.582 157.812 31.3979C157.385 31.2138 156.999 30.8719 156.678 30.3472L156.674 30.3413L156.671 30.3345C156.419 29.8489 156.344 29.2679 156.254 28.7544C156.16 28.2234 156.049 27.7529 155.758 27.3911C155.434 27.0448 154.962 26.9003 154.467 26.9106C153.966 26.9211 153.469 27.0902 153.13 27.3354L153.124 27.3394C152.555 27.7194 152.2 28.2291 151.891 28.8032C151.735 29.0924 151.595 29.3905 151.442 29.6997C151.291 30.0058 151.129 30.3181 150.937 30.6206L150.93 30.6304L150.923 30.6392C150.277 31.4408 149.152 31.9567 148.144 31.4302L147.943 31.311C147.408 30.9491 147.254 30.4291 147.147 29.9478C147.037 29.4505 146.974 29.0134 146.684 28.6528V28.6519C146.492 28.4335 146.175 28.2959 145.834 28.2759C145.491 28.2558 145.152 28.3565 144.92 28.5806L144.914 28.5874L144.913 28.5864C144.255 29.1684 143.458 28.9734 142.992 28.5112C142.759 28.2801 142.596 27.9723 142.569 27.6411C142.543 27.3038 142.66 26.9572 142.959 26.6685C143.854 25.7598 145.137 25.4568 146.332 25.645C147.454 25.8217 148.522 26.4347 149.142 27.4185L149.26 27.6206L149.262 27.6235L149.31 27.7231C149.336 27.6817 149.361 27.6405 149.388 27.6021C150.144 26.4169 151.107 25.2943 152.565 24.731L152.767 24.6567C154.802 23.9609 157.398 24.6461 158.348 26.7095L158.438 26.9204L158.439 26.9282L158.508 27.1372C158.657 27.6259 158.741 28.1115 158.822 28.5835L158.825 28.6011V28.6177Z" fill="white" stroke="white" stroke-width="0.399194"/>
<path d="M94.5405 17.8313C97.5925 17.7905 100.698 17.8792 103.729 18.0374H103.731L105.065 18.1311C111.287 18.6062 117.434 19.6394 123.442 21.2922L124.727 21.6555L124.732 21.6575L125.765 21.9954C126.781 22.3506 127.739 22.8086 128.473 23.7961L128.616 23.9817C128.755 24.1738 128.886 24.382 129.011 24.5676C129.185 24.8246 129.357 25.0504 129.564 25.2102L129.64 25.2639C130.034 25.5181 130.581 25.5249 131.192 25.4407H131.194L131.722 25.3821C132.947 25.2729 134.135 25.3794 135.175 26.2932H135.176C135.234 26.3378 135.289 26.3846 135.341 26.4319C135.438 26.2332 135.514 26.0157 135.57 25.7766L135.606 25.6018C135.674 25.0287 136.182 24.7453 136.659 24.6956C137.134 24.646 137.7 24.8129 137.941 25.2717H137.942C138.022 25.4164 138.108 25.5025 138.194 25.553C138.279 25.6031 138.375 25.6255 138.487 25.6223C138.722 25.6154 139.01 25.4972 139.339 25.3079C139.666 25.1198 139.996 24.8856 140.328 24.6682C140.647 24.4587 140.977 24.2591 141.27 24.1819L141.29 24.178C141.893 24.081 142.513 24.1765 143.034 24.5784H143.033C143.35 24.7874 143.555 25.0915 143.744 25.4563L143.82 25.6223C143.844 25.6813 143.866 25.7432 143.885 25.8049C143.905 25.8669 143.921 25.933 143.933 25.9983C144.05 25.9879 144.168 25.9888 144.284 26.0051C144.81 26.0795 145.39 26.4381 145.449 27.0647L145.451 27.0833L145.449 27.1018C145.397 27.6527 145.134 28.0928 144.741 28.3547C144.348 28.6162 143.842 28.6884 143.324 28.5383L143.315 28.5364L143.307 28.5334C142.809 28.3411 142.404 28.0489 142.099 27.6565L142.087 27.6428L142.08 27.6262C142.024 27.5187 141.972 27.3676 141.926 27.2229C141.878 27.0702 141.833 26.92 141.788 26.7874V26.7864C141.771 26.7445 141.758 26.7054 141.747 26.6692C141.593 26.7246 141.421 26.8541 141.218 27.0305C141.053 27.1738 140.868 27.3486 140.677 27.4895L140.486 27.6165C140.016 27.8888 139.414 28.1858 138.795 28.1858C138.345 28.1858 137.917 28.1118 137.524 27.9729C137.051 28.7798 136.363 29.4536 135.417 29.8831L135.417 29.8821C134.872 30.1425 134.274 30.0114 133.892 29.6692C133.51 29.3266 133.342 28.7696 133.643 28.1985C133.638 28.1948 133.633 28.1896 133.626 28.1848C133.555 28.1365 133.43 28.0871 133.271 28.0432C132.956 27.9564 132.6 27.9144 132.529 27.9143C132.167 27.9143 131.807 27.9578 131.424 27.9924C131.051 28.0262 130.663 28.0493 130.27 28.0032V28.0042C130.268 28.004 130.265 28.0033 130.263 28.0032C130.262 28.003 130.26 28.0033 130.259 28.0032V28.0022C128.878 27.9034 127.898 27.1378 127.131 26.1204L127.125 26.1135V26.1125C126.782 25.6158 126.548 25.1799 126.149 24.8557L125.966 24.7239C125.714 24.5618 125.39 24.4546 125.032 24.3655C124.854 24.3213 124.674 24.2822 124.493 24.2424C124.313 24.203 124.133 24.1631 123.963 24.1165L123.961 24.1155C122.379 23.6663 120.702 23.3069 119.017 22.9456H119.016C112.854 21.594 106.599 20.7829 100.345 20.6028H100.344C97.6358 20.5127 94.8393 20.5129 92.0454 20.7825C91.0236 20.9172 89.9204 21.1183 88.9136 21.4827C87.9043 21.8479 87.0051 22.3719 86.3813 23.1458L86.3794 23.1497C86.0887 23.4949 85.8508 23.8924 85.6235 24.3157C85.4011 24.7299 85.1786 25.1905 84.939 25.6135C84.4513 26.4745 83.837 27.2879 82.7456 27.719L82.7466 27.72C81.5345 28.2073 80.4262 27.7109 79.4116 27.2659C78.9278 27.0536 78.6691 27.1038 78.5083 27.2366C78.3223 27.3904 78.1903 27.7089 78.0972 28.2034V28.2073C77.8716 29.2962 77.9818 30.5286 78.2593 31.7561C78.4671 32.6754 78.767 33.5841 79.0806 34.4172L79.396 35.2229L79.397 35.2258L79.5776 35.6741C80.5172 37.8968 82.0068 39.8847 83.7456 41.5627L83.8628 41.6965C84.1069 42.0241 84.1497 42.4628 84.0454 42.843C83.9328 43.2534 83.638 43.6372 83.1812 43.7737L83.0884 43.7971C83.0142 43.813 82.9752 43.8398 82.9536 43.8625C82.9319 43.8854 82.9145 43.9185 82.9058 43.9709C82.8866 44.0855 82.9155 44.2545 82.9888 44.4612C83.1329 44.8675 83.3918 45.2829 83.4995 45.4885L83.6733 45.804C84.0674 46.5494 84.3751 47.3735 84.4604 48.2747L84.4888 48.6047C84.5891 50.2488 84.0803 51.809 82.7026 52.8743L82.7036 52.8752C82.112 53.351 81.4216 53.6352 80.6382 53.7297L80.6265 53.7317H80.6138C80.3243 53.7317 79.9933 53.6843 79.7222 53.6633C79.4328 53.641 79.1912 53.6453 79.0024 53.718L78.9858 53.7249L78.9683 53.7278C78.8042 53.7595 78.6319 53.895 78.4497 54.1038C78.2654 54.315 78.1212 54.537 77.9653 54.7375L77.9624 54.7415C76.557 56.4594 75.0582 58.1772 73.562 59.8918C72.1577 61.6082 70.6604 63.3243 69.1655 65.0374L69.1626 65.0403C67.7528 66.5822 66.2708 68.1006 65.1597 69.7981L65.1606 69.7991C63.9322 71.687 63.7457 73.7087 64.0903 75.7268C64.4357 77.7485 65.3117 79.7562 66.1987 81.6038L66.2524 81.72C66.4811 82.2712 66.4039 82.99 65.8589 83.3411L65.7349 83.4104C65.2418 83.6483 64.7887 83.7468 64.3325 83.7346C63.8795 83.7224 63.4344 83.6017 62.9565 83.4172L62.9487 83.4143L62.9419 83.4104C62.886 83.3834 62.7998 83.3318 62.7134 83.2815C62.6217 83.2281 62.5172 83.1691 62.4116 83.1155C62.3052 83.0614 62.2037 83.0165 62.1167 82.9905C62.0224 82.9623 61.9778 82.9657 61.9673 82.969L61.9604 82.9719L61.9526 82.9729C61.9299 82.9785 61.8786 83.0094 61.8042 83.1106C61.7342 83.2059 61.6644 83.3355 61.5962 83.4836C61.5285 83.6306 61.4666 83.7865 61.4077 83.9329C61.3505 84.0749 61.2938 84.2151 61.2417 84.3157C59.9351 87.0178 58.717 89.6388 57.4077 92.2561C57.3337 92.4429 57.2331 92.6393 57.1372 92.8284C57.0361 93.0278 56.9381 93.2241 56.8667 93.4202C56.7248 93.81 56.6977 94.162 56.9253 94.4915L56.9917 94.5793C57.1558 94.7831 57.3843 94.9667 57.6479 95.1526C57.8653 95.3059 58.1145 95.4655 58.3462 95.6331L58.5698 95.803L58.5718 95.804L60.3481 97.2483C60.9319 97.7215 61.5161 98.1947 62.1235 98.6907L62.355 98.884C62.6207 99.1135 62.9826 99.4423 63.3872 99.7922C63.9347 100.266 64.5761 100.793 65.2202 101.22C65.8693 101.651 66.4991 101.965 67.0259 102.039C67.2854 102.076 67.5089 102.052 67.6958 101.965C67.8806 101.879 68.0482 101.724 68.1831 101.463L68.186 101.458L68.2632 101.336C68.4522 101.068 68.7093 100.916 68.9868 100.867C69.2976 100.813 69.6199 100.889 69.8872 101.044C70.1545 101.199 70.3816 101.441 70.4937 101.739C70.6078 102.041 70.5981 102.391 70.4058 102.736L70.3999 102.746L70.3979 102.745C69.6036 103.991 68.2191 104.556 66.7573 104.462V104.461C65.0919 104.366 63.7312 103.235 62.6226 102.343V102.342C61.8264 101.709 61.0302 101.054 60.2358 100.401C59.4405 99.746 58.6465 99.0928 57.853 98.4622L57.8511 98.4602C57.5525 98.2164 57.1958 97.9609 56.8159 97.6838C56.4387 97.4087 56.0412 97.1138 55.6724 96.7981C54.987 96.2113 54.3681 95.5252 54.1675 94.7122L54.1323 94.5481C53.9816 93.6748 54.2606 92.7711 54.6392 91.9377C54.8295 91.5188 55.0487 91.11 55.2593 90.7249C55.4713 90.337 55.6726 89.9756 55.8335 89.6428C56.255 88.694 56.6999 87.7678 57.1431 86.845C57.5875 85.9194 58.0302 84.9966 58.4497 84.052L58.6558 83.5598C58.7246 83.3883 58.7944 83.2097 58.8696 83.0256C59.0181 82.6624 59.1829 82.2857 59.3823 81.9358C59.7809 81.2364 60.334 80.6165 61.2075 80.4182L61.2153 80.4163L61.2241 80.4153C61.5767 80.3667 61.9007 80.3918 62.2085 80.426C62.456 80.4536 62.6876 80.4849 62.9282 80.4973C61.6848 77.5972 60.772 74.4829 61.5249 71.3586C61.9089 69.6479 62.8406 68.1315 63.9351 66.7346C65.023 65.346 66.3065 64.0359 67.3667 62.7903L67.3687 62.7883L69.3325 60.5413C69.9871 59.7883 70.6415 59.0317 71.2964 58.2756C72.6058 56.7638 73.916 55.251 75.2261 53.761L75.3169 53.8411L75.2271 53.761C75.7705 53.1492 76.3075 52.4227 76.9263 51.8713C77.5191 51.3433 78.2131 50.9469 79.1206 50.8997L79.3042 50.8948C79.5153 50.8731 79.7146 50.8664 79.896 50.8596C80.0865 50.8525 80.2567 50.8446 80.4185 50.8186C80.7303 50.7685 81.0149 50.6518 81.3081 50.3284C81.8106 49.7611 81.9071 48.9338 81.729 48.1604L81.7271 48.1516C81.5936 47.4221 81.2158 46.7783 80.8462 46.0764C80.4831 45.3869 80.1343 44.6483 80.1343 43.7825C80.1344 43.2114 80.3201 42.6407 80.645 42.1594C78.6226 39.9992 77.095 37.4669 76.1235 34.7327L76.1216 34.7288C75.6995 33.4614 75.2506 31.9335 75.0728 30.4006C74.8952 28.8697 74.9858 27.312 75.6665 25.9983L75.7651 25.8215C76.2868 24.9486 77.2289 24.2664 78.353 24.176L78.3608 24.175H78.3687C78.9723 24.175 79.5721 24.3205 80.103 24.5452L80.3267 24.6467L80.3335 24.6497L80.3403 24.6536C80.5915 24.799 80.7981 24.9404 81.022 25.0227C81.2307 25.0994 81.4299 25.1142 81.6499 25.0081L81.6577 25.0042L81.7808 24.9377C81.9016 24.8591 82.0173 24.7434 82.1294 24.594C82.2784 24.3953 82.4121 24.1493 82.5386 23.8831C82.6654 23.6159 82.7788 23.3411 82.895 23.0764C83.0088 22.8174 83.1259 22.5668 83.2524 22.3713C83.8296 21.3541 84.6921 20.4297 85.7476 19.7815C87.9427 18.4006 90.6967 17.9474 93.2349 17.8567H93.2368L94.5405 17.8313Z" fill="white" stroke="white" stroke-width="0.399194"/>
<path d="M70.1367 100.904C70.1687 100.904 70.2443 100.899 70.3174 100.935C70.3523 100.951 70.3794 100.974 70.3994 100.991C70.4187 101.008 70.4403 101.029 70.4619 101.05L70.5605 101.116C70.5836 101.131 70.6238 101.158 70.6562 101.203C70.6738 101.227 70.6864 101.254 70.6953 101.281C70.7813 101.388 70.7981 101.497 70.8018 101.58C70.8628 101.691 70.8426 101.815 70.8164 101.891C70.7901 101.967 70.7464 102.039 70.6982 102.097L70.6494 102.149C70.6217 102.176 70.6195 102.188 70.5811 102.244C70.5651 102.267 70.5368 102.306 70.4912 102.337C70.4692 102.352 70.4449 102.36 70.4209 102.368C70.4131 102.375 70.4066 102.383 70.3994 102.39C70.3795 102.407 70.3521 102.428 70.3174 102.445C70.2443 102.481 70.1687 102.477 70.1367 102.477H69.4814C69.4322 102.476 69.3877 102.465 69.3477 102.449C69.343 102.451 69.3392 102.455 69.335 102.457C69.288 102.48 69.2675 102.49 69.2461 102.511L69.1885 102.566H68.8398L68.7822 102.511C68.6899 102.422 68.6569 102.303 68.6426 102.221C68.6276 102.134 68.6279 102.05 68.6279 102.006C68.6279 101.911 68.6246 101.744 68.7822 101.592L68.8887 101.487C68.9347 101.383 68.9975 101.293 69.0625 101.23L69.1211 101.175H69.1699C69.1838 101.162 69.2047 101.141 69.2324 101.125C69.2336 101.124 69.2351 101.124 69.2363 101.123C69.2373 101.122 69.2383 101.12 69.2393 101.118C69.2721 101.071 69.3139 101.042 69.3486 101.025C69.3615 101.019 69.375 101.018 69.3867 101.014C69.5365 100.897 69.7009 100.904 69.8564 100.904H70.1367Z" fill="white" stroke="white" stroke-width="0.399194"/>
<path d="M70.3804 100.634C71.0308 100.658 71.7161 100.921 72.2837 101.195L72.5796 101.35C72.6787 101.406 72.778 101.464 72.8765 101.521C73.0758 101.637 73.2738 101.752 73.4761 101.849C73.8795 102.044 74.2742 102.157 74.6772 102.082C74.9728 101.999 75.2505 101.836 75.561 101.663C75.8252 101.516 76.1141 101.363 76.4292 101.293L76.5659 101.267C77.3665 101.125 78.0622 101.321 78.7095 101.61C79.0325 101.754 79.3494 101.925 79.6597 102.089C79.9685 102.252 80.273 102.408 80.5864 102.539C81.3739 102.791 81.8702 102.625 82.7456 102.531L82.7476 102.53L83.0962 102.509C83.4306 102.5 83.7256 102.53 84.0093 102.603C84.2919 102.676 84.5572 102.789 84.8335 102.938L85.1147 103.099L85.1196 103.103L85.2632 103.19C85.5868 103.374 85.8414 103.432 86.0991 103.432C86.413 103.432 86.7331 103.349 87.2192 103.256L87.23 103.254L87.73 103.176C87.9024 103.147 88.0811 103.119 88.2603 103.095C88.6172 103.05 88.9889 103.024 89.3423 103.073L89.5972 103.117C90.6764 103.34 91.4341 103.986 92.0259 104.774L92.2876 105.147L92.2905 105.151L92.5044 105.526C92.5749 105.657 92.6449 105.793 92.7153 105.927C92.8583 106.198 93.0054 106.469 93.1733 106.712C93.4674 107.137 93.8084 107.457 94.2681 107.556L94.4731 107.585L94.478 107.586L94.6421 107.594C95.4532 107.601 96.1002 107.104 96.7896 106.546C97.1476 106.256 97.519 105.95 97.9146 105.731C98.3148 105.51 98.7536 105.368 99.2505 105.419H99.2495C99.5743 105.424 99.8789 105.556 100.08 105.777C100.262 105.979 100.355 106.252 100.295 106.548L100.26 106.676C99.9532 107.564 99.2264 107.965 98.5952 108.4C97.9488 108.846 97.1733 109.407 96.2974 109.689C94.9369 110.246 93.2707 110.157 92.0835 109.108L91.9058 108.945C91.5077 108.558 91.2136 108.124 90.9448 107.685C90.6338 107.177 90.3639 106.675 89.9976 106.189L89.9966 106.188C89.7846 105.902 89.5527 105.741 89.3101 105.657C89.0642 105.571 88.7923 105.559 88.4937 105.591C88.1937 105.623 87.8791 105.698 87.5474 105.78C87.3021 105.841 87.0471 105.906 86.7915 105.954L86.5356 105.996C85.8434 106.091 85.1532 105.995 84.4683 105.712L84.4575 105.708V105.707C84.3076 105.634 84.1775 105.557 84.0601 105.484C83.9399 105.409 83.8394 105.343 83.7339 105.284C83.5322 105.171 83.3314 105.095 83.0474 105.095C82.8882 105.095 82.7242 105.133 82.5327 105.179C82.3503 105.223 82.1401 105.276 81.9253 105.276V105.275C81.0878 105.32 80.4012 105.081 79.7495 104.784C79.0853 104.481 78.4827 104.133 77.7515 103.913L77.7417 103.91C77.0873 103.673 76.7218 103.975 76.0151 104.267L76.0142 104.266C75.236 104.639 74.4407 104.741 73.6401 104.456C72.8425 104.261 72.1535 103.688 71.604 103.246L71.6001 103.243C70.8828 102.637 70.0855 102.297 69.1099 102.297C68.8963 102.297 68.7334 102.188 68.6519 102.031C68.5755 101.883 68.5755 101.702 68.6519 101.554L68.6577 101.544L68.7388 101.417C69.1566 100.809 69.757 100.61 70.3804 100.634Z" fill="white" stroke="white" stroke-width="0.399194"/>
<path d="M129.729 92.8262C131.332 92.6114 132.935 92.7182 134.536 93.1465H134.537C138.039 93.9685 141.436 96.1555 143.797 98.7041L143.86 98.7715C144.155 99.1139 144.111 99.5507 143.888 99.8477C143.648 100.165 143.197 100.336 142.729 100.11L142.722 100.106C141.872 99.6508 141.041 99.1224 140.214 98.585C139.384 98.0462 138.559 97.4992 137.711 97C136.015 96.0022 134.246 95.2077 132.233 95.0752L132.227 95.0742C130.401 94.8982 128.769 95.5131 126.964 95.9717L126.963 95.9707C126.023 96.2426 125.171 96.4259 124.225 96.5176L124.226 96.5186C123.827 96.5666 123.463 96.5847 123.073 96.6416C122.744 96.6897 122.437 96.7618 122.167 96.8887L122.053 96.9463C121.767 97.1039 121.557 97.3638 121.32 97.6719C121.092 97.9696 120.838 98.3135 120.479 98.5605L120.475 98.5645C119.88 98.9472 119.187 99.1376 118.496 99.1377V99.1367C118.302 99.1583 118.106 99.1599 117.92 99.1572C117.723 99.1543 117.54 99.1485 117.362 99.1592C117.057 99.1776 116.798 99.2428 116.583 99.4326L116.488 99.5273L116.483 99.5332C116.277 99.7321 116.126 99.9971 115.989 100.305C115.921 100.458 115.859 100.618 115.794 100.782C115.73 100.945 115.664 101.113 115.592 101.275L115.588 101.284L115.587 101.283C114.325 103.813 111.524 104.82 108.801 105.273V105.272C107.996 105.409 107.216 105.479 106.443 105.535C105.668 105.592 104.903 105.636 104.113 105.726H104.111C102.36 105.904 100.975 106.348 99.3936 106.977L99.3809 106.982L99.3672 106.985C99.2342 107.017 99.0887 107.007 98.959 106.975C98.8285 106.942 98.6979 106.884 98.5918 106.804C98.4883 106.725 98.3871 106.61 98.3604 106.458C98.3315 106.294 98.3979 106.14 98.5264 106.016C99.7421 104.482 101.525 103.887 103.381 103.593C104.313 103.445 105.275 103.371 106.199 103.295C107.126 103.219 108.014 103.139 108.819 102.984C110.316 102.623 111.751 102.182 112.733 101.062L112.738 101.057L112.913 100.858C113.301 100.381 113.559 99.8159 113.851 99.2324C114.137 98.6592 114.456 98.0738 114.966 97.6133L115.196 97.4238C115.798 96.9421 116.496 96.7528 117.274 96.752C117.533 96.7297 117.764 96.724 117.966 96.7158C118.174 96.7074 118.352 96.696 118.518 96.665C118.835 96.6058 119.125 96.4715 119.472 96.0947C120.04 95.4549 120.573 94.9841 121.199 94.6641C121.828 94.343 122.536 94.1809 123.443 94.1348H123.445L123.836 94.1104C124.74 94.0349 125.585 93.8376 126.431 93.6113C127.392 93.3542 128.365 93.0565 129.405 92.874L129.408 92.873L129.729 92.8262Z" fill="white" stroke="white" stroke-width="0.399194"/>
<path d="M308.126 85.8071C308.216 85.8071 308.331 85.8321 308.414 85.9194C308.497 86.0069 308.514 86.1202 308.489 86.228V91.5356C308.489 91.7841 308.513 92.1287 308.489 92.4312C308.468 92.6996 308.407 92.9885 308.23 93.2124L308.148 93.3042C308.055 93.3939 307.93 93.4272 307.822 93.4272C307.715 93.4272 307.59 93.3936 307.497 93.3042L307.488 93.2964L307.481 93.2876C307.251 93.0098 307.202 92.6832 307.202 92.3813C307.202 92.2309 307.214 92.079 307.226 91.938C307.237 91.7938 307.248 91.6613 307.248 91.5356C307.248 91.2554 307.273 90.9532 307.296 90.6616C307.319 90.3665 307.342 90.0811 307.342 89.8198V89.813L307.343 89.8052C307.436 88.541 307.53 87.3671 307.623 86.1938L307.625 86.1685L307.634 86.144C307.716 85.9075 307.949 85.8072 308.126 85.8071Z" fill="white" stroke="white" stroke-width="0.399194"/>
<path d="M309.317 86.0103C309.428 86.0103 309.547 86.045 309.641 86.1255C309.738 86.2095 309.798 86.3332 309.798 86.48C309.798 86.9249 309.82 87.3485 309.844 87.7778C309.867 88.2059 309.892 88.6405 309.892 89.0981V90.3618C309.892 90.4694 309.897 90.5762 309.901 90.6909C309.906 90.803 309.909 90.9213 309.902 91.0386C309.889 91.2752 309.837 91.524 309.662 91.7485C309.569 91.8971 309.41 91.9604 309.259 91.9604C309.099 91.9604 308.933 91.8928 308.805 91.769L308.794 91.7593L308.786 91.7485C308.612 91.524 308.558 91.2752 308.545 91.0386C308.539 90.9213 308.542 90.803 308.547 90.6909C308.551 90.5762 308.557 90.4694 308.557 90.3618C308.557 90.1679 308.582 89.9519 308.604 89.7417C308.628 89.5268 308.65 89.3114 308.65 89.0981C308.65 88.1829 308.745 87.3587 308.838 86.4595H308.839C308.844 86.3217 308.901 86.2055 308.994 86.1255C309.088 86.045 309.207 86.0103 309.317 86.0103Z" fill="white" stroke="white" stroke-width="0.399194"/>
<path d="M228.794 23.7437C228.794 25.0057 228.793 26.187 228.699 27.3696C228.698 27.6453 228.676 27.941 228.653 28.2271C228.63 28.5221 228.606 28.8076 228.606 29.0688V29.9722C228.606 30.1012 228.608 30.2387 228.578 30.3667C228.55 30.4897 228.493 30.5994 228.396 30.7046C228.374 30.7563 228.339 30.7971 228.299 30.8228C228.242 30.8594 228.179 30.8705 228.127 30.8706C228.075 30.8706 228.011 30.8595 227.954 30.8228C227.915 30.7973 227.88 30.7567 227.857 30.7056C227.741 30.5694 227.717 30.4116 227.717 30.2769C227.717 30.2044 227.723 30.13 227.729 30.0659C227.734 29.9985 227.74 29.9389 227.74 29.8813V28.979C227.74 28.6989 227.764 28.3974 227.787 28.106C227.811 27.8109 227.833 27.5255 227.833 27.2642C227.833 26.377 227.886 25.4902 227.952 24.6079L228.021 23.7271C228.026 23.6313 228.067 23.5457 228.14 23.4868C228.211 23.4289 228.297 23.4087 228.372 23.4087C228.52 23.4087 228.687 23.4881 228.771 23.6519L228.794 23.6948V23.7437Z" fill="white" stroke="white" stroke-width="0.399194"/>
<path d="M78.1943 36.6108C78.3587 36.611 78.528 36.7019 78.6182 36.8706L78.6514 36.9478L78.6602 36.9731L78.6621 36.9995C78.7086 37.6725 78.7784 38.3464 78.8486 39.0239C78.9183 39.6962 78.9881 40.3725 79.0352 41.0493L79.0918 41.5854C79.1066 41.7599 79.1182 41.931 79.1299 42.1001C79.1532 42.4381 79.1761 42.7697 79.2217 43.1226L79.2881 43.6001C79.3466 44.0855 79.367 44.5935 79.2158 45.104C79.1992 45.178 79.1532 45.2335 79.1025 45.2661C79.0455 45.3027 78.9822 45.3139 78.9307 45.314C78.8789 45.314 78.815 45.3029 78.7578 45.2661C78.7115 45.2363 78.6682 45.1873 78.6484 45.1226C78.4539 44.8242 78.382 44.5076 78.3467 44.2007C78.3285 44.0423 78.3186 43.8807 78.3086 43.7271C78.3035 43.6491 78.2988 43.5724 78.292 43.4966L78.2656 43.271L78.2646 43.2671C78.217 42.8993 78.1933 42.555 78.1699 42.2173C78.1465 41.8781 78.124 41.5451 78.0781 41.1909L78.0762 41.1792C78.0294 40.5021 77.9833 39.8024 77.9365 39.103L77.7959 37.0269L77.7949 37.0132H77.7959C77.7959 36.8967 77.8371 36.7903 77.9189 36.7144C77.9982 36.6409 78.1 36.6108 78.1943 36.6108Z" fill="white" stroke="white" stroke-width="0.399194"/>
<path d="M80.5332 42.8796C80.5332 43.94 80.6275 45.148 80.4365 46.2537L80.4346 46.2527C80.4238 46.3389 80.3743 46.4022 80.3184 46.4382C80.2613 46.475 80.1981 46.487 80.1465 46.4871C80.0948 46.4871 80.0308 46.475 79.9736 46.4382C79.9214 46.4045 79.8743 46.3469 79.8594 46.2693V46.2703C79.6088 45.3032 79.5053 44.2694 79.4834 43.2937L79.4785 42.8796C79.3855 41.7033 79.3857 40.617 79.3857 39.45V39.4011L79.4082 39.3582C79.4951 39.1905 79.664 39.1151 79.8184 39.115C79.9535 39.115 80.1005 39.1726 80.1934 39.2996L80.2295 39.3582L80.2451 39.3865L80.25 39.4177C80.4386 40.6005 80.4403 41.7112 80.5322 42.864L80.5332 42.8718V42.8796Z" fill="white" stroke="white" stroke-width="0.399194"/>
<path d="M162.362 58.9341C162.881 58.9341 163.209 59.0614 163.432 59.2319L163.457 59.2515C163.748 59.462 163.893 59.6889 163.958 59.9507L163.965 59.9771L163.973 60.0015L176.337 101.646C176.523 102.365 176.696 103.141 176.857 103.975L176.865 104.012C177.055 104.854 177.232 105.754 177.396 106.711L179.751 106.744C179.942 105.786 180.134 104.885 180.324 104.039C180.486 103.39 180.654 102.792 180.828 102.245L181.004 101.713L181.007 101.706L195.085 60.0591C195.155 59.8601 195.294 59.6353 195.558 59.3931L195.679 59.2886L195.684 59.2837C195.955 59.0575 196.278 58.9341 196.714 58.9341H199.055C199.512 58.9342 199.795 59.0324 199.98 59.1558L200.054 59.2095C200.33 59.4338 200.542 59.7189 200.692 60.0874L214.719 101.705L214.723 101.713C214.958 102.395 215.17 103.135 215.356 103.936L215.36 103.955L215.365 103.973C215.582 104.788 215.786 105.647 215.978 106.548L218.334 106.479C218.437 105.802 218.547 105.149 218.664 104.52L218.783 103.899C218.945 103.09 219.119 102.339 219.305 101.646L231.712 60.0024L231.715 59.9917L231.719 59.981C231.78 59.7595 231.922 59.517 232.229 59.2593C232.498 59.0534 232.829 58.9342 233.28 58.9341H237.963L220.029 116.48H214.503L199.612 71.6021C199.48 71.1782 199.346 70.7263 199.213 70.2466C199.101 69.7424 198.976 69.2123 198.837 68.6567H196.514C196.377 69.2054 196.24 69.7253 196.104 70.2163C195.97 70.699 195.836 71.1533 195.703 71.5796L180.724 116.48H175.196L157.262 58.9341H162.362Z" fill="white" stroke="#141A19" stroke-width="2.39516"/>
</svg>
