<svg width="64" height="46" viewBox="0 0 64 46" fill="none" xmlns="http://www.w3.org/2000/svg">
<g clip-path="url(#clip0_256_6536)">
<path d="M24.895 26.7175C24.895 26.7691 24.892 26.8207 24.8901 26.8562C24.8881 26.8958 24.8876 26.9215 24.8892 26.9421C24.8906 26.9609 24.8935 26.9697 24.895 26.9734L24.9087 26.991L24.9204 27.0027C24.957 27.0429 25.0209 27.0799 25.1333 27.1238C25.22 27.1576 25.3665 27.2059 25.4819 27.2644H25.4829C25.6993 27.3572 25.8963 27.5117 26.0366 27.7126L26.0933 27.8015L26.0991 27.8113H26.0981C26.1637 27.9377 26.1855 28.0658 26.1997 28.1619C26.2151 28.2659 26.2234 28.3336 26.2466 28.4021C26.2659 28.4493 26.2959 28.4933 26.3403 28.5447C26.3639 28.572 26.3895 28.599 26.4194 28.6306C26.4464 28.6591 26.4769 28.6924 26.5073 28.7273C26.7449 28.9583 26.9389 29.2158 27.0854 29.5212H27.0864C27.433 30.2341 27.6426 31.0624 27.8608 31.7781L27.895 31.8972C27.9273 32.0227 27.9495 32.166 27.9351 32.3083C27.9141 32.5136 27.8157 32.7134 27.5933 32.8455L27.5913 32.8474C27.2791 33.028 26.9025 32.9878 26.6372 32.8855L26.6284 32.8826V32.8816C26.5687 32.856 26.5107 32.8261 26.4663 32.8035C26.4179 32.7788 26.3821 32.7606 26.3501 32.7488C26.2938 32.728 26.2784 32.7348 26.2632 32.7429L26.2495 32.7507L26.2349 32.7556C26.2108 32.7649 26.1939 32.7782 26.1382 32.8152C26.0903 32.8469 26.0099 32.8988 25.9019 32.9197L25.9009 32.9187C25.7015 32.976 25.508 32.9009 25.3872 32.8337V32.8347C25.3858 32.834 25.3847 32.8325 25.3833 32.8318C25.3792 32.8295 25.3745 32.8282 25.3706 32.8259L25.3716 32.824C25.3377 32.8052 25.3101 32.7849 25.2954 32.7722C25.2824 32.761 25.2702 32.7484 25.2593 32.738C25.243 32.7472 25.223 32.759 25.2017 32.7693L25.1899 32.7751C24.8518 32.9169 24.4748 32.866 24.1929 32.6882C24.1322 32.65 24.0766 32.604 24.0249 32.5535C23.8707 32.7597 23.8072 33.0246 23.8599 33.2917C23.9191 33.536 24.047 33.9043 23.8345 34.2849L23.8335 34.2839C23.7245 34.4902 23.5514 34.6362 23.397 34.7517L23.2515 34.8591C23.0577 35.0055 22.954 35.2185 22.8628 35.4978C22.7795 35.753 22.6974 36.1062 22.5386 36.3923L22.5396 36.3933C22.4517 36.5627 22.3232 36.7267 22.1675 36.864C22.1762 36.869 22.1845 36.8743 22.1929 36.8796H22.1938C22.2773 36.9266 22.3495 36.9809 22.4077 37.0251C22.4702 37.0726 22.5133 37.1058 22.5571 37.1326C22.6272 37.1754 22.6751 37.188 22.7563 37.1619L22.7622 37.1599L22.9048 37.1033C23.0437 37.0327 23.1747 36.9229 23.3345 36.7878C23.5333 36.6198 23.7796 36.4105 24.1079 36.3181V36.3171L24.2935 36.2771C25.2269 36.1272 26.2199 36.7675 26.3696 37.7058H26.3677C26.3936 37.8342 26.3711 37.9627 26.2896 38.0652C26.2092 38.1662 26.0943 38.2153 25.9888 38.2263C25.7777 38.2481 25.5201 38.1219 25.4731 37.8279L25.4722 37.823C25.4253 37.4934 25.0776 37.2103 24.6899 37.1746L24.6851 37.1736C24.4817 37.151 24.3203 37.2215 24.1421 37.3533C24.0499 37.4215 23.9619 37.4994 23.8599 37.5876C23.7629 37.6715 23.6537 37.7624 23.5347 37.8416L23.5356 37.8425C23.2577 38.0374 22.9607 38.1467 22.6558 38.1433C22.3521 38.1398 22.0668 38.0241 21.8091 37.8152V37.8162C21.7349 37.7605 21.6354 37.7119 21.5073 37.658C21.3892 37.6083 21.2374 37.5497 21.105 37.4822C20.9695 37.4131 20.8234 37.3206 20.7144 37.1814C20.6783 37.1354 20.6496 37.0849 20.6245 37.032L20.4761 36.9724L20.5757 36.8953C20.567 36.862 20.5579 36.8283 20.5532 36.7927L20.5454 36.6365C20.5498 36.3481 20.784 36.1254 21.0659 36.1277L21.1899 36.1423L21.1938 36.1433L21.2661 36.156C21.3313 36.1609 21.3768 36.1448 21.4136 36.1218C21.4723 36.0852 21.5336 36.0149 21.5933 35.9021C21.7187 35.6651 21.7774 35.3743 21.855 35.1248L21.8569 35.1169L22.0942 35.199L21.8579 35.1169C21.9477 34.8573 22.0486 34.5808 22.2593 34.3269L22.2671 34.3181L22.4155 34.1765C22.4662 34.1339 22.5171 34.0962 22.5649 34.0613C22.666 33.9875 22.7471 33.9319 22.8276 33.864C22.8694 33.8263 22.8813 33.7917 22.8745 33.7117C22.8704 33.6628 22.8599 33.6096 22.8452 33.5369C22.8318 33.4703 22.8142 33.387 22.8071 33.3005V33.3015C22.7851 33.0675 22.8012 32.8237 22.8784 32.5906L22.9146 32.4919C23.071 32.0512 23.3885 31.7068 23.7817 31.4802L23.7915 31.4031L23.855 31.4392C23.9051 31.4128 23.9561 31.3876 24.0083 31.365V31.366C24.1461 31.3029 24.3132 31.3086 24.4448 31.365C24.516 31.3955 24.5905 31.4471 24.645 31.5271C24.7019 31.6107 24.7265 31.7113 24.7144 31.8171V31.821C24.7097 31.8573 24.7188 31.8752 24.7212 31.8787C24.7221 31.88 24.7232 31.88 24.7241 31.8806L24.7427 31.8865L24.7524 31.8875L24.7446 31.8865C24.7448 31.8859 24.7643 31.8835 24.8169 31.8582C24.8532 31.8406 24.8748 31.8278 24.9214 31.8044C24.9595 31.7853 25.0086 31.7618 25.061 31.7449V31.7458C25.2241 31.6867 25.4248 31.6835 25.604 31.78H25.605C25.606 31.7805 25.6069 31.7815 25.6079 31.782C25.6122 31.7843 25.6173 31.7863 25.6216 31.7888H25.6206C25.6732 31.8163 25.7137 31.8468 25.7427 31.8718C25.7459 31.8746 25.7493 31.8778 25.7524 31.8806C25.7604 31.8761 25.769 31.872 25.7778 31.8669C25.8048 31.8513 25.8412 31.8301 25.8784 31.8113C25.9592 31.7705 26.0602 31.7332 26.1899 31.7332C26.3597 31.7332 26.4976 31.7648 26.6274 31.8103L26.7554 31.8601L26.7622 31.863L26.7642 31.864C26.7625 31.8591 26.761 31.8542 26.7593 31.8494L26.7573 31.8416C26.5463 31.1632 26.4022 30.4764 26.0815 29.8787L26.0796 29.8757C26.0159 29.753 25.9322 29.6475 25.8296 29.5359C25.7374 29.4356 25.5977 29.2981 25.4858 29.1687L25.4849 29.1667C25.2354 28.8728 25.2016 28.5827 25.1411 28.3298L25.1392 28.322C25.1216 28.2376 25.054 28.1683 24.8521 28.0789C24.805 28.058 24.7555 28.0379 24.7017 28.0164C24.6491 27.9953 24.5916 27.9723 24.5356 27.948C24.4276 27.9012 24.3063 27.8415 24.2017 27.7566V27.7576C23.9101 27.5327 23.795 27.2215 23.7915 26.905V26.906C23.7798 26.7256 23.7796 26.5435 23.7769 26.3738C23.7741 26.2003 23.7692 26.0328 23.7485 25.863L23.7476 25.8611C23.7278 25.6899 23.6899 25.5394 23.645 25.3455C23.6406 25.3458 23.6359 25.3471 23.6313 25.3474C23.6214 25.3481 23.6077 25.3494 23.5933 25.3494H23.5835L23.5737 25.3484C23.2303 25.3208 22.9401 25.1519 22.7417 24.8787L22.7427 24.8777C22.6899 24.8116 22.6421 24.7355 22.6089 24.6843C22.5681 24.6215 22.5363 24.5773 22.5024 24.5447L22.4937 24.5369L22.4878 24.53C22.2617 24.673 21.9812 24.7636 21.686 24.6658L21.5522 24.6082C21.3936 24.5247 21.2708 24.41 21.1714 24.3054C21.0577 24.1858 21.001 24.1123 20.9126 24.0271C20.7639 23.8838 20.6199 23.814 20.4087 23.7009V23.7C20.0584 23.5302 19.5546 23.2413 19.4946 22.6648L19.4956 22.6638C19.4847 22.5862 19.5017 22.4997 19.5669 22.4294C19.6352 22.356 19.7221 22.3365 19.7769 22.3328C19.863 22.3268 19.9488 22.3512 20.0249 22.3933L20.0981 22.4412L20.1362 22.4705L20.1616 22.5134C20.2754 22.709 20.4675 22.8285 20.7329 22.9324C20.8668 22.9848 21.0038 23.0277 21.1548 23.0789C21.3008 23.1283 21.4568 23.1835 21.6021 23.2566H21.6011C21.7553 23.3315 21.8986 23.4465 22.0142 23.5544C22.0208 23.5494 22.0275 23.5438 22.0347 23.5388C22.0545 23.525 22.0819 23.51 22.1138 23.4958L22.2046 23.4548C22.6533 23.2815 23.0837 23.5287 23.3276 23.8064H23.3286C23.3938 23.8762 23.4472 23.9527 23.4897 24.0164C23.5359 24.0853 23.5682 24.1368 23.605 24.1833C23.6711 24.267 23.7134 24.2878 23.7729 24.2878C23.9569 24.2879 24.152 24.3105 24.3237 24.405C24.4602 24.4802 24.5657 24.5913 24.6401 24.7361L24.7046 24.8923L24.7056 24.8962L24.7827 25.199C24.8476 25.505 24.878 25.8189 24.895 26.0984V26.7175Z" fill="white" stroke="white" stroke-width="0.5"/>
<path d="M32.2983 30.9358L32.2974 30.9368C32.594 30.9593 32.7466 31.2011 32.7466 31.4172C32.7465 31.5248 32.7098 31.643 32.6216 31.7346C32.5517 31.8071 32.4613 31.8507 32.3618 31.8635L32.2593 31.8655C31.7165 31.8253 31.1707 31.9054 30.6421 32.0881L30.4819 32.1526C30.3096 32.226 30.1102 32.3255 29.9546 32.4456C29.8659 32.5139 29.8072 32.5755 29.771 32.6311C30.1231 32.7829 30.4169 33.0678 30.5278 33.4631L30.5542 33.5793L30.5562 33.5872H30.5552C30.6384 34.1494 30.3355 34.7273 29.8169 34.9905L29.8091 34.9944C29.5009 35.1365 29.185 35.1523 28.9165 35.1604C28.6353 35.1689 28.4102 35.1686 28.1968 35.2395L28.1978 35.2405C28.1042 35.2733 28.0378 35.3242 27.8989 35.4045C27.7746 35.4765 27.6104 35.5568 27.3989 35.5569C27.3455 35.5569 27.2936 35.5507 27.2437 35.5422C27.1639 35.7087 27.0799 35.874 26.9956 36.0383L27.0864 36.135L26.9312 36.1643L26.8374 36.3499C26.7527 36.5132 26.5918 36.5763 26.4634 36.5862C26.423 36.5893 26.3806 36.5855 26.3374 36.5784C26.3604 36.9745 26.3726 37.3707 26.3726 37.7668C26.3726 37.997 26.1928 38.121 26.0425 38.1418C25.9052 38.1608 25.6764 38.099 25.6313 37.8586V37.8596C25.4863 37.1403 25.3621 36.415 25.2896 35.6702L25.1538 35.5393L25.27 35.4836C25.2699 35.482 25.2692 35.4804 25.269 35.4788L25.27 35.4778C25.2473 35.2322 25.4101 35.0691 25.5737 35.0081C25.7086 34.9577 25.8895 34.9578 26.0347 35.0569L26.0952 35.1057L26.0962 35.1067L26.1968 35.0588L26.2163 35.2297C26.2495 35.264 26.2825 35.2983 26.3159 35.3323C26.3777 35.2055 26.4347 35.0773 26.4888 34.9495L26.3394 34.7327H26.5776C26.5791 34.7287 26.581 34.7249 26.5825 34.7209L26.5942 34.6956C26.7594 34.377 27.1928 34.3126 27.4263 34.5999C27.449 34.5898 27.4778 34.5745 27.5161 34.55C27.5511 34.5277 27.6102 34.4889 27.6587 34.4622L27.6704 34.4553L27.7866 34.4045C27.9008 34.3587 28.0167 34.3254 28.1343 34.3059C28.3106 34.2698 28.489 34.2583 28.6509 34.2502C28.8194 34.2418 28.9671 34.2367 29.1099 34.217H29.1128L29.2192 34.1995C29.3226 34.1772 29.4141 34.1426 29.4839 34.0959C29.5688 34.0391 29.6214 33.9652 29.6343 33.8538L29.6353 33.8499V33.7834C29.6177 33.6277 29.4735 33.4758 29.2632 33.4631L29.2476 33.4622L29.231 33.4592C29.1554 33.4446 29.0704 33.4182 28.9927 33.3606C28.9121 33.3008 28.8592 33.2224 28.8237 33.137L28.8198 33.1272C28.7528 32.9451 28.7404 32.7723 28.7642 32.6116L28.5962 32.4495L28.7964 32.4661C28.8479 32.2937 28.9406 32.1379 29.0542 32.0032C29.2937 31.7192 29.637 31.506 29.9341 31.3684L30.2114 31.2493C30.8662 30.9912 31.5727 30.8759 32.2983 30.9358Z" fill="white" stroke="white" stroke-width="0.5"/>
<path d="M34.1587 30.6759C34.6682 30.676 35.3273 30.8863 35.5366 31.4913L35.5708 31.6154C35.5966 31.738 35.5953 31.8577 35.563 31.9708C35.5193 32.1233 35.4253 32.2397 35.311 32.3214C35.0925 32.4775 34.7942 32.516 34.5376 32.4913H34.5366C34.335 32.4712 34.1305 32.4456 33.9253 32.4191C33.9269 32.4546 33.9256 32.4897 33.9224 32.5245C34.1085 32.5953 34.2857 32.676 34.4546 32.7599C34.7464 32.9047 35.0108 33.0483 35.2876 33.1573L35.5698 33.254L35.5747 33.255L35.7339 33.295C35.895 33.3267 36.0611 33.335 36.2368 33.3331C36.3545 33.3318 36.4736 33.3262 36.5981 33.3204C36.7208 33.3147 36.8495 33.3087 36.979 33.3087C37.4717 33.3087 37.9652 33.3766 38.436 33.5128H38.4351C38.6059 33.5569 38.8247 33.619 39.0298 33.7062C39.2304 33.7915 39.4524 33.9148 39.5933 34.0958H39.5923C39.6772 34.2029 39.7257 34.3252 39.7222 34.4572C39.7186 34.5862 39.6667 34.6947 39.606 34.7775C39.4899 34.9356 39.3073 35.0494 39.1763 35.1183L39.1743 35.1193C38.4685 35.4808 37.8135 35.8817 37.2271 36.3634C37.029 36.5399 36.8327 36.7284 36.6421 36.9181C36.759 36.9069 36.8788 36.9039 37.0005 36.9171L37.1411 36.9396L37.1567 36.9435C37.2851 36.9788 37.4323 37.0321 37.564 37.1202L37.689 37.2198L37.6997 37.2296L37.7085 37.2404C37.7592 37.3015 37.8028 37.3621 37.8413 37.4152C37.8761 37.4631 37.9077 37.5048 37.9409 37.546C37.9473 37.5472 37.9625 37.5499 37.9966 37.546C38.0143 37.544 38.034 37.5411 38.0581 37.5372C38.0806 37.5337 38.1089 37.5284 38.1372 37.5245C38.1659 37.5206 38.1992 37.5174 38.2349 37.5157L38.3481 37.5187L38.3618 37.5197L38.3608 37.5206C38.4956 37.5423 38.6321 37.5958 38.7466 37.674L38.853 37.7599L38.8608 37.7677L38.9663 37.8956C39.1856 38.2047 39.2466 38.5941 39.2847 38.8683L39.3071 39.0265C39.3499 39.3882 39.3228 39.7321 39.2632 40.0822L39.2642 40.0831C39.2392 40.3 39.2037 40.4835 39.2036 40.672C39.2036 40.8067 39.2229 40.915 39.2671 41.0021L39.3198 41.0822L39.3208 41.0831L39.3901 41.1554C39.5603 41.3083 39.7814 41.3377 40.0396 41.2784C40.3418 41.2091 40.6528 41.0228 40.8657 40.837C40.996 40.7213 41.1207 40.593 41.2495 40.4562C41.3766 40.3211 41.5102 40.1748 41.6489 40.0382C41.9266 39.7649 42.2494 39.5023 42.6704 39.3654C42.8924 39.2862 43.0862 39.4024 43.1743 39.548C43.2566 39.6842 43.2771 39.9074 43.105 40.0607L43.106 40.0616C42.7709 40.3847 42.4639 40.6377 42.1499 40.962L42.144 40.9689L42.1431 40.9679C41.8468 41.2536 41.5273 41.6078 41.1177 41.8634C40.4633 42.2828 39.4907 42.456 38.772 41.8917V41.8907C38.347 41.5598 38.2342 41.1363 38.231 40.7257C38.2294 40.5258 38.2539 40.324 38.2788 40.1378C38.3045 39.9461 38.3298 39.774 38.3403 39.6075C38.3512 39.4183 38.3567 39.2132 38.3364 39.0177C38.3159 38.82 38.2706 38.6486 38.1948 38.5187L38.1899 38.5089L38.1851 38.5001C38.1608 38.5015 38.1312 38.5059 38.0767 38.5148C38.0243 38.5232 37.9516 38.5353 37.8735 38.5353C37.6537 38.5351 37.4858 38.427 37.3628 38.3322L37.3521 38.3234L37.3423 38.3136C37.2655 38.2395 37.2067 38.1539 37.1646 38.0929C37.1409 38.0586 37.1211 38.0306 37.103 38.007L37.0513 37.9474C37.0208 37.918 36.9373 37.889 36.811 37.9064L36.8091 37.9073C36.6718 37.925 36.5379 37.9771 36.354 38.0372C36.1888 38.0912 35.9774 38.1524 35.7583 38.1222H35.7554C35.5209 38.0873 35.3546 37.9437 35.2661 37.7648C35.181 37.5924 35.1674 37.3896 35.2144 37.2081L35.2153 37.2042L35.272 37.049C35.3395 36.9009 35.4367 36.7732 35.5327 36.6652C35.5958 36.5942 35.6651 36.5253 35.731 36.462L35.9097 36.2921C36.4842 35.7167 37.1485 35.2094 37.8335 34.7911L37.8423 34.7853L37.9634 35.005L37.8433 34.7853C37.9834 34.708 38.1714 34.5958 38.353 34.507C38.36 34.5022 38.3673 34.4979 38.3745 34.4933C38.3261 34.4743 38.2749 34.4561 38.2222 34.4396L37.9331 34.3644C37.5212 34.275 37.1075 34.2938 36.6519 34.3048C36.2076 34.3156 35.7266 34.3178 35.2456 34.1632H35.2437C34.8632 34.0371 34.5009 33.8341 34.1753 33.672C33.8383 33.5042 33.5243 33.3701 33.1899 33.3322V33.3312C33.1739 33.3296 33.1585 33.3262 33.1431 33.3234L33.0132 33.3634L32.9995 33.2755C32.858 33.2032 32.7619 33.0723 32.7368 32.923C32.7158 32.7977 32.7465 32.6717 32.8218 32.5704C32.7604 32.5458 32.7086 32.5283 32.6938 32.5236L32.6772 32.5187L32.6616 32.5109C32.5273 32.4461 32.4036 32.3602 32.3091 32.2413C32.297 32.2262 32.2876 32.2093 32.2769 32.1935L32.0454 32.1632L32.189 32.0245C32.1648 31.958 32.1482 31.8876 32.1411 31.8126V31.8116C32.1406 31.8074 32.1405 31.8032 32.1401 31.799C32.0496 31.788 31.9668 31.7484 31.9028 31.6808C31.8245 31.598 31.7933 31.4949 31.7856 31.4093C31.772 31.2552 31.8284 31.0304 32.0229 30.923L32.0649 30.8995L32.1118 30.8937C32.7621 30.8101 33.4659 30.6759 34.1587 30.6759Z" fill="white" stroke="white" stroke-width="0.5"/>
<path d="M57.5171 24.9159C57.6589 24.9058 57.8032 24.9275 57.9487 24.9843L58.0942 25.0526L58.103 25.0575L58.1685 25.1053C58.2294 25.1585 58.2742 25.2273 58.2954 25.3075C58.3226 25.4105 58.3043 25.5109 58.2661 25.5907C58.1928 25.7433 58.0201 25.8688 57.8101 25.8436L57.8003 25.8427C57.6961 25.8259 57.5915 25.862 57.4634 25.9608C57.3229 26.0692 57.221 26.1939 57.0728 26.3368L57.0649 26.3446L57.064 26.3436C56.8357 26.5453 56.6207 26.6651 56.3784 26.7596L56.1255 26.8475C56.0068 26.8857 55.9278 26.967 55.8638 27.0946C55.7948 27.2321 55.7573 27.3943 55.7095 27.579L55.7075 27.5858C55.6029 27.949 55.5826 28.2839 55.5356 28.6688L55.5347 28.6776C55.464 29.1267 55.205 29.3955 54.8696 29.5311C54.5551 29.6583 54.1836 29.6657 53.8608 29.6434V29.6425C53.6834 29.6332 53.5502 29.6493 53.4282 29.6835C53.3032 29.7185 53.1777 29.7767 53.0181 29.869C52.7969 30.0115 52.5557 30.1791 52.2622 30.2841L52.1313 30.3251C52.0383 30.3507 51.948 30.3659 51.8677 30.3778C51.7822 30.3905 51.7169 30.3985 51.6479 30.411C51.5183 30.4346 51.4304 30.4668 51.3569 30.5311L51.3481 30.5389L51.3384 30.5458C51.274 30.5923 51.2186 30.6531 51.1431 30.7372C51.0738 30.8142 50.9838 30.9135 50.8706 30.996L50.8716 30.9969C50.6372 31.1726 50.3457 31.295 50.0103 31.2372V31.2382C49.9291 31.2251 49.8338 31.1975 49.7739 31.1825C49.7029 31.1647 49.6493 31.1542 49.603 31.1542C49.5744 31.1542 49.5363 31.162 49.4839 31.1796C49.4256 31.1991 49.383 31.2186 49.312 31.246C49.0944 31.3421 48.791 31.4998 48.4614 31.4999C48.3571 31.4999 48.2625 31.4902 48.1802 31.4803C48.0937 31.47 48.0299 31.4608 47.9624 31.4559C47.8429 31.4474 47.7388 31.4553 47.6118 31.5155C47.3114 31.6708 47.0247 31.8538 46.7329 32.0468C46.4444 32.2375 46.1455 32.4403 45.8384 32.6268L45.8394 32.6278C45.6848 32.7236 45.5355 32.8197 45.3843 32.9169C45.2335 33.0138 45.081 33.1125 44.9224 33.2108L44.9214 33.2098C44.7809 33.2998 44.6084 33.3908 44.4722 33.4686C44.361 33.5321 44.2645 33.5923 44.186 33.6542L44.1138 33.7177C44.1115 33.721 44.1017 33.7364 44.0952 33.7772C44.0871 33.829 44.0875 33.8988 44.0962 33.9843C44.1143 34.161 44.1554 34.3171 44.1831 34.4716L44.2866 34.8837C44.3053 34.9507 44.3255 35.0169 44.3472 35.0829L44.4185 35.2792L44.4194 35.2821L44.5044 35.4872C44.6866 35.896 44.9376 36.2881 45.2388 36.6278L45.3931 36.7928L45.3999 36.7987L45.2163 36.9677L45.3999 36.7997C45.48 36.8865 45.5884 36.9845 45.6997 37.0477C45.8155 37.1134 45.8899 37.1176 45.9341 37.1014L45.9448 37.0975L45.9829 37.08C46.0219 37.0553 46.0652 37.0078 46.1333 36.9188C46.2057 36.8242 46.3239 36.6533 46.5034 36.5565C46.7951 36.3892 47.2146 36.3757 47.5103 36.6161L47.5112 36.6151C47.5144 36.6174 47.5169 36.6206 47.52 36.6229C47.5222 36.6247 47.5247 36.626 47.5269 36.6278H47.5259C47.5694 36.6613 47.6048 36.6983 47.6353 36.7352C47.6929 36.6931 47.7515 36.6569 47.8052 36.6278C47.9563 36.5459 48.1154 36.4862 48.2241 36.451C48.506 36.3527 48.8099 36.3291 49.1108 36.3749H49.1118L49.1274 36.3768H49.1265C49.2618 36.3916 49.413 36.4317 49.5444 36.5135C49.6847 36.601 49.81 36.742 49.8481 36.9442L49.8608 37.0809C49.859 37.2111 49.8179 37.3229 49.7642 37.4178C49.7018 37.528 49.6059 37.6386 49.5542 37.705L49.5474 37.7137L49.5464 37.7128C49.4933 37.7754 49.4738 37.8459 49.4556 37.9686C49.4392 38.0792 49.4237 38.2673 49.3325 38.4432L49.3315 38.4423C49.2114 38.6952 48.9883 38.8761 48.8091 39.0057L48.8022 39.0106C48.544 39.1848 48.2659 39.2803 47.9829 39.3485L47.9751 39.3505L47.9673 39.3514C47.8676 39.3689 47.703 39.4067 47.562 39.4237C47.4118 39.4418 47.2334 39.446 47.0581 39.3846L47.0532 39.3827C46.8574 39.31 46.7084 39.1717 46.6069 39.0858C46.4926 38.989 46.4173 38.9371 46.3286 38.9188L46.3208 38.9169C46.1439 38.8743 45.9487 38.9259 45.7622 39.0507C45.5822 39.1869 45.4383 39.3512 45.2495 39.5389C45.0692 39.7183 44.8567 39.9075 44.5767 40.0243L44.5776 40.0253C44.2715 40.1594 43.9493 40.1539 43.6733 40.1317C43.6002 40.1258 43.5223 40.1146 43.4604 40.1073C43.3938 40.0994 43.3364 40.0946 43.2847 40.0946C43.1853 40.0947 43.124 40.1135 43.0737 40.1571L43.0562 40.1727L43.0356 40.1844C42.8802 40.2744 42.6874 40.2459 42.5659 40.121C42.4347 39.9859 42.4279 39.793 42.5044 39.6268L42.5132 39.6063L42.5259 39.5887C42.7652 39.2429 43.0933 39.1561 43.3853 39.1259C43.515 39.1124 43.6815 39.1078 43.7925 39.0995C43.9182 39.09 44.0269 39.0735 44.1255 39.0409C44.3246 38.968 44.4819 38.809 44.6782 38.5868C44.8604 38.3806 45.0844 38.1098 45.394 37.954L45.3979 37.951C45.2559 37.8979 45.1244 37.8263 45.0054 37.743C44.7435 37.5597 44.5257 37.3186 44.354 37.1093L44.1997 36.9178C43.8539 36.4664 43.596 35.9709 43.394 35.4647V35.4637C43.2537 35.1247 43.1588 34.7833 43.1108 34.4188L43.0757 34.205C43.0397 33.9751 43.0089 33.6972 43.0679 33.4432L43.1147 33.287C43.2495 32.9496 43.553 32.7913 43.7603 32.6581L43.7671 32.6532L44.1978 32.3876C44.3426 32.2962 44.4914 32.2024 44.6401 32.1141C44.9415 31.9205 45.2429 31.732 45.5425 31.5448C45.8447 31.3559 46.1453 31.1676 46.4458 30.9745C46.711 30.7971 47.0224 30.5509 47.3999 30.4296L47.4097 30.4257L47.6685 30.3641C47.7657 30.3476 47.8717 30.3395 47.98 30.3544H47.979C48.0833 30.3578 48.1774 30.3752 48.2495 30.3895C48.3371 30.407 48.3902 30.4169 48.439 30.4169C48.5259 30.4168 48.6232 30.3841 48.7593 30.3212C48.8794 30.2655 49.0497 30.1749 49.2183 30.1249L49.228 30.1219L49.2388 30.12C49.6095 30.0434 49.8667 30.1218 50.1362 30.1825C50.1767 30.1887 50.213 30.1803 50.27 30.1337C50.3432 30.0737 50.3929 30.0032 50.4917 29.8944L50.5034 29.8827C50.6543 29.7373 50.8428 29.5516 51.0933 29.4442L51.1108 29.4384C51.2971 29.3742 51.4904 29.3547 51.6401 29.3348C51.7983 29.3138 51.9246 29.2898 52.0415 29.2343C52.1519 29.1759 52.2598 29.1077 52.3774 29.0321C52.4933 28.9576 52.6201 28.8761 52.7544 28.8055H52.7554L52.8794 28.746C53.1274 28.6359 53.3809 28.5792 53.6479 28.579L53.7827 28.5829L53.7876 28.5839L54.0093 28.6102C54.0848 28.6197 54.1573 28.6277 54.2261 28.6288C54.373 28.6312 54.4495 28.6032 54.4878 28.5663L54.5054 28.5389C54.5117 28.5237 54.5177 28.5004 54.5229 28.4657C54.5281 28.4315 54.5315 28.3941 54.5347 28.3475C54.5376 28.3044 54.5405 28.2488 54.5474 28.1962L54.5483 28.1923L54.6157 27.7391L54.6167 27.7313L54.6177 27.7245C54.6869 27.391 54.7812 27.0487 54.9253 26.7245C55.0473 26.4429 55.2359 26.1416 55.5825 25.9745L55.5933 25.9696L55.604 25.9657L55.8335 25.8915C55.9058 25.8701 55.9672 25.8524 56.0259 25.8319C56.1384 25.7926 56.2241 25.748 56.3003 25.6747L56.311 25.6649L56.6343 25.3729C56.7496 25.2708 56.8794 25.1647 57.022 25.0809C57.1658 24.9965 57.331 24.9292 57.5171 24.9159ZM48.521 37.3563C48.3993 37.4082 48.295 37.4759 48.187 37.58L48.1743 37.5927L48.1597 37.6034C48.1421 37.6161 48.1231 37.6303 48.1001 37.6483C48.0782 37.6655 48.0523 37.6867 48.0249 37.7069C47.9973 37.7272 47.9657 37.7493 47.9302 37.7704L47.812 37.828C47.4325 37.9741 47.1203 37.7386 46.9751 37.5145L46.9731 37.5106C46.9611 37.4913 46.9512 37.4712 46.9419 37.453C46.91 37.4903 46.8827 37.5268 46.8452 37.5751L46.8394 37.5839L46.8315 37.5917C46.7483 37.6819 46.6523 37.7667 46.5435 37.8387C46.6116 37.8532 46.6781 37.8711 46.7407 37.8934L46.981 37.995L46.9946 38.0018L47.0073 38.0096C47.0928 38.0646 47.1681 38.1318 47.2271 38.1835C47.2875 38.2365 47.3335 38.2759 47.3794 38.3065C47.3854 38.3088 47.409 38.3161 47.4614 38.3153C47.5202 38.3144 47.5943 38.3034 47.6772 38.2841C47.8428 38.2453 48.0125 38.1818 48.1245 38.1385L48.1333 38.1346L48.2212 38.1005C48.299 38.0649 48.3471 38.0275 48.3784 37.9901C48.4177 37.9431 48.449 37.8733 48.4575 37.7499L48.4585 37.746L48.4927 37.5184C48.5048 37.4635 48.5211 37.4076 48.5405 37.3514C48.5341 37.3534 48.5274 37.3543 48.521 37.3563Z" fill="white" stroke="white" stroke-width="0.5"/>
<path d="M45.2222 9.24805C45.332 9.22053 45.4646 9.22311 45.5845 9.28613C45.6818 9.33734 45.7542 9.42033 45.7935 9.52441L45.8218 9.63477V9.63574L45.853 9.78516C45.8952 9.93293 45.966 10.0795 46.0454 10.2588C46.1443 10.4823 46.2546 10.755 46.2261 11.0723L46.2251 11.0732C46.212 11.2117 46.1708 11.3594 46.1509 11.4512C46.1282 11.5556 46.1184 11.6369 46.1323 11.7188C46.1577 11.8506 46.2203 11.9686 46.3071 12.0566L46.4028 12.1348L46.4077 12.1377L46.4702 12.1758C46.6202 12.2554 46.7888 12.2729 46.9429 12.2324C46.9936 12.2191 47.0437 12.202 47.1021 12.1816C47.1579 12.1622 47.2241 12.139 47.2925 12.1201C47.3998 12.0906 47.5201 12.0701 47.6567 12.0801L47.7993 12.1006L47.8081 12.1025L47.7485 12.3291L47.8081 12.1035C48.1075 12.1823 48.3466 12.3633 48.5405 12.5088L48.6265 12.5654C48.6432 12.5753 48.6627 12.5823 48.6812 12.5918L48.6821 12.584L48.7993 12.6162C48.9368 12.489 49.1284 12.4515 49.2847 12.4824C49.3831 12.5019 49.487 12.5515 49.5649 12.6426C49.6017 12.6856 49.6277 12.7347 49.646 12.7871C49.6962 12.7656 49.745 12.742 49.7808 12.7246C49.9534 12.6206 50.1421 12.5082 50.355 12.417L50.6782 12.293C51.0059 12.1815 51.3435 12.1085 51.6812 12.0742L51.6929 12.0732C52.089 12.0508 52.5578 12.0888 52.8833 12.5088H52.8843C53.0348 12.6902 53.1453 12.8884 53.2437 13.0596C53.3457 13.2372 53.4355 13.3875 53.5503 13.5166C53.7849 13.7627 54.0351 13.9828 54.3228 14.1611H54.3218C54.353 14.1778 54.3904 14.1991 54.4204 14.2168C54.458 14.239 54.4977 14.2618 54.5366 14.2832C54.5408 14.2706 54.545 14.258 54.5493 14.2461C54.5564 14.2266 54.5662 14.2027 54.5776 14.1797C54.5847 14.1656 54.5991 14.1398 54.6216 14.1123H54.6206C54.7926 13.8912 55.038 13.8514 55.2358 13.8652C55.4258 13.8786 55.619 13.944 55.7446 13.9844H55.7437C56.138 14.0967 56.5296 14.2521 56.896 14.4287H56.895C57.0908 14.5126 57.3051 14.6042 57.4985 14.7207C57.6036 14.784 57.6632 14.8234 57.7241 14.8447C57.7678 14.8599 57.7871 14.8566 57.811 14.8438C57.9584 14.7558 58.1363 14.6928 58.3228 14.7197C58.5022 14.7457 58.6477 14.8485 58.7534 15.0029L58.7964 15.0713L58.8032 15.084L58.8091 15.0977C58.8385 15.1687 58.8633 15.2667 58.8774 15.3154C58.8864 15.3462 58.8936 15.3697 58.9009 15.3877C58.9023 15.3911 58.9037 15.394 58.9048 15.3965L58.9058 15.3975C58.9178 15.4007 58.9338 15.4041 58.9595 15.4082C58.9808 15.4116 59.0153 15.4158 59.0474 15.4219C59.1713 15.4415 59.2777 15.4446 59.4312 15.46C59.5744 15.4744 59.7364 15.4986 59.9028 15.5654L60.0239 15.623C60.2909 15.7698 60.4614 16.0027 60.603 16.1738L60.6665 16.2422C60.6756 16.2507 60.6819 16.2558 60.686 16.2588C60.6903 16.258 60.6983 16.257 60.7095 16.2529L60.7183 16.25L60.728 16.2471C60.7722 16.2348 60.8138 16.2134 60.8843 16.1738C60.9446 16.1399 61.0316 16.091 61.1362 16.0596V16.0586C61.4293 15.9558 61.8464 15.9815 62.0962 16.2861L62.144 16.3506L62.1479 16.3564L62.1987 16.4551C62.295 16.6835 62.2363 16.8976 62.1831 17.0488C62.1476 17.1499 62.1233 17.2027 62.0991 17.2812C62.0888 17.3149 62.0819 17.3445 62.0776 17.3711L62.0728 17.4434L62.0737 17.4443L62.103 17.6846C62.116 17.7623 62.1305 17.8435 62.144 17.9443C62.1687 18.1288 62.1786 18.3365 62.1079 18.5684L62.1069 18.5674C62.0022 18.92 61.7935 19.2223 61.5083 19.4473L61.5073 19.4463C61.4227 19.524 61.3315 19.5822 61.2388 19.6299L61.3081 19.7646C61.3983 19.7861 61.4905 19.8058 61.5854 19.8262L61.5845 19.8271C61.7295 19.8543 61.8365 19.9435 61.894 20.0605C61.9483 20.1709 61.9535 20.2918 61.936 20.3936C61.9154 20.5183 61.8694 20.6219 61.8091 20.709L61.8726 20.8311L61.7358 20.7979C61.6613 20.8761 61.5739 20.9379 61.48 20.9824C61.2759 21.079 61.0407 21.1079 60.854 21.1191L60.853 21.1182C60.7262 21.1295 60.6727 21.1397 60.6392 21.1553C60.628 21.1605 60.6211 21.1655 60.6147 21.1729C60.6073 21.1814 60.5949 21.2002 60.5806 21.2383L60.5796 21.2402C60.5788 21.2423 60.5784 21.2449 60.5776 21.2471C60.665 21.2758 60.7475 21.3199 60.8228 21.376H60.8237C61.262 21.6778 61.2456 22.1937 61.2456 22.4883C61.2456 22.5673 61.2518 22.6103 61.2612 22.6387C61.2681 22.6593 61.2788 22.6788 61.3091 22.7031C61.3576 22.7404 61.4328 22.7959 61.4927 22.8701C61.5448 22.9347 61.5829 23.0091 61.606 23.0967L61.6235 23.1895L61.6245 23.1973L61.6255 23.2041C61.6437 23.468 61.5025 23.6645 61.4019 23.792C61.3426 23.8671 61.3033 23.9109 61.2603 23.9697C61.2242 24.0191 61.2023 24.057 61.1909 24.0889C61.1628 24.21 61.1467 24.3443 61.1274 24.498C61.1084 24.65 61.0868 24.8209 61.0444 24.9844C60.9563 25.324 60.7704 25.6627 60.3218 25.8301L60.3149 25.832C60.0821 25.9112 59.8339 25.9216 59.6128 25.916C59.5014 25.9132 59.3901 25.9054 59.2886 25.8994C59.1847 25.8933 59.0903 25.8887 59.0034 25.8887C58.5493 25.8887 58.1134 25.8661 57.6528 25.7998V25.8008C57.6518 25.8007 57.6509 25.7999 57.6499 25.7998H57.647V25.7988C57.5537 25.7863 57.4493 25.7431 57.3833 25.6416C57.3171 25.5395 57.3204 25.4269 57.3452 25.3447C57.3932 25.1865 57.5334 25.065 57.6958 25.0127L57.7183 25.0049L57.7407 25.002C58.4325 24.913 59.104 24.9355 59.7642 24.9355C59.9101 24.9355 59.989 24.9188 60.0376 24.8936C60.074 24.8746 60.1155 24.8389 60.1548 24.7344C60.2105 24.5503 60.2319 24.3431 60.2544 24.1045L60.2554 24.0928L60.2573 24.082C60.2988 23.8619 60.3513 23.5329 60.5552 23.2803L60.5649 23.2686L60.5757 23.2578C60.5763 23.2572 60.5768 23.2557 60.5776 23.2549C60.5734 23.2501 60.5691 23.243 60.563 23.2354V23.2363C60.3662 23.0149 60.3416 22.7103 60.3218 22.5381V22.5371C60.3088 22.4522 60.3091 22.3665 60.3091 22.3047C60.3091 22.2446 60.306 22.2021 60.3022 22.167C60.2119 22.1935 60.1181 22.1987 60.0308 22.1777C59.8785 22.141 59.7286 22.029 59.6792 21.8389L59.6782 21.835C59.6735 21.8155 59.67 21.7955 59.6655 21.7754L59.4692 21.7129L59.6265 21.5605C59.5825 21.2264 59.6106 20.8474 59.8569 20.5234C59.9129 20.4486 59.9797 20.383 60.0542 20.3271C60.024 20.3086 59.9945 20.2883 59.9663 20.2656L59.9565 20.2588L59.9575 20.2578C59.7552 20.079 59.6846 19.8365 59.7183 19.6084C59.7509 19.3882 59.878 19.1841 60.062 19.0498C60.1628 18.9709 60.2729 18.9289 60.3647 18.8994C60.4791 18.8627 60.5289 18.8541 60.6196 18.8213L60.6284 18.8184L60.7456 18.7734C60.8569 18.7219 60.9492 18.6511 61.022 18.5576L61.0249 18.5547L61.0972 18.4502C61.2356 18.2091 61.1716 17.9785 61.1069 17.5625L61.105 17.5527C61.0859 17.3867 61.0954 17.2333 61.1294 17.0781C61.0849 17.098 61.0378 17.1203 60.9917 17.1377C60.819 17.203 60.6131 17.2449 60.3647 17.1592V17.1602C60.1515 17.0969 60.0122 16.9622 59.9097 16.8418C59.861 16.7846 59.812 16.7192 59.7739 16.6709L59.6577 16.5391C59.5133 16.4 59.3338 16.3953 59.0073 16.3711H59.0054C58.7203 16.3481 58.3638 16.2757 58.1177 15.9795L58.1118 15.9727C58.0741 15.9241 58.0377 15.8644 58.0044 15.7988L57.9956 15.8018L57.9849 15.8047C57.7135 15.8663 57.4658 15.7848 57.271 15.6924C57.1726 15.6457 57.0784 15.5907 56.9956 15.543L56.7681 15.4189C56.3719 15.228 55.9773 15.0587 55.562 14.9111L55.5562 14.9092C55.5219 14.896 55.4857 14.8799 55.4546 14.8662C55.4216 14.8517 55.3917 14.8388 55.3628 14.8271C55.3525 14.823 55.3425 14.8197 55.3335 14.8164C55.296 14.9057 55.2303 15.0398 55.0972 15.1338L55.0161 15.1816C54.7827 15.2942 54.5441 15.271 54.3501 15.2119C54.1582 15.1534 53.9842 15.0525 53.8589 14.9756V14.9746C53.1971 14.5861 52.6521 14.0385 52.2729 13.376L52.2681 13.3662C52.243 13.3178 52.2185 13.2654 52.1987 13.2236C52.1775 13.1787 52.1595 13.1407 52.1401 13.1074C52.1008 13.04 52.0702 13.0139 52.0454 13.002L52.0337 12.9961L52.1548 12.7764L52.0337 12.9951C52.0128 12.9837 51.9705 12.9734 51.8901 12.9756C51.8076 12.9779 51.7277 12.9905 51.6245 13.0029C51.2124 13.0633 50.8225 13.2016 50.4751 13.418L50.4761 13.4189C50.349 13.5006 50.1824 13.6123 50.0005 13.6875C49.8361 13.7554 49.6443 13.8 49.4341 13.7705L49.3423 13.7529C49.215 13.7222 49.0845 13.66 48.9722 13.5703C48.8717 13.5838 48.7722 13.5827 48.6763 13.5684C48.3712 13.5226 48.0793 13.3596 47.856 13.2021V13.2031C47.6984 13.1019 47.6378 13.0555 47.5601 13.0498C47.5228 13.0577 47.4769 13.0743 47.4038 13.1045C47.3322 13.1341 47.2237 13.1813 47.1079 13.1973L47.1069 13.1963C46.7813 13.2442 46.4453 13.2216 46.1294 13.0947V13.0938C45.4718 12.8382 45.0478 12.1786 45.1011 11.4844V11.4756L45.103 11.4668C45.1159 11.3798 45.1342 11.2975 45.1509 11.2266C45.1683 11.1524 45.1834 11.0916 45.1929 11.0322C45.2107 10.9204 45.2073 10.833 45.1665 10.7412L45.1626 10.7324C45.1098 10.6001 45.0481 10.489 44.9751 10.333C44.9076 10.1888 44.8398 10.0222 44.812 9.83496L44.811 9.83301C44.7661 9.50775 45.0098 9.30146 45.2222 9.24805Z" fill="white" stroke="white" stroke-width="0.5"/>
<path d="M39.395 1.7793C39.7075 1.71382 40.0531 1.75843 40.3423 1.91699L40.4722 1.99512C40.7611 2.1895 40.947 2.45969 41.0864 2.72852C41.1658 2.88166 41.2337 3.04025 41.2954 3.1875L41.4771 3.60156L41.479 3.60352L41.5298 3.69922C41.619 3.85058 41.7307 3.96811 41.8745 4.08105L42.064 4.2168L42.0649 4.21777L42.1587 4.28516C42.3444 4.42836 42.5154 4.62243 42.5776 4.89062L42.5991 5.03027L42.6001 5.04199L42.5952 5.2041C42.5581 5.56811 42.3544 5.83643 42.1011 6.02734C41.9793 6.11913 41.8416 6.19178 41.7026 6.25586C41.8592 6.7053 41.928 7.18194 41.9019 7.66016C42.2159 7.63006 42.5457 7.64061 42.8579 7.75L42.98 7.80273C43.0179 7.82219 43.0531 7.84207 43.0845 7.86133C43.1605 7.908 43.1926 7.9316 43.2524 7.9668C43.3505 8.02443 43.3948 8.03104 43.4302 8.02344C43.5415 7.99404 43.6352 7.95787 43.7593 7.91602C43.8756 7.87678 44.008 7.83709 44.1587 7.82324L44.2544 7.81738C44.4825 7.81192 44.7424 7.87321 44.9409 8.06445L45.0132 8.14551C45.0777 8.23081 45.1201 8.32685 45.144 8.41895L45.1616 8.53223C45.1644 8.56598 45.1645 8.57905 45.1665 8.59863C45.1794 8.60743 45.1978 8.62124 45.23 8.64258C45.2769 8.67368 45.3522 8.72514 45.4126 8.80273L45.4712 8.88574C45.5075 8.94176 45.5384 8.99987 45.562 9.06055L45.5913 9.15332L45.5933 9.15918L45.6108 9.25977C45.6383 9.4891 45.5748 9.69106 45.4819 9.87012L45.478 9.87891L45.4722 9.88672C45.4025 9.9987 45.2953 10.0719 45.1724 10.0918C45.0545 10.1109 44.9399 10.0786 44.8511 10.0166C44.6617 9.88423 44.594 9.62825 44.7231 9.38574C44.7122 9.37833 44.698 9.36807 44.6782 9.35645C44.6458 9.3374 44.5855 9.30413 44.5366 9.27051L44.5288 9.26562L44.522 9.25977C44.3428 9.11578 44.2484 8.93694 44.2134 8.72266C44.2074 8.72377 44.2009 8.72506 44.1938 8.72656L44.1929 8.72559C44.1242 8.7427 44.0568 8.76951 43.9731 8.80176C43.8917 8.83317 43.7929 8.87145 43.6851 8.89746L43.6704 8.90137L43.6558 8.90234C43.4582 8.92612 43.2352 8.93002 43.0044 8.84668L42.9937 8.84277C42.8961 8.80245 42.8079 8.7496 42.7378 8.70801C42.6658 8.66529 42.6095 8.63344 42.5532 8.60938C42.3001 8.53154 42.0321 8.56561 41.7241 8.62793L41.6772 8.80566L41.5337 8.66797C41.5103 8.67302 41.4863 8.67847 41.4624 8.68359L41.4614 8.68262C41.1079 8.78526 40.8129 8.47354 40.8423 8.14746L40.853 8.08008C40.8573 8.06064 40.8599 8.04091 40.8638 8.02148L40.7212 7.88477L40.895 7.8457C40.9577 7.41098 40.9268 6.982 40.7935 6.56641L40.7017 6.59375L40.7515 6.44727C40.7155 6.35032 40.6761 6.25337 40.6284 6.1582L40.5903 6.05859C40.5621 5.95581 40.5648 5.84448 40.6011 5.74316C40.652 5.60128 40.7691 5.47846 40.9438 5.43457L41.1313 5.38477C41.138 5.38293 41.1443 5.37979 41.1509 5.37793L41.2046 5.22559L41.2661 5.34277C41.279 5.33842 41.2924 5.33569 41.3052 5.33105C41.4162 5.29063 41.4967 5.24596 41.5503 5.19434L41.603 5.12598C41.6152 5.10406 41.6223 5.08376 41.6245 5.06836C41.6263 5.05528 41.6245 5.04864 41.6235 5.0459C41.6228 5.04395 41.62 5.03644 41.6069 5.02539L41.6011 5.02051L41.5952 5.01465C41.5497 4.97079 41.4875 4.92913 41.3989 4.87402C41.318 4.82368 41.211 4.75959 41.1167 4.68164L41.1089 4.67578L41.1021 4.66895C40.9291 4.50211 40.7739 4.305 40.6685 4.07617V4.0752C40.552 3.85772 40.4646 3.61205 40.3843 3.41602C40.2977 3.20467 40.2107 3.02984 40.0864 2.8916L40.0171 2.82812C39.9382 2.76742 39.8359 2.71622 39.7427 2.69824C39.718 2.6935 39.6966 2.69227 39.6782 2.69238L39.688 2.71094H39.603C39.5979 2.71406 39.5919 2.71671 39.5864 2.72168L39.5503 2.77051C39.4507 2.96213 39.2574 3.03119 39.0972 3.02637C38.9417 3.02164 38.7631 2.9468 38.6655 2.78223L38.6616 2.77539C38.6445 2.74419 38.6157 2.71642 38.5415 2.71094H38.4995C38.4779 2.71168 38.4532 2.71172 38.4253 2.71582C38.2625 2.73981 38.0787 2.81772 37.9302 2.88379L37.9292 2.88281C37.5595 3.08038 37.1202 3.30017 36.603 3.2207L36.4976 3.20117C36.3787 3.17418 36.2559 3.1235 36.1548 3.08203C36.0447 3.03691 35.9535 2.99945 35.8706 2.97754C35.7873 2.95558 35.7448 2.95873 35.7251 2.96484C35.7182 2.96702 35.6927 2.97415 35.6606 3.04199L35.6587 3.04492C35.5118 3.3459 35.3863 3.67362 35.0708 3.94043L34.9233 4.05078L34.9165 4.05469C34.5635 4.27341 34.1272 4.40009 33.6821 4.34961V4.34863C33.4166 4.32084 33.1807 4.193 33.0093 4.11035C32.8193 4.01876 32.6868 3.96962 32.5522 3.98242C32.3954 4.00087 32.2399 4.04603 32.0747 4.10449C31.9232 4.15812 31.7263 4.238 31.5581 4.29297C31.2875 4.38137 30.9886 4.44348 30.6626 4.37891C30.2019 4.7865 29.9455 5.33915 29.8052 5.96289C29.6471 6.66554 29.6411 7.43211 29.6411 8.13672C29.6411 8.30566 29.6374 8.62781 29.5425 8.89258C29.4942 9.02711 29.4123 9.17677 29.2671 9.27539C29.1126 9.3803 28.9251 9.40117 28.7251 9.34961V9.35059C28.3431 9.25446 28.1832 8.95697 28.105 8.69336C28.0665 8.56338 28.0433 8.42735 28.0239 8.31152C28.0034 8.1888 27.9874 8.09176 27.9644 8.01172L27.9624 8.00488C27.8773 7.67674 27.7404 7.38421 27.5034 7.2207L27.4956 7.21484C27.3971 7.14188 27.3223 7.12792 27.2476 7.13379C27.1557 7.14102 27.051 7.17867 26.8901 7.24512L26.8872 7.24609C26.649 7.34178 26.254 7.50648 25.8745 7.29297C25.8697 7.29835 25.8651 7.30414 25.8599 7.30957L25.8608 7.31055C25.8589 7.3127 25.856 7.31425 25.854 7.31641C25.8519 7.31853 25.8503 7.32211 25.8481 7.32422L25.8472 7.32324C25.6823 7.50254 25.4486 7.6776 25.188 7.73145C25.0497 7.75993 24.8983 7.75561 24.7515 7.69238C24.6041 7.62892 24.4817 7.51459 24.3872 7.36035L24.3833 7.35352L24.3784 7.3457C24.3002 7.19482 24.2779 7.01494 24.2593 6.90918C24.2378 6.78787 24.2175 6.72444 24.187 6.68262C24.1587 6.65568 24.1098 6.63417 24.0347 6.63574C23.9531 6.63756 23.8748 6.6665 23.8296 6.69922L23.8218 6.7041C23.7253 6.76847 23.6593 6.85707 23.5923 6.98145C23.5573 7.04636 23.5276 7.11097 23.4888 7.18945C23.4517 7.26441 23.4092 7.34781 23.3569 7.42969L23.3491 7.44141L23.3403 7.45215C23.1527 7.68464 22.7821 7.8806 22.4272 7.69531L22.3569 7.65332C22.1596 7.52017 22.1088 7.32583 22.0815 7.20312C22.051 7.06583 22.0436 7.02033 22.0142 6.98145C22.0073 6.97591 21.9875 6.96396 21.9536 6.96191C21.9157 6.9597 21.8941 6.97204 21.8872 6.97852L21.8794 6.98633L21.7134 6.79883L21.8784 6.98633C21.6233 7.2114 21.3117 7.12697 21.1431 6.95996C21.0586 6.87621 20.9936 6.75889 20.9829 6.62402C20.9718 6.48355 21.0223 6.34477 21.1333 6.23535H21.1323L21.1372 6.23047H21.1382C21.4061 5.96168 21.7797 5.87784 22.1157 5.93066C22.3648 5.96987 22.6103 6.08726 22.7935 6.27734C22.9386 6.08966 23.1198 5.91316 23.3569 5.79004L23.5034 5.72363C24.0479 5.50982 24.8015 5.658 25.1128 6.24023L25.1694 6.3623L25.1733 6.37109H25.1724C25.1873 6.41424 25.1965 6.45868 25.2075 6.50098C25.2199 6.48472 25.2363 6.4647 25.2554 6.44629L25.3325 6.37891C25.5188 6.23074 25.7801 6.12661 26.064 6.2373H26.0649C26.0673 6.23806 26.0694 6.23944 26.0718 6.24023C26.0765 6.24215 26.0817 6.24308 26.0864 6.24512H26.0854C26.1869 6.28249 26.2727 6.34687 26.3071 6.37012C26.3171 6.37684 26.325 6.38275 26.3315 6.38672C26.3517 6.37823 26.382 6.36821 26.4214 6.34766C26.4744 6.31996 26.5592 6.27174 26.6313 6.24316C27.3713 5.90448 28.0706 6.22348 28.5044 6.75977L28.5874 6.87012L28.5913 6.87598L28.6274 6.93457C28.721 5.68521 29.0911 4.31004 30.1997 3.4502H30.2007L30.2622 3.40625C30.3273 3.36561 30.4018 3.33433 30.4849 3.32227C30.5965 3.30613 30.705 3.32869 30.8032 3.38281H30.8042C30.8737 3.41882 30.9663 3.42512 31.1021 3.39355C31.2438 3.36056 31.3793 3.30073 31.5425 3.24023L31.5474 3.23828L31.7847 3.15625C32.0351 3.0714 32.3231 2.98731 32.6138 2.9873H32.6216L32.6284 2.98828C32.845 3.00134 33.0307 3.06013 33.1958 3.12793C33.2772 3.16138 33.3563 3.19813 33.4302 3.23242C33.5042 3.26679 33.574 3.29863 33.645 3.32812C33.8546 3.40438 34.0873 3.37658 34.2993 3.25879C34.3863 3.20576 34.459 3.12521 34.5317 3.01172C34.6136 2.88397 34.6638 2.77328 34.7554 2.61426C34.8366 2.47333 34.9406 2.31556 35.0933 2.19531C35.2533 2.0693 35.4528 1.99512 35.7026 1.99512C35.917 1.99512 36.1088 2.05729 36.269 2.11523C36.3974 2.16164 36.5023 2.20372 36.6069 2.2334L36.7124 2.25879L36.7173 2.25977L36.8149 2.27051C36.9144 2.27125 37.0205 2.24279 37.144 2.19043C37.2265 2.15548 37.3094 2.11326 37.4009 2.06641C37.4885 2.02157 37.5857 1.97237 37.6841 1.93066V1.92969C37.9642 1.80694 38.3173 1.73679 38.6489 1.77832C38.7888 1.79586 38.9286 1.83618 39.0581 1.90137C39.1644 1.84417 39.2788 1.80366 39.395 1.7793Z" fill="white" stroke="white" stroke-width="0.5"/>
<path d="M10.0039 4.05823C10.6371 4.0572 11.276 4.07744 11.9004 4.10999H11.9033L12.5459 4.15979C13.8302 4.27449 15.1011 4.4886 16.3486 4.81213L16.9707 4.98303L16.9775 4.98499L17.2275 5.06604C17.4867 5.15631 17.7643 5.2871 17.9746 5.57092H17.9736C18.0258 5.63585 18.0763 5.71578 18.1064 5.76038C18.1462 5.81917 18.173 5.84963 18.1953 5.86682L18.2207 5.87952C18.2552 5.89133 18.3185 5.89732 18.4336 5.88147H18.4355L18.707 5.85803C18.9156 5.85193 19.1333 5.88176 19.3418 5.99377C19.4137 5.79966 19.6079 5.71745 19.748 5.70276C19.8933 5.68762 20.1039 5.72964 20.2236 5.90002L20.2979 5.87952C20.3014 5.87752 20.3058 5.87678 20.3096 5.87463C20.3811 5.83352 20.4477 5.78603 20.5361 5.72815C20.6096 5.68007 20.7148 5.6136 20.8213 5.58557L20.833 5.58264L20.8457 5.58069L20.9883 5.56995C21.1339 5.57152 21.2844 5.61253 21.418 5.71545L21.417 5.71643C21.5294 5.79474 21.5962 5.89968 21.6445 5.9928L21.6562 6.02405C21.8269 6.05962 22.0494 6.18809 22.0742 6.45178L22.0762 6.47522L22.0742 6.49866C22.0565 6.6853 21.9646 6.84758 21.8154 6.9469C21.667 7.04562 21.4828 7.06788 21.3076 7.01721L21.2979 7.01428L21.2871 7.01038C21.1372 6.9525 21.0088 6.86148 20.9111 6.73596L20.8975 6.71838L20.8887 6.70276L20.7861 6.77795C20.6709 6.84458 20.486 6.94104 20.2803 6.94104C20.2059 6.94102 20.1332 6.93217 20.0625 6.91858C19.9549 7.06249 19.8171 7.18634 19.6436 7.28088L19.5781 7.39709L19.5205 7.34143C19.3219 7.4185 19.1114 7.36786 18.9727 7.24377C18.8714 7.15315 18.8076 7.02218 18.8086 6.87952C18.7815 6.8756 18.7727 6.87561 18.7812 6.87561C18.7066 6.87561 18.6348 6.88515 18.5352 6.89417C18.4462 6.90221 18.3392 6.9073 18.2266 6.89514V6.89709C17.8161 6.86881 17.533 6.63826 17.3281 6.36682L17.3213 6.35803V6.35706C17.2372 6.23541 17.2001 6.16956 17.1533 6.12268L17.1016 6.08069C17.0703 6.06058 17.0193 6.04124 16.9385 6.02112C16.8994 6.01139 16.8593 6.00363 16.8145 5.99377C16.7716 5.98437 16.7239 5.97329 16.6777 5.96057L16.6758 5.95959C16.3047 5.85437 15.9101 5.76984 15.5059 5.68323H15.5039C14.0409 5.36266 12.557 5.17025 11.0742 5.12756H11.0732C10.4309 5.10621 9.77278 5.10579 9.11816 5.16858C8.8797 5.20006 8.63317 5.24623 8.41309 5.32581C8.19146 5.40594 8.01423 5.51486 7.89648 5.66077L7.89258 5.66467C7.83656 5.73115 7.78753 5.81173 7.73535 5.90881C7.68927 5.99456 7.62661 6.12226 7.56934 6.22327C7.44415 6.44404 7.26776 6.68577 6.94336 6.81409L6.94434 6.81506C6.56349 6.96806 6.2176 6.80381 5.98926 6.70374C5.98477 6.70177 5.98044 6.7004 5.97656 6.69885C5.97006 6.71898 5.96164 6.74515 5.95508 6.77991L5.9541 6.78479C5.90845 7.00519 5.92891 7.26786 5.99219 7.54749C6.02357 7.68611 6.06506 7.82441 6.11035 7.95862L6.25391 8.34436L6.25586 8.34924L6.34082 8.54944C6.50582 8.90644 6.73563 9.23693 7.00391 9.53577L7.14453 9.50549L7.10254 9.64319C7.15021 9.69314 7.19833 9.74271 7.24805 9.79065L7.29785 9.84729C7.40123 9.98509 7.41224 10.1593 7.375 10.2955C7.34249 10.414 7.26435 10.5369 7.13965 10.611C7.14914 10.6316 7.15811 10.6543 7.16992 10.6764C7.18059 10.6964 7.19125 10.7154 7.20117 10.733C7.20814 10.7454 7.21637 10.7606 7.22363 10.774H7.22461C7.34698 10.9865 7.45357 11.2378 7.48047 11.5231H7.47949C7.52979 11.9928 7.40206 12.4729 6.98438 12.7975L6.98535 12.7985C6.81295 12.937 6.61173 13.0196 6.38867 13.0465L6.37305 13.0475H6.3584C6.31259 13.0475 6.26769 13.0442 6.23047 13.0406C6.1892 13.0367 6.1619 13.0334 6.12988 13.0309C6.06985 13.0263 6.04894 13.0302 6.0459 13.0309L6.02441 13.0397H6.02051C6.01464 13.0446 6.00574 13.0536 5.99316 13.068C5.97785 13.0855 5.96184 13.1063 5.94336 13.1315C5.92753 13.153 5.90426 13.1855 5.88477 13.2106L5.88086 13.2155C5.54216 13.6291 5.18088 14.0423 4.82324 14.4518L4.82227 14.4508C4.48513 14.8623 4.12724 15.274 3.77148 15.6813L3.76758 15.6862C3.50929 15.9684 3.25395 16.2341 3.03516 16.5133L2.83008 16.7975C2.57101 17.1953 2.52722 17.6235 2.60352 18.0699C2.68066 18.5212 2.87828 18.977 3.08887 19.4156L3.12305 19.4987C3.17966 19.6749 3.16306 19.9121 2.9873 20.0582L2.88574 20.1237C2.7884 20.1706 2.69233 20.1984 2.5957 20.2115L2.53223 20.5836L2.35352 20.2115C2.25135 20.1971 2.15416 20.1676 2.06055 20.1315L2.05078 20.1276L2.04199 20.1237C2.0278 20.1168 2.01386 20.1083 2.00488 20.1031C1.99525 20.0976 1.98328 20.0912 1.97363 20.0856L1.97266 20.0846C1.96521 20.1024 1.95821 20.1213 1.9502 20.1412C1.93854 20.1702 1.92111 20.2103 1.9043 20.2438L1.90527 20.2448C1.59447 20.8869 1.30036 21.5189 0.986328 22.1461C0.965199 22.1965 0.939848 22.2465 0.920898 22.2838C0.896518 22.3318 0.878602 22.369 0.866211 22.403C0.842476 22.4681 0.855819 22.4743 0.856445 22.4752L0.898438 22.5201C0.918311 22.5378 0.944722 22.5581 0.979492 22.5826L1.20996 22.7457L1.21191 22.7467L1.07422 22.9156L1.21191 22.7477C1.35688 22.866 1.49689 22.9792 1.63672 23.0924C1.77529 23.2046 1.91412 23.3173 2.05859 23.4352H2.05957C2.12617 23.4878 2.24948 23.6021 2.36816 23.7047C2.49715 23.8162 2.64377 23.9349 2.78711 24.0299C2.93643 24.1289 3.05537 24.1827 3.13477 24.194C3.16989 24.1989 3.18238 24.1931 3.18262 24.193C3.18317 24.1927 3.18443 24.1921 3.18652 24.1901C3.1896 24.187 3.19612 24.1791 3.2041 24.1637L3.20801 24.1569L3.27246 24.066C3.34476 23.9845 3.43858 23.9337 3.54102 23.9156C3.66971 23.8931 3.79453 23.9253 3.89258 23.9821C3.99076 24.0389 4.08029 24.1305 4.12598 24.2516C4.16213 24.3475 4.16722 24.4534 4.13574 24.5573L4.08887 24.6666L4.08496 24.6725C3.84849 25.043 3.44006 25.2013 3.03125 25.1754V25.1764C2.55645 25.1493 2.17935 24.8278 1.92773 24.6256L1.35352 24.1588C1.16307 24.0022 0.974328 23.8473 0.786133 23.6979L0.78418 23.6959C0.718244 23.6421 0.638545 23.5854 0.544922 23.5172C0.454453 23.4513 0.353596 23.3766 0.258789 23.2955C0.100151 23.1598 -0.0774622 22.977 -0.152344 22.7418L-0.177734 22.6383C-0.224504 22.3677 -0.136051 22.1052 -0.0410156 21.8961C0.00789859 21.7885 0.0636928 21.6848 0.114258 21.5924C0.164784 21.5001 0.208097 21.4219 0.243164 21.3502C0.345644 21.1197 0.45351 20.8951 0.55957 20.6744C0.666144 20.4527 0.771155 20.235 0.870117 20.0123L0.967773 19.7721C1.00424 19.683 1.04818 19.5832 1.10254 19.4879C1.2109 19.2981 1.38169 19.0933 1.66992 19.028L1.69141 19.024C1.73587 19.0179 1.7784 19.0172 1.81836 19.0172C1.58014 18.3897 1.42648 17.7059 1.59375 17.0123C1.69558 16.5622 1.93897 16.1728 2.20801 15.8297C2.46879 15.4972 2.79619 15.1598 3.03418 14.8805L3.03711 14.8776L3.97559 13.7994C4.28875 13.4382 4.60301 13.0762 4.91699 12.7194L4.91797 12.7184L5.1123 12.4899C5.18427 12.4062 5.26215 12.3205 5.3418 12.2496C5.51245 12.0978 5.72898 11.9737 6.01855 11.9664L6.17969 11.9567C6.22532 11.955 6.25444 11.9538 6.2793 11.9498C6.31407 11.9442 6.33819 11.9351 6.37305 11.8971C6.43504 11.8269 6.46233 11.7051 6.42871 11.5592L6.42578 11.5485C6.40087 11.4123 6.33103 11.2915 6.23535 11.11C6.14783 10.9439 6.04107 10.7285 6.04102 10.4674C6.04102 10.3445 6.07035 10.2218 6.12109 10.108C5.66677 9.59551 5.31938 9.006 5.09375 8.3717L5.0918 8.36682C4.9896 8.06026 4.87608 7.67914 4.83105 7.29163C4.78633 6.90638 4.80605 6.48744 4.99512 6.12268L5.05664 6.01917C5.21632 5.78474 5.48193 5.60353 5.80078 5.57776H5.82129C5.97213 5.57776 6.1188 5.6085 6.25098 5.65686L6.37793 5.70959L6.38574 5.71448L6.39453 5.71838C6.41056 5.72766 6.42611 5.73771 6.43945 5.74573C6.4536 5.75422 6.46604 5.76162 6.47754 5.76819L6.52539 5.7926L6.52832 5.79163L6.55957 5.75842C6.5833 5.72681 6.60867 5.68168 6.63672 5.62268C6.66536 5.56239 6.68958 5.50374 6.71973 5.43518C6.74609 5.37522 6.77773 5.30358 6.81641 5.2428C6.97019 4.97406 7.19865 4.73057 7.47852 4.55823L7.69824 4.43518C8.22281 4.17356 8.82781 4.08643 9.37109 4.06702H9.37402L10.0039 4.05823Z" fill="white" stroke="white" stroke-width="0.5"/>
<path d="M3.81055 23.9209H3.85156C3.85347 23.9209 3.87096 23.9211 3.88867 23.9229C3.91336 23.9252 3.94656 23.931 3.98242 23.9482C4.01433 23.9636 4.03661 23.9823 4.04688 23.9912C4.0502 23.9941 4.05258 23.9981 4.05566 24.001C4.04459 23.9925 4.03743 23.9878 4.0625 24.0039C4.07403 24.0113 4.10945 24.0346 4.13965 24.0762C4.1468 24.086 4.1497 24.0981 4.15527 24.1084C4.17077 24.1311 4.18246 24.1546 4.19141 24.1797H4.49316L4.1748 24.4854C4.15655 24.5168 4.13654 24.5449 4.11426 24.5664C4.12698 24.5541 4.14851 24.5232 4.12402 24.5586C4.11585 24.5704 4.09225 24.6051 4.0498 24.6338C4.04276 24.6385 4.03359 24.6396 4.02637 24.6436C4.01477 24.6522 4.0012 24.6648 3.98242 24.6738C3.94655 24.6911 3.91337 24.6978 3.88867 24.7002C3.87098 24.7019 3.85346 24.7012 3.85156 24.7012H3.72852L3.70605 24.7227H3.5498L3.33301 24.9316V24.7012H3.20996L3.33301 24.582V24.5791C3.30904 24.5353 3.29883 24.4952 3.29492 24.4727C3.29237 24.4579 3.29293 24.4432 3.29199 24.4307L3.00781 24.1582H3.37402C3.37865 24.1532 3.38171 24.1464 3.38672 24.1416L3.39453 24.1348C3.41257 24.1049 3.43166 24.0773 3.4541 24.0557L3.52637 23.9854H3.54883L3.81055 23.7334V23.9209ZM3.4834 24.0381C3.48019 24.0408 3.47779 24.0438 3.47656 24.0449C3.477 24.0445 3.48059 24.0414 3.48535 24.0371L3.4834 24.0381Z" fill="white" stroke="white" stroke-width="0.5"/>
<path d="M3.91699 23.8569C4.11558 23.8643 4.31084 23.9417 4.45312 24.0103L4.6084 24.0962C4.65692 24.1244 4.69793 24.148 4.73828 24.1675C4.81338 24.2037 4.85918 24.2096 4.89258 24.2056C4.9315 24.1929 4.97371 24.1713 5.05078 24.1284C5.11916 24.0904 5.22584 24.032 5.35156 24.0122V24.0112C5.35302 24.011 5.35499 24.0115 5.35645 24.0112C5.35844 24.0109 5.3603 24.0096 5.3623 24.0093V24.0103C5.60659 23.9688 5.81399 24.0304 5.98535 24.1069C6.07012 24.1448 6.15279 24.1892 6.22461 24.2271C6.29527 24.2643 6.35835 24.2962 6.4209 24.3228C6.55098 24.3629 6.60675 24.3368 6.84668 24.311H6.84961L7.04102 24.3062C7.10252 24.3097 7.16243 24.3183 7.22168 24.3335C7.27992 24.3485 7.33429 24.3691 7.38672 24.3931L7.54004 24.4751L7.5459 24.479L7.62402 24.5181C7.6437 24.5244 7.65811 24.5249 7.6709 24.5249C7.68994 24.5249 7.71484 24.5231 7.75391 24.5161C7.79938 24.508 7.83337 24.4997 7.90039 24.4868L7.91406 24.4839C7.94921 24.479 7.98596 24.4732 8.02832 24.4663C8.06942 24.4596 8.11557 24.4528 8.16211 24.4468C8.2538 24.435 8.36376 24.4257 8.47461 24.4409L8.62305 24.4722C8.90508 24.551 9.10316 24.7306 9.25098 24.9272L9.32031 25.0259L9.32422 25.0317L9.43359 25.23C9.46747 25.2943 9.49763 25.3498 9.53027 25.397C9.59567 25.4915 9.64275 25.5158 9.68848 25.519H9.69434L9.78223 25.5132C9.86983 25.4926 9.96194 25.4278 10.1016 25.3149C10.1828 25.2492 10.2869 25.1629 10.4004 25.1001C10.5196 25.0342 10.6659 24.9841 10.8379 25.0015L10.8369 25.0024C10.9602 25.0084 11.081 25.0583 11.166 25.1519C11.2501 25.2445 11.2934 25.3742 11.2666 25.5103L11.251 25.5688C11.1758 25.7863 11.0176 25.9168 10.8896 26.0054L10.5117 26.2573C10.4099 26.3185 10.2959 26.3772 10.1738 26.4165L10.1729 26.4146C9.7951 26.5637 9.32011 26.5445 8.9707 26.2368V26.2378C8.82954 26.1153 8.73504 25.9755 8.6582 25.8501C8.57654 25.7168 8.52222 25.6141 8.44238 25.5083L8.44141 25.5073C8.41288 25.4688 8.38964 25.4565 8.37305 25.4507C8.35232 25.4435 8.31995 25.439 8.26562 25.4448C8.2096 25.4508 8.14743 25.4658 8.06641 25.4858L7.80273 25.5405C7.59911 25.5685 7.3976 25.5398 7.20312 25.4595L7.19727 25.4565L7.19043 25.4536C7.14481 25.4316 7.10635 25.4089 7.07617 25.3901C7.04276 25.3693 7.02635 25.3581 7.00684 25.3472C6.97929 25.3318 6.96452 25.3276 6.94043 25.3276C6.93052 25.3277 6.91484 25.3303 6.86523 25.3423C6.82827 25.3512 6.76006 25.3667 6.68555 25.3687L6.68652 25.3706C6.68265 25.3708 6.67865 25.3695 6.6748 25.3696L6.67188 25.3706V25.3696C6.42887 25.3802 6.23249 25.3101 6.06738 25.2349C5.88727 25.1528 5.77283 25.0841 5.61523 25.0366L5.60254 25.0327V25.0317C5.57179 25.0206 5.55547 25.0227 5.5293 25.0308C5.51076 25.0365 5.48865 25.0457 5.45508 25.061C5.42822 25.0733 5.38822 25.0907 5.34766 25.1079L5.34863 25.1089C5.1223 25.218 4.87213 25.2538 4.61719 25.1616V25.1606C4.44544 25.1128 4.29522 25.013 4.18164 24.9253L4.07617 24.8403L4.07129 24.8374C3.93111 24.7191 3.78503 24.6587 3.60547 24.6587C3.48019 24.6586 3.37122 24.5915 3.31641 24.4858C3.26785 24.3921 3.26781 24.2788 3.31641 24.1851L3.32031 24.1792L3.32324 24.1733L3.38184 24.0884C3.52661 23.9088 3.72738 23.85 3.91699 23.8569Z" fill="white" stroke="white" stroke-width="0.5"/>
<path d="M18.167 21.9814C18.5479 21.9407 18.9286 21.9708 19.3076 22.0713L19.4727 22.1143C20.2914 22.3461 21.0664 22.8603 21.6172 23.4512H21.6182C21.62 23.4529 21.6213 23.4553 21.623 23.457C21.6245 23.4586 21.6265 23.4603 21.6279 23.4619H21.627C21.7872 23.6259 21.7684 23.8497 21.6611 23.9922C21.5509 24.1383 21.3408 24.2144 21.1348 24.1152L21.125 24.1113L21.2432 23.8906L21.125 24.1104C20.9135 23.997 20.7079 23.8669 20.5098 23.7383C20.3092 23.6081 20.1169 23.4806 19.9189 23.3643C19.5241 23.1322 19.1328 22.9603 18.6973 22.9316L18.6895 22.9307C18.3005 22.8932 17.9632 23.0202 17.5059 23.1367L17.5068 23.1377C17.2722 23.2056 17.0552 23.253 16.8125 23.2764L16.8115 23.2754C16.6966 23.289 16.643 23.2908 16.5479 23.3047C16.4677 23.3164 16.4122 23.3324 16.3721 23.3545C16.346 23.3689 16.3189 23.3967 16.2598 23.4736C16.2105 23.5378 16.1299 23.6488 16.0127 23.7295L16.0059 23.7344L16.0049 23.7334C15.8367 23.8413 15.6444 23.8953 15.4521 23.9004L15.4531 23.9014C15.4509 23.9016 15.4485 23.9011 15.4463 23.9014C15.4386 23.9015 15.4305 23.9033 15.4229 23.9033V23.9023C15.3708 23.9067 15.3213 23.9088 15.2822 23.9082C15.2305 23.9074 15.1968 23.9062 15.1641 23.9082C15.1074 23.9116 15.1003 23.9215 15.0957 23.9268L15.0889 23.9346L15.082 23.9404C15.0607 23.961 15.0368 23.9972 15.0078 24.0625C14.9937 24.0943 14.9805 24.1282 14.9648 24.168C14.9498 24.2061 14.9324 24.2504 14.9131 24.2939L14.9082 24.3047C14.5594 25.0026 13.7984 25.2562 13.1367 25.3662L13.1377 25.3672C12.9352 25.4016 12.7401 25.418 12.5537 25.4316C12.3646 25.4454 12.1883 25.4558 12.0049 25.4766L12.002 25.4775C11.6089 25.5174 11.2967 25.6158 10.9268 25.7627L10.9102 25.7695L10.8936 25.7734C10.8219 25.7907 10.7531 25.7836 10.7002 25.7705C10.646 25.7571 10.5883 25.7323 10.5381 25.6943C10.4914 25.6589 10.4248 25.5908 10.4062 25.4854C10.3876 25.3783 10.4283 25.2884 10.4834 25.2246H10.4814C10.8198 24.7941 11.3116 24.6399 11.7744 24.5664C12.0067 24.5295 12.2461 24.5111 12.4648 24.4932C12.6849 24.4751 12.8842 24.4566 13.0625 24.4229C13.3762 24.3471 13.6323 24.2655 13.8174 24.1025L13.8994 24.0205L13.9619 23.9434C14.0197 23.8613 14.0663 23.7617 14.1309 23.6328C14.2086 23.4776 14.3132 23.2808 14.5059 23.1348L14.5781 23.082C14.7423 22.9745 14.924 22.9328 15.1104 22.9297L15.2881 22.9199C15.3375 22.9179 15.3676 22.9156 15.3916 22.9111C15.4067 22.9083 15.4219 22.9041 15.4404 22.8936L15.5078 22.8359C15.6516 22.6746 15.7984 22.5431 15.9785 22.4512C16.1613 22.3579 16.3605 22.3147 16.5967 22.3027H16.5986L16.7686 22.2891C16.936 22.2686 17.0989 22.2302 17.2695 22.1846C17.4907 22.1255 17.7385 22.0496 17.999 22.0039H18.002L18.167 21.9814Z" fill="white" stroke="white" stroke-width="0.5"/>
<path d="M60.7998 20.3116C60.8537 20.3117 60.9433 20.3266 61.0146 20.4015C61.0807 20.4709 61.0973 20.5552 61.0889 20.6281V21.8839C61.0889 21.9211 61.0943 22.032 61.0879 22.1134C61.0827 22.1785 61.068 22.2754 61.0137 22.3654L60.9453 22.4523C60.8762 22.5189 60.7905 22.5382 60.7266 22.5382C60.6786 22.5382 60.6186 22.527 60.5625 22.4933L60.5088 22.4523L60.498 22.4425L60.4893 22.4318C60.3905 22.3127 60.376 22.1783 60.376 22.0861C60.376 22.0404 60.3802 21.9954 60.3828 21.963C60.3858 21.927 60.3867 21.904 60.3867 21.8839C60.3867 21.8074 60.394 21.7262 60.3994 21.6583C60.4052 21.5862 60.4092 21.5265 60.4092 21.4738V21.464L60.4102 21.4552C60.4326 21.1523 60.4552 20.8704 60.4775 20.59L60.4805 20.5587L60.4902 20.5284C60.5454 20.3689 60.6962 20.3116 60.7998 20.3116Z" fill="white" stroke="white" stroke-width="0.5"/>
<path d="M61.0845 20.3602C61.1521 20.3602 61.2293 20.3815 61.2935 20.4364C61.3628 20.4958 61.4018 20.5821 61.4019 20.6747C61.4019 20.7747 61.407 20.8711 61.4126 20.9745C61.4181 21.076 61.4243 21.185 61.4243 21.3007V21.6034C61.4243 21.6238 61.4251 21.643 61.4263 21.6737C61.4273 21.7011 61.4283 21.7372 61.4263 21.7753C61.4225 21.8445 61.4061 21.9332 61.3511 22.0204L61.3247 22.0624C61.2573 22.1535 61.1541 22.1873 61.0708 22.1874C60.9768 22.1874 60.8878 22.1485 60.8218 22.0848L60.8091 22.0731L60.7974 22.0585C60.721 21.9602 60.7021 21.8543 60.6978 21.7753C60.6957 21.7372 60.6967 21.7011 60.6978 21.6737C60.699 21.643 60.7007 21.6238 60.7007 21.6034C60.7007 21.5435 60.7084 21.4785 60.7134 21.4325C60.719 21.3806 60.7231 21.3392 60.7231 21.3007C60.7232 21.0692 60.7471 20.8607 60.769 20.6493H60.771C60.7775 20.5666 60.8126 20.4903 60.8755 20.4364C60.9396 20.3815 61.0169 20.3603 61.0845 20.3602Z" fill="white" stroke="white" stroke-width="0.5"/>
<path d="M42.0181 5.67615C42.0181 5.96963 42.0174 6.25394 41.9956 6.53943L41.9839 6.76404C41.9781 6.83645 41.9731 6.89666 41.9731 6.94958V7.16541C41.9731 7.18986 41.9747 7.24758 41.9614 7.30505C41.9485 7.36124 41.9232 7.41281 41.8853 7.45935C41.8631 7.49319 41.8356 7.5201 41.8071 7.53845C41.7534 7.57296 41.6977 7.58234 41.6567 7.5824C41.6157 7.5824 41.5592 7.57308 41.5054 7.53845C41.4729 7.51746 41.4426 7.48479 41.4194 7.44373C41.3664 7.36712 41.356 7.28787 41.356 7.23865C41.356 7.21084 41.3587 7.18345 41.3599 7.17029C41.3614 7.1533 41.3618 7.14743 41.3618 7.14392V6.9281C41.3618 6.8517 41.3681 6.77127 41.3735 6.70349C41.3793 6.63108 41.3843 6.57087 41.3843 6.51794C41.3843 6.22585 41.407 5.93541 41.4292 5.65662H41.4312C41.4364 5.58122 41.4696 5.50901 41.5317 5.45837C41.593 5.40862 41.6627 5.39392 41.7153 5.39392C41.8173 5.39401 41.9308 5.44764 41.9897 5.56091L42.0181 5.6156V5.67615Z" fill="white" stroke="white" stroke-width="0.5"/>
<path d="M5.77979 8.55017C5.89244 8.55028 6.00203 8.61241 6.05908 8.71912L6.08057 8.76697L6.09131 8.79822L6.09326 8.83142C6.10411 8.98828 6.12035 9.14638 6.13721 9.30896C6.15391 9.46996 6.17158 9.6364 6.18311 9.8031H6.18213C6.19314 9.89216 6.20033 9.97538 6.20557 10.0511C6.21121 10.1328 6.216 10.2069 6.22607 10.2845C6.24715 10.4263 6.28039 10.6302 6.21826 10.8402C6.19883 10.9103 6.15246 10.9617 6.10596 10.9916C6.05213 11.0261 5.99657 11.0355 5.95557 11.0355C5.91454 11.0355 5.85896 11.0261 5.80518 10.9916C5.76783 10.9675 5.73273 10.9286 5.70947 10.8783C5.64765 10.7757 5.62434 10.6734 5.61475 10.5902C5.60967 10.5461 5.6072 10.5011 5.60498 10.4672L5.59619 10.3744V10.3695C5.58393 10.2748 5.57731 10.1868 5.57178 10.1068C5.56612 10.0251 5.56135 9.95118 5.55127 9.87341L5.55029 9.86658L5.54932 9.85876C5.5381 9.69658 5.5273 9.52889 5.51611 9.36169C5.50492 9.19442 5.49408 9.02711 5.48291 8.8656L5.48193 8.85779V8.849C5.48193 8.77157 5.51103 8.69007 5.57666 8.62927C5.63893 8.57163 5.71497 8.55017 5.77979 8.55017Z" fill="white" stroke="white" stroke-width="0.5"/>
<path d="M6.16797 9.14893C6.24183 9.14893 6.32692 9.17609 6.39062 9.23975L6.44629 9.31592L6.46484 9.35205L6.4707 9.39209C6.51731 9.68427 6.52071 9.97738 6.54102 10.2319V10.2515C6.54102 10.4818 6.56521 10.8052 6.51562 11.0923L6.5127 11.0913C6.49938 11.176 6.45004 11.238 6.39746 11.272C6.34379 11.3065 6.28807 11.3158 6.24707 11.3159C6.20603 11.3159 6.14958 11.3066 6.0957 11.272C6.04762 11.2409 6.00043 11.1866 5.98242 11.1128L5.93555 10.895C5.91035 10.7493 5.89633 10.6024 5.88965 10.4604L5.88477 10.2515C5.86302 9.96707 5.8623 9.70416 5.8623 9.43115V9.37061L5.89062 9.31592L5.94629 9.23975C6.00989 9.17631 6.09425 9.149 6.16797 9.14893Z" fill="white" stroke="white" stroke-width="0.5"/>
<path d="M44.4001 13.8032L39.9301 28.1332H38.1901L34.5601 17.2032C34.5267 17.0966 34.4934 16.9832 34.4601 16.8632C34.4334 16.7432 34.4034 16.6166 34.3701 16.4832C34.3367 16.6166 34.3034 16.7432 34.2701 16.8632C34.2367 16.9832 34.2034 17.0966 34.1701 17.2032L30.5201 28.1332H28.7801L24.3101 13.8032H25.9201C26.0934 13.8032 26.2367 13.8466 26.3501 13.9332C26.4701 14.0199 26.5467 14.1299 26.5801 14.2632L29.5401 24.2232C29.5867 24.4032 29.6301 24.5966 29.6701 24.8032C29.7167 25.0099 29.7601 25.2299 29.8001 25.4632C29.8467 25.2299 29.8934 25.0099 29.9401 24.8032C29.9934 24.5899 30.0501 24.3966 30.1101 24.2232L33.4801 14.2632C33.5201 14.1499 33.5967 14.0466 33.7101 13.9532C33.8301 13.8532 33.9734 13.8032 34.1401 13.8032H34.7001C34.8734 13.8032 35.0134 13.8466 35.1201 13.9332C35.2267 14.0199 35.3067 14.1299 35.3601 14.2632L38.7201 24.2232C38.7801 24.3966 38.8334 24.5832 38.8801 24.7832C38.9334 24.9832 38.9834 25.1932 39.0301 25.4132C39.0634 25.1932 39.1001 24.9832 39.1401 24.7832C39.1801 24.5832 39.2234 24.3966 39.2701 24.2232L42.2401 14.2632C42.2734 14.1432 42.3467 14.0366 42.4601 13.9432C42.5801 13.8499 42.7234 13.8032 42.8901 13.8032H44.4001Z" fill="white"/>
</g>
<defs>
<clipPath id="clip0_256_6536">
<rect width="64" height="46" fill="white"/>
</clipPath>
</defs>
</svg>
