<svg aria-hidden="true" style="position: absolute; width: 0; height: 0; overflow: hidden;" version="1.1" xmlns="http://www.w3.org/2000/svg" xmlns:xlink="http://www.w3.org/1999/xlink">
<defs>
<symbol id="icon-arrow-right" viewBox="0 0 195 32">
<path fill="#fff" style="fill: var(--color1, #fff)" d="M193.415 17.414c0.78-0.781 0.78-2.047 0-2.829l-12.728-12.728c-0.781-0.781-2.048-0.781-2.829 0-0.78 0.781-0.78 2.047 0 2.828l11.315 11.314-11.315 11.314c-0.78 0.781-0.78 2.047 0 2.828 0.781 0.781 2.048 0.781 2.829 0l12.728-12.728zM0 18h192v-4h-192v4z"></path>
</symbol>
<symbol id="icon-arrow-left" viewBox="0 0 195 32">
<path fill="#fff" style="fill: var(--color1, #fff)" d="M1.252 14.586c-0.781 0.781-0.781 2.047 0 2.828l12.728 12.728c0.781 0.781 2.047 0.781 2.828 0s0.781-2.047 0-2.828l-11.314-11.314 11.314-11.314c0.781-0.781 0.781-2.047 0-2.828s-2.047-0.781-2.828 0l-12.728 12.728zM194.667 14h-192v4h192v-4z"></path>
</symbol>
<symbol id="icon-bus" viewBox="0 0 32 32">
<path fill="#fff" style="fill: var(--color1, #fff)" d="M9.385 26.667c-0.189 0-0.347-0.064-0.475-0.192s-0.192-0.286-0.192-0.475v-2.528c-0.434-0.188-0.885-0.589-1.351-1.201s-0.7-1.318-0.7-2.117v-12.154c0-1.383 0.749-2.396 2.246-3.037s3.859-0.963 7.087-0.963c3.344 0 5.736 0.308 7.175 0.925s2.159 1.642 2.159 3.075v12.154c0 0.798-0.233 1.504-0.7 2.117s-0.917 1.013-1.351 1.201v2.528c0 0.189-0.064 0.347-0.192 0.475s-0.286 0.192-0.475 0.192h-0.308c-0.189 0-0.347-0.064-0.475-0.192s-0.192-0.286-0.192-0.475v-2h-11.282v2c0 0.189-0.064 0.347-0.192 0.475s-0.286 0.192-0.475 0.192h-0.308zM8 14.667h16v-5.949h-16v5.949zM11.339 20.821c0.415 0 0.765-0.145 1.052-0.436s0.429-0.643 0.429-1.058-0.145-0.765-0.435-1.052c-0.29-0.286-0.643-0.429-1.058-0.429s-0.765 0.145-1.052 0.436c-0.286 0.29-0.429 0.643-0.429 1.058s0.145 0.765 0.435 1.052c0.29 0.286 0.643 0.429 1.058 0.429zM20.673 20.821c0.415 0 0.765-0.145 1.052-0.436s0.429-0.643 0.429-1.058-0.145-0.765-0.436-1.052c-0.29-0.286-0.643-0.429-1.058-0.429s-0.765 0.145-1.052 0.436c-0.286 0.29-0.429 0.643-0.429 1.058s0.145 0.765 0.436 1.052c0.29 0.286 0.643 0.429 1.058 0.429zM8.138 7.385h15.754c-0.231-0.685-0.943-1.199-2.137-1.54s-3.107-0.512-5.74-0.512c-2.617 0-4.523 0.173-5.717 0.519s-1.914 0.857-2.16 1.532zM10.667 22.667h10.667c0.733 0 1.361-0.261 1.883-0.783s0.783-1.15 0.783-1.883v-4h-16v4c0 0.733 0.261 1.361 0.783 1.883s1.15 0.783 1.883 0.783z"></path>
</symbol>
<symbol id="icon-face" viewBox="0 0 32 32">
<path fill="#fff" style="fill: var(--color1, #fff)" d="M12 21.667c-0.467 0-0.861-0.161-1.183-0.483s-0.483-0.717-0.483-1.183c0-0.467 0.161-0.861 0.483-1.183s0.717-0.483 1.183-0.483c0.467 0 0.861 0.161 1.183 0.483s0.483 0.717 0.483 1.183c0 0.467-0.161 0.861-0.483 1.183s-0.717 0.483-1.183 0.483zM20 21.667c-0.467 0-0.861-0.161-1.183-0.483s-0.483-0.717-0.483-1.183 0.161-0.861 0.483-1.183c0.322-0.322 0.717-0.483 1.183-0.483s0.861 0.161 1.183 0.483c0.322 0.322 0.483 0.717 0.483 1.183s-0.161 0.861-0.483 1.183c-0.322 0.322-0.717 0.483-1.183 0.483zM16 29.333c2.978 0 5.5-1.033 7.567-3.1s3.1-4.589 3.1-7.567c0-0.533-0.033-1.050-0.1-1.55s-0.189-0.983-0.367-1.45c-0.467 0.111-0.933 0.194-1.4 0.25s-0.955 0.083-1.467 0.083c-2.022 0-3.933-0.433-5.733-1.3s-3.333-2.078-4.6-3.633c-0.711 1.733-1.728 3.239-3.050 4.517s-2.861 2.239-4.617 2.883v0.2c0 2.978 1.033 5.5 3.1 7.567s4.589 3.1 7.567 3.1zM12.944 8.423c1.087 2.171 2.623 3.754 4.608 4.75s3.912 1.494 5.782 1.494c0.414 0 0.821-0.021 1.221-0.063s0.798-0.111 1.195-0.206c-0.848-1.983-2.161-3.545-3.941-4.686s-3.715-1.712-5.808-1.712c-0.585 0-1.12 0.034-1.605 0.101s-0.969 0.175-1.451 0.322zM5.516 16.941c1.373-0.61 2.763-1.61 4.172-3s2.23-3.137 2.464-5.241c-1.783 0.679-3.259 1.747-4.428 3.205s-1.905 3.137-2.208 5.036zM4.567 15.279c0.485-1.776 1.337-3.341 2.555-4.696s2.689-2.36 4.414-3.017c-0.48-0.603-1.076-1.092-1.787-1.467s-1.496-0.562-2.355-0.562c-1.481 0-2.733 0.512-3.756 1.537s-1.535 2.279-1.535 3.763c0 0.934 0.226 1.788 0.677 2.561s1.047 1.4 1.787 1.88zM16.005 30.667c-1.659 0-3.22-0.315-4.68-0.945s-2.732-1.485-3.812-2.565c-1.081-1.080-1.936-2.35-2.566-3.81s-0.946-3.020-0.946-4.68c0-0.351 0.015-0.698 0.044-1.042s0.081-0.677 0.156-0.999c-1.041-0.561-1.873-1.354-2.496-2.38s-0.935-2.162-0.935-3.407c0-1.844 0.644-3.411 1.933-4.7s2.856-1.933 4.7-1.933c1.127 0 2.163 0.262 3.109 0.786s1.719 1.226 2.319 2.106c0.509-0.144 1.030-0.251 1.561-0.323s1.067-0.108 1.608-0.108c1.66 0 3.22 0.315 4.68 0.945s2.73 1.484 3.81 2.564 1.935 2.349 2.565 3.809c0.63 1.459 0.945 3.019 0.945 4.678s-0.315 3.22-0.945 4.68c-0.63 1.461-1.484 2.731-2.564 3.812s-2.349 1.936-3.809 2.566c-1.459 0.63-3.019 0.946-4.678 0.946z"></path>
</symbol>
<symbol id="icon-id-card" viewBox="0 0 32 32">
<path fill="#fff" style="fill: var(--color1, #fff)" d="M28 5.25h-24c-1.518 0.002-2.748 1.232-2.75 2.75v16c0.002 1.518 1.232 2.748 2.75 2.75h24c1.518-0.002 2.748-1.232 2.75-2.75v-16c-0.002-1.518-1.232-2.748-2.75-2.75zM4 6.75h24c0.69 0.001 1.249 0.56 1.25 1.25v1.25h-26.5v-1.25c0.001-0.69 0.56-1.249 1.25-1.25zM28 25.25h-24c-0.69-0.001-1.249-0.56-1.25-1.25v-13.25h26.5v13.25c-0.001 0.69-0.56 1.249-1.25 1.25zM9.645 17.628c1.455 0 2.635-1.18 2.635-2.635s-1.18-2.635-2.635-2.635-2.635 1.18-2.635 2.635c0.001 1.455 1.18 2.633 2.635 2.635zM9.645 13.858c0.627 0 1.135 0.508 1.135 1.135s-0.508 1.135-1.135 1.135-1.135-0.508-1.135-1.135c0.001-0.627 0.508-1.134 1.135-1.135zM9.645 18.811c-2.15 0.009-3.947 1.51-4.41 3.52l-0.006 0.031c-0.011 0.048-0.017 0.103-0.017 0.16 0 0.414 0.336 0.75 0.75 0.75 0.357 0 0.656-0.25 0.731-0.585l0.001-0.005c0.309-1.366 1.512-2.371 2.951-2.371s2.642 1.005 2.947 2.351l0.004 0.020c0.077 0.338 0.375 0.587 0.732 0.587 0.414 0 0.75-0.336 0.75-0.75 0-0.056-0.006-0.11-0.018-0.163l0.001 0.005c-0.469-2.041-2.265-3.541-4.414-3.551h-0.001l-0.001 0.001zM26 13.25h-8c-0.414 0-0.75 0.336-0.75 0.75s0.336 0.75 0.75 0.75h8c0.414 0 0.75-0.336 0.75-0.75s-0.336-0.75-0.75-0.75zM26 17.25h-8c-0.414 0-0.75 0.336-0.75 0.75s0.336 0.75 0.75 0.75h8c0.414 0 0.75-0.336 0.75-0.75s-0.336-0.75-0.75-0.75zM26 21.25h-8c-0.414 0-0.75 0.336-0.75 0.75s0.336 0.75 0.75 0.75h8c0.414 0 0.75-0.336 0.75-0.75s-0.336-0.75-0.75-0.75z"></path>
</symbol>
<symbol id="icon-Star" viewBox="0 0 35 32">
<path fill="#ae990b" style="fill: var(--color2, #ae990b)" d="M17.455 0l4.617 11.1 11.984 0.961-9.13 7.821 2.789 11.694-10.259-6.266-10.26 6.266 2.789-11.694-9.13-7.821 11.983-0.961 4.617-11.1z"></path>
</symbol>
<symbol id="icon-ticket" viewBox="0 0 32 32">
<path fill="#fff" style="fill: var(--color1, #fff)" d="M30 13.75c0.414 0 0.75-0.336 0.75-0.75v-5c0-0.414-0.336-0.75-0.75-0.75h-28c-0.414 0-0.75 0.336-0.75 0.75v5c0 0.414 0.336 0.75 0.75 0.75 1.243 0 2.25 1.007 2.25 2.25s-1.007 2.25-2.25 2.25c-0.414 0-0.75 0.336-0.75 0.75v5c0 0.414 0.336 0.75 0.75 0.75h28c0.414 0 0.75-0.336 0.75-0.75v-5c0-0.414-0.336-0.75-0.75-0.75-1.243 0-2.25-1.007-2.25-2.25s1.007-2.25 2.25-2.25zM29.25 19.674v3.576h-26.5v-3.576c1.724-0.361 3-1.869 3-3.674s-1.276-3.313-2.975-3.67l-0.024-0.004v-3.576h26.5v3.576c-1.724 0.361-3 1.869-3 3.674s1.276 3.313 2.975 3.67l0.024 0.004z"></path>
</symbol>
<symbol id="icon-instagram" viewBox="0 0 32 32">
<path fill="#fff" style="fill: var(--color1, #fff)" d="M16 8.8c-1.424 0-2.816 0.422-4 1.213s-2.107 1.916-2.652 3.231c-0.545 1.316-0.688 2.763-0.41 4.16s0.964 2.68 1.97 3.687c1.007 1.007 2.29 1.693 3.687 1.97s2.844 0.135 4.16-0.41c1.316-0.545 2.44-1.468 3.231-2.652s1.213-2.576 1.213-4c-0.002-1.909-0.761-3.739-2.111-5.089s-3.18-2.109-5.089-2.111zM16 20.8c-0.949 0-1.877-0.281-2.667-0.809s-1.405-1.277-1.768-2.154c-0.363-0.877-0.458-1.842-0.273-2.773s0.642-1.786 1.314-2.458c0.671-0.671 1.527-1.128 2.458-1.314s1.896-0.090 2.773 0.273c0.877 0.363 1.627 0.979 2.154 1.768s0.809 1.717 0.809 2.667c0 1.273-0.506 2.494-1.406 3.394s-2.121 1.406-3.394 1.406zM23.2 0.4h-14.4c-2.227 0.002-4.362 0.888-5.937 2.463s-2.461 3.71-2.463 5.937v14.4c0.002 2.227 0.888 4.362 2.463 5.937s3.71 2.46 5.937 2.463h14.4c2.227-0.002 4.362-0.888 5.937-2.463s2.46-3.71 2.463-5.937v-14.4c-0.002-2.227-0.888-4.362-2.463-5.937s-3.71-2.461-5.937-2.463zM29.2 23.2c0 1.591-0.632 3.117-1.757 4.243s-2.651 1.757-4.243 1.757h-14.4c-1.591 0-3.117-0.632-4.243-1.757s-1.757-2.651-1.757-4.243v-14.4c0-1.591 0.632-3.117 1.757-4.243s2.651-1.757 4.243-1.757h14.4c1.591 0 3.117 0.632 4.243 1.757s1.757 2.651 1.757 4.243v14.4zM25.6 8.2c0 0.356-0.106 0.704-0.303 1s-0.479 0.527-0.808 0.663c-0.329 0.136-0.691 0.172-1.040 0.102s-0.67-0.241-0.922-0.493-0.423-0.572-0.493-0.922c-0.069-0.349-0.034-0.711 0.102-1.040s0.367-0.61 0.663-0.808 0.644-0.303 1-0.303c0.477 0 0.935 0.19 1.273 0.527s0.527 0.795 0.527 1.273z"></path>
</symbol>
<symbol id="icon-facebook" viewBox="0 0 32 32">
<path fill="#fff" style="fill: var(--color1, #fff)" d="M16 0.4c-3.085 0-6.101 0.915-8.667 2.629s-4.565 4.151-5.746 7.001c-1.181 2.851-1.49 5.987-0.888 9.013s2.088 5.806 4.269 7.988c2.182 2.182 4.961 3.668 7.987 4.269s6.163 0.293 9.013-0.888c2.85-1.181 5.287-3.18 7.001-5.746s2.629-5.581 2.629-8.667c-0.004-4.136-1.649-8.101-4.574-11.026s-6.89-4.57-11.026-4.574zM17.2 29.144v-9.544h3.6c0.318 0 0.624-0.126 0.848-0.352s0.352-0.53 0.352-0.848-0.126-0.624-0.352-0.848c-0.225-0.225-0.53-0.352-0.848-0.352h-3.6v-3.6c0-0.636 0.253-1.247 0.703-1.697s1.061-0.703 1.697-0.703h2.4c0.318 0 0.624-0.126 0.848-0.351s0.352-0.53 0.352-0.849-0.126-0.623-0.352-0.849c-0.225-0.225-0.53-0.351-0.848-0.351h-2.4c-1.273 0-2.494 0.506-3.394 1.406s-1.406 2.121-1.406 3.394v3.6h-3.6c-0.318 0-0.623 0.126-0.849 0.352s-0.351 0.53-0.351 0.848 0.126 0.624 0.351 0.848c0.225 0.225 0.53 0.352 0.849 0.352h3.6v9.544c-3.383-0.309-6.516-1.91-8.749-4.47s-3.392-5.883-3.237-9.276c0.155-3.393 1.611-6.596 4.067-8.943s5.722-3.656 9.119-3.656c3.397 0 6.663 1.31 9.119 3.656s3.913 5.55 4.067 8.943c0.155 3.393-1.005 6.716-3.238 9.276s-5.366 4.161-8.749 4.47z"></path>
</symbol>
<symbol id="icon-telegram" viewBox="0 0 37 32">
<path fill="#fff" style="fill: var(--color1, #fff)" d="M35.717 0.767c-0.196-0.169-0.434-0.281-0.689-0.325s-0.517-0.017-0.758 0.077l-31.999 12.523c-0.454 0.176-0.837 0.495-1.094 0.909s-0.372 0.899-0.329 1.384c0.043 0.485 0.243 0.942 0.569 1.304s0.76 0.607 1.238 0.7l8.291 1.628v9.245c-0.002 0.503 0.148 0.996 0.43 1.413s0.682 0.741 1.149 0.928c0.467 0.19 0.98 0.236 1.473 0.131s0.943-0.356 1.292-0.72l3.998-4.146 6.343 5.552c0.458 0.406 1.048 0.63 1.659 0.632 0.268-0 0.534-0.042 0.789-0.125 0.417-0.132 0.792-0.371 1.087-0.694s0.502-0.716 0.598-1.143l6.409-27.881c0.057-0.251 0.045-0.514-0.035-0.759s-0.226-0.464-0.421-0.632zM26.064 6.451l-14.146 10.131-7.832-1.536 21.977-8.594zM13.473 28.211v-7.497l3.914 3.433-3.914 4.064zM27.294 29.474l-13.055-11.447 18.79-13.467-5.735 24.914z"></path>
</symbol>
<symbol id="icon-menu" viewBox="0 0 42 32">
<path fill="none" stroke="#fff" stroke-width="3.2" stroke-miterlimit="4" stroke-linecap="round" stroke-linejoin="round" style="stroke: var(--color1, #fff)" d="M2.133 29.333h21.333M2.133 16h37.333M18.133 2.667h21.333"></path>
</symbol>
<symbol id="icon-x" viewBox="0 0 32 32">
<path fill="none" stroke="#fff" stroke-width="1.6" stroke-miterlimit="4" stroke-linecap="round" stroke-linejoin="round" style="stroke: var(--color1, #fff)" d="M24 8l-16 16"></path>
<path fill="none" stroke="#fff" stroke-width="1.6" stroke-miterlimit="4" stroke-linecap="round" stroke-linejoin="round" style="stroke: var(--color1, #fff)" d="M8 8l16 16"></path>
</symbol>
</defs>
</svg>